<svg width="40" height="40" viewBox="0 0 40 40" fill="none" xmlns="http://www.w3.org/2000/svg">
<rect width="40" height="40" rx="8" fill="#565DFF"/>
<rect width="40" height="40" rx="8" fill="white" fill-opacity="0.88"/>
<path d="M11 20C11 23.7712 11 27.6569 12.318 28.8284C13.636 30 15.7574 30 20 30C24.2426 30 26.364 30 27.682 28.8284C29 27.6569 29 23.7712 29 20" stroke="#565DFF" stroke-width="1.5"/>
<path d="M22.6603 22.2019L28.8579 20.3426C29.2688 20.2194 29.4743 20.1577 29.6264 20.0355C29.7592 19.9288 29.8626 19.7898 29.9266 19.6319C30 19.4511 30 19.2366 30 18.8077C30 17.1203 30 16.2766 29.6703 15.6327C29.3834 15.0724 28.9276 14.6166 28.3673 14.3297C27.7234 14 26.8797 14 25.1923 14H14.8077C13.1203 14 12.2766 14 11.6327 14.3297C11.0724 14.6166 10.6166 15.0724 10.3297 15.6327C10 16.2766 10 17.1203 10 18.8077C10 19.2366 10 19.4511 10.0734 19.6319C10.1374 19.7898 10.2408 19.9288 10.3736 20.0355C10.5257 20.1577 10.7312 20.2194 11.1421 20.3426L17.3397 22.2019" stroke="#565DFF" stroke-width="1.5"/>
<path d="M22 20.5H18C17.7239 20.5 17.5 20.7239 17.5 21V23.1615C17.5 23.3659 17.6245 23.5498 17.8143 23.6257L18.5144 23.9058C19.4681 24.2872 20.5319 24.2872 21.4856 23.9058L22.1857 23.6257C22.3755 23.5498 22.5 23.3659 22.5 23.1615V21C22.5 20.7239 22.2761 20.5 22 20.5Z" stroke="#565DFF" stroke-width="1.5" stroke-linecap="round"/>
<path d="M17.1709 12C17.5827 10.8348 18.694 10 20.0002 10C21.3064 10 22.4177 10.8348 22.8295 12" stroke="#565DFF" stroke-width="1.5" stroke-linecap="round"/>
</svg>
