<svg width="40" height="40" viewBox="0 0 40 40" fill="none" xmlns="http://www.w3.org/2000/svg">
<rect width="40" height="40" rx="8" fill="#565DFF"/>
<rect width="40" height="40" rx="8" fill="white" fill-opacity="0.88"/>
<path d="M24.755 10H15.245C14.0861 10 13.5067 10 13.0394 10.1626C12.1532 10.471 11.4575 11.1872 11.158 12.0995C11 12.5805 11 13.1771 11 14.3701V28.3742C11 29.2324 11.985 29.6878 12.6081 29.1176C12.9742 28.7826 13.5258 28.7826 13.8919 29.1176L14.375 29.5597C15.0166 30.1468 15.9834 30.1468 16.625 29.5597C17.2666 28.9726 18.2334 28.9726 18.875 29.5597C19.5166 30.1468 20.4834 30.1468 21.125 29.5597C21.7666 28.9726 22.7334 28.9726 23.375 29.5597C24.0166 30.1468 24.9834 30.1468 25.625 29.5597L26.1081 29.1176C26.4742 28.7826 27.0258 28.7826 27.3919 29.1176C28.015 29.6878 29 29.2324 29 28.3742V14.3701C29 13.1771 29 12.5805 28.842 12.0995C28.5425 11.1872 27.8468 10.471 26.9606 10.1626C26.4933 10 25.9139 10 24.755 10Z" stroke="#565DFF" stroke-width="1.5"/>
<path d="M18.5 19H25" stroke="#565DFF" stroke-width="1.5" stroke-linecap="round"/>
<path d="M15 19H15.5" stroke="#565DFF" stroke-width="1.5" stroke-linecap="round"/>
<path d="M15 15.5H15.5" stroke="#565DFF" stroke-width="1.5" stroke-linecap="round"/>
<path d="M15 22.5H15.5" stroke="#565DFF" stroke-width="1.5" stroke-linecap="round"/>
<path d="M18.5 15.5H25" stroke="#565DFF" stroke-width="1.5" stroke-linecap="round"/>
<path d="M18.5 22.5H25" stroke="#565DFF" stroke-width="1.5" stroke-linecap="round"/>
</svg>
