<svg width="88" height="88" viewBox="0 0 88 88" fill="none" xmlns="http://www.w3.org/2000/svg">
<path fill-rule="evenodd" clip-rule="evenodd" d="M44 0C19.7 0 0 19.7 0 44C0 68.3 19.7 88 44 88C68.3 88 88 68.3 88 44C88 19.7 68.3 0 44 0ZM63.072 36.56C63.4232 36.1586 63.6905 35.691 63.8583 35.1847C64.0261 34.6784 64.091 34.1437 64.0491 33.6119C64.0072 33.0802 63.8594 32.5623 63.6143 32.0885C63.3693 31.6148 63.0319 31.1948 62.6222 30.8534C62.2124 30.5119 61.7386 30.2559 61.2284 30.1003C60.7182 29.9446 60.1821 29.8927 59.6515 29.9473C59.121 30.002 58.6067 30.1622 58.139 30.4185C57.6713 30.6749 57.2595 31.0222 56.928 31.44L39.728 52.076L30.828 43.172C30.0736 42.4434 29.0632 42.0402 28.0144 42.0493C26.9656 42.0584 25.9624 42.4791 25.2207 43.2207C24.4791 43.9624 24.0584 44.9656 24.0493 46.0144C24.0402 47.0632 24.4434 48.0736 25.172 48.828L37.172 60.828C37.565 61.2208 38.0356 61.5274 38.5537 61.7282C39.0717 61.9291 39.626 62.0198 40.1811 61.9946C40.7362 61.9694 41.2799 61.8288 41.7776 61.5818C42.2754 61.3348 42.7162 60.9868 43.072 60.56L63.072 36.56Z" fill="#00AF6C"/>
</svg>
