<svg width="93" height="42" viewBox="0 0 93 42" fill="none" xmlns="http://www.w3.org/2000/svg">
<rect width="93" height="42" rx="8" fill="#565DFF"/>
<path d="M26.1706 16.7895C26.8274 16.7895 27.4045 16.8927 27.9018 17.0991C28.3991 17.2962 28.7791 17.5824 29.0418 17.9577C29.3139 18.3236 29.45 18.7505 29.45 19.2385V23.1371C29.45 23.7845 29.1825 24.2865 28.6477 24.643C28.1129 24.9996 27.3716 25.1779 26.424 25.1779C25.4763 25.1779 24.7397 24.9996 24.2143 24.643C23.6888 24.2771 23.4261 23.7751 23.4261 23.1371V21.0259C23.4261 20.5755 23.5715 20.2096 23.8624 19.9281C24.1533 19.6466 24.5333 19.5059 25.0024 19.5059C25.4622 19.5059 25.8328 19.6419 26.1143 19.914C26.3958 20.1767 26.5366 20.5239 26.5366 20.9555C26.5366 21.3778 26.4005 21.7249 26.1284 21.997C25.8657 22.2598 25.5232 22.3911 25.101 22.3911C25.0165 22.3911 24.918 22.3817 24.8054 22.363V23.0385C24.8054 23.3669 24.9508 23.6203 25.2417 23.7986C25.542 23.9768 25.9501 24.066 26.4662 24.066C26.9822 24.066 27.3763 23.9721 27.6484 23.7845C27.9205 23.5874 28.0566 23.3153 28.0566 22.9682V19.2666C28.0566 18.8538 27.883 18.5253 27.5358 18.2814C27.1887 18.0281 26.7242 17.9014 26.1425 17.9014C25.5795 17.9014 25.1057 18.0187 24.721 18.2532C24.3363 18.4784 24.1064 18.7881 24.0313 19.1822H22.6802C22.7458 18.4503 23.0977 17.8685 23.7357 17.4369C24.3738 17.0053 25.1854 16.7895 26.1706 16.7895ZM25.0869 20.3081C24.8992 20.3081 24.7444 20.3691 24.6224 20.4911C24.5005 20.6037 24.4395 20.7538 24.4395 20.9415C24.4395 21.1291 24.5005 21.2839 24.6224 21.4059C24.7444 21.5279 24.8992 21.5889 25.0869 21.5889C25.2745 21.5889 25.4294 21.5279 25.5513 21.4059C25.6733 21.2839 25.7343 21.1291 25.7343 20.9415C25.7343 20.7538 25.6733 20.6037 25.5513 20.4911C25.4294 20.3691 25.2745 20.3081 25.0869 20.3081ZM38.2939 22.3489C38.5847 22.4615 38.8146 22.6304 38.9835 22.8556C39.1524 23.0808 39.2369 23.3388 39.2369 23.6297C39.2369 24.0894 39.0914 24.4647 38.8005 24.7556C38.5191 25.0371 38.1484 25.1779 37.6887 25.1779C37.2477 25.1779 36.8864 25.0371 36.6049 24.7556C36.3235 24.4741 36.1827 24.1082 36.1827 23.6578V23.6437C35.8074 23.7939 35.4461 23.9956 35.099 24.2489C34.7612 24.4929 34.4891 24.7556 34.2827 25.0371H32.8893V19.6748C32.7955 19.7029 32.6969 19.717 32.5937 19.717C32.1621 19.717 31.8103 19.5809 31.5382 19.3088C31.266 19.0273 31.13 18.6708 31.13 18.2392C31.13 17.8169 31.2707 17.4698 31.5522 17.1977C31.8431 16.9256 32.2184 16.7895 32.6782 16.7895C33.1473 16.7895 33.532 16.9349 33.8323 17.2258C34.1325 17.5073 34.2827 17.8732 34.2827 18.3236V23.6437C34.414 23.4936 34.6064 23.3435 34.8597 23.1934C35.1131 23.0339 35.4321 22.865 35.8168 22.6867C36.2578 22.4709 36.5909 22.2832 36.8161 22.1237C37.0506 21.9642 37.2148 21.8047 37.3087 21.6452C37.4025 21.4763 37.4494 21.2699 37.4494 21.0259V16.9302H38.8428V21.04C38.8428 21.3308 38.7959 21.5936 38.702 21.8281C38.6082 22.0533 38.4721 22.2269 38.2939 22.3489ZM32.5937 18.9007C32.7908 18.9007 32.9456 18.8397 33.0582 18.7177C33.1802 18.5957 33.2412 18.4409 33.2412 18.2532C33.2412 18.0656 33.1802 17.9108 33.0582 17.7888C32.9456 17.6668 32.7908 17.6058 32.5937 17.6058C32.4061 17.6058 32.2513 17.6668 32.1293 17.7888C32.0073 17.9108 31.9463 18.0656 31.9463 18.2532C31.9463 18.4409 32.0073 18.5957 32.1293 18.7177C32.2513 18.8397 32.4061 18.9007 32.5937 18.9007ZM37.6887 24.3615C37.8857 24.3615 38.0452 24.3005 38.1672 24.1786C38.2892 24.0566 38.3502 23.9018 38.3502 23.7141C38.3502 23.5265 38.2892 23.3716 38.1672 23.2497C38.0452 23.1277 37.8857 23.0667 37.6887 23.0667C37.501 23.0667 37.3462 23.1277 37.2242 23.2497C37.1116 23.3716 37.0553 23.5265 37.0553 23.7141C37.0553 23.9018 37.1116 24.0566 37.2242 24.1786C37.3462 24.3005 37.501 24.3615 37.6887 24.3615ZM38.0299 28.2602C37.983 28.2789 37.922 28.293 37.8469 28.3024C37.7719 28.3118 37.6968 28.3164 37.6217 28.3164C37.2746 28.3164 36.9884 28.2039 36.7632 27.9787C36.538 27.7535 36.4254 27.4626 36.4254 27.106C36.4254 26.7495 36.5568 26.4539 36.8195 26.2194C37.0728 25.9942 37.3965 25.8816 37.7906 25.8816C38.2316 25.8816 38.5835 25.9942 38.8462 26.2194C39.1089 26.4539 39.2403 26.7448 39.2403 27.092V29.7943H38.0299V28.2602ZM37.6499 27.6268C37.8 27.6268 37.9267 27.5752 38.0299 27.472C38.1237 27.3782 38.1706 27.2562 38.1706 27.106C38.1706 26.9465 38.1237 26.8152 38.0299 26.712C37.9267 26.6181 37.8 26.5712 37.6499 26.5712C37.4997 26.5712 37.3778 26.6181 37.2839 26.712C37.1807 26.8152 37.1291 26.9465 37.1291 27.106C37.1291 27.2562 37.1807 27.3782 37.2839 27.472C37.3778 27.5752 37.4997 27.6268 37.6499 27.6268ZM48.396 16.9302V25.0371H47.1153C46.7399 24.7087 46.313 24.4131 45.8345 24.1504C45.3653 23.8783 44.9243 23.6766 44.5115 23.5452V23.6015C44.5115 24.0613 44.352 24.4413 44.033 24.7415C43.7139 25.0324 43.3152 25.1779 42.8366 25.1779C42.3581 25.1779 41.9687 25.0324 41.6685 24.7415C41.3776 24.4507 41.2322 24.0754 41.2322 23.6156C41.2322 23.1652 41.3823 22.7993 41.6825 22.5178C41.9828 22.2269 42.3816 22.0815 42.8789 22.0815H42.907V19.6748C42.8132 19.7029 42.7147 19.717 42.6114 19.717C42.1892 19.717 41.842 19.5809 41.5699 19.3088C41.2978 19.0273 41.1618 18.6708 41.1618 18.2392C41.1618 17.8169 41.3025 17.4698 41.584 17.1977C41.8749 16.9256 42.2502 16.7895 42.71 16.7895C43.1791 16.7895 43.5638 16.9349 43.8641 17.2258C44.1643 17.5073 44.3145 17.8732 44.3145 18.3236V22.2926C44.8117 22.4521 45.2997 22.6492 45.7782 22.8837C46.2567 23.1089 46.6649 23.3388 47.0027 23.5734V16.9302H48.396ZM41.9781 18.2532C41.9781 18.4409 42.0391 18.5957 42.1611 18.7177C42.283 18.8397 42.4379 18.9007 42.6255 18.9007C42.8132 18.9007 42.968 18.8397 43.09 18.7177C43.2213 18.5957 43.287 18.4409 43.287 18.2532C43.287 18.0656 43.2213 17.9108 43.09 17.7888C42.968 17.6668 42.8132 17.6058 42.6255 17.6058C42.4379 17.6058 42.283 17.6668 42.1611 17.7888C42.0391 17.9108 41.9781 18.0656 41.9781 18.2532ZM42.7803 24.3052C42.9868 24.3052 43.151 24.2443 43.2729 24.1223C43.4043 23.9909 43.47 23.8267 43.47 23.6297C43.47 23.442 43.4043 23.2872 43.2729 23.1652C43.151 23.0339 42.9868 22.9682 42.7803 22.9682C42.5927 22.9682 42.4332 23.0339 42.3018 23.1652C42.1798 23.2872 42.1188 23.442 42.1188 23.6297C42.1188 23.8267 42.1798 23.9909 42.3018 24.1223C42.4332 24.2443 42.5927 24.3052 42.7803 24.3052ZM50.8969 12.0605C50.8969 12.7548 50.7374 13.3647 50.4184 13.8902C50.1087 14.4062 49.6818 14.805 49.1376 15.0865C48.584 15.368 47.96 15.5087 47.2657 15.5087C46.7027 15.5087 46.2101 15.429 45.7879 15.2695C45.3657 15.1006 45.0419 14.8754 44.8167 14.5939C44.5916 14.303 44.479 13.9746 44.479 13.6087C44.479 13.1958 44.615 12.8627 44.8871 12.6094C45.1592 12.3467 45.5064 12.2153 45.9286 12.2153C46.3509 12.2153 46.698 12.3467 46.9701 12.6094C47.2329 12.8627 47.3642 13.2005 47.3642 13.6228C47.3642 14.0356 47.2375 14.3687 46.9842 14.622C47.0311 14.6314 47.1109 14.6361 47.2235 14.6361C48.0023 14.6361 48.6121 14.3969 49.0531 13.9183C49.4941 13.4304 49.7193 12.8111 49.7287 12.0605H50.8969ZM45.2671 13.5946C45.2671 13.7729 45.3328 13.923 45.4642 14.045C45.5862 14.167 45.741 14.228 45.9286 14.228C46.1069 14.228 46.257 14.167 46.379 14.045C46.501 13.923 46.562 13.7729 46.562 13.5946C46.562 13.407 46.501 13.2568 46.379 13.1442C46.257 13.0223 46.1069 12.9613 45.9286 12.9613C45.741 12.9613 45.5862 13.0223 45.4642 13.1442C45.3328 13.2662 45.2671 13.4163 45.2671 13.5946ZM55.775 16.7895C56.4037 16.8927 56.9057 17.1977 57.281 17.7043C57.6563 18.211 57.844 18.8397 57.844 19.5903V25.0371H56.4365V19.6185C56.4365 19.1962 56.3802 18.8538 56.2676 18.591C56.1644 18.3283 55.9908 18.1172 55.7469 17.9577L54.3535 18.9288L52.8898 17.9155C52.6083 18.1031 52.4018 18.3424 52.2705 18.6333C52.1391 18.9241 52.0734 19.2947 52.0734 19.7451C52.0734 19.9516 52.1016 20.2002 52.1579 20.4911C52.2236 20.7726 52.2939 21.0541 52.369 21.3355C52.566 22.0205 52.6646 22.5225 52.6646 22.8415V23.1793C52.8147 22.9822 53.0164 22.7711 53.2698 22.5459C53.5325 22.3207 53.6967 22.18 53.7624 22.1237L54.0016 21.9267C53.7014 21.8797 53.4574 21.7531 53.2698 21.5467C53.0915 21.3308 53.0024 21.0634 53.0024 20.7444C53.0024 20.3879 53.1243 20.0923 53.3683 19.8577C53.6216 19.6138 53.9406 19.4918 54.3253 19.4918C54.71 19.4918 55.0244 19.6138 55.2683 19.8577C55.5123 20.1017 55.6343 20.4113 55.6343 20.7866C55.6343 21.1338 55.5217 21.4481 55.2965 21.7296C55.0807 22.0111 54.7476 22.3536 54.2972 22.7571C53.8093 23.1793 53.434 23.5593 53.1712 23.8971C52.9085 24.2255 52.7631 24.6055 52.7349 25.0371H51.3556V23.0245C51.3556 22.8931 51.3275 22.7101 51.2712 22.4756C51.2149 22.2316 51.1539 21.9783 51.0882 21.7155C50.9663 21.237 50.8724 20.8523 50.8067 20.5614C50.7504 20.2706 50.7223 20.0032 50.7223 19.7592C50.7223 18.9992 50.9146 18.3518 51.2994 17.8169C51.6934 17.2821 52.2517 16.9396 52.9742 16.7895L54.3676 17.831L55.775 16.7895ZM53.7201 20.7444C53.7201 20.9227 53.7718 21.0681 53.875 21.1807C53.9876 21.2839 54.133 21.3355 54.3113 21.3355C54.4896 21.3355 54.6303 21.2839 54.7335 21.1807C54.8461 21.0681 54.9024 20.9227 54.9024 20.7444C54.9024 20.5755 54.8461 20.4395 54.7335 20.3363C54.6303 20.2237 54.4896 20.1674 54.3113 20.1674C54.133 20.1674 53.9876 20.2237 53.875 20.3363C53.7718 20.4395 53.7201 20.5755 53.7201 20.7444ZM58.2105 15.7621C57.5536 15.4993 56.7561 15.2929 55.8178 15.1428C54.8795 14.9833 53.9787 14.9035 53.1155 14.9035C52.5807 14.9035 52.0881 14.9411 51.6377 15.0161C51.6658 14.2092 51.9614 13.5665 52.5244 13.0879C53.0874 12.6 53.8286 12.3561 54.7481 12.3561C55.7615 12.3561 56.5731 12.6563 57.183 13.2568C57.7929 13.8573 58.1354 14.6924 58.2105 15.7621ZM57.0001 14.6643C56.803 14.1857 56.5121 13.8245 56.1274 13.5805C55.7334 13.3366 55.2783 13.2146 54.7622 13.2146C54.3025 13.2146 53.9131 13.3037 53.594 13.482C53.2656 13.6603 53.0451 13.8949 52.9325 14.1857C53.0921 14.167 53.3501 14.1576 53.7066 14.1576C54.2884 14.1576 54.8748 14.2045 55.4659 14.2983C56.0477 14.3828 56.5591 14.5048 57.0001 14.6643Z" fill="white"/>
<path d="M67.1172 17.0371L72.1172 22.0371L77.1172 17.0371H67.1172Z" fill="white"/>
</svg>
