<svg width="24" height="24" viewBox="0 0 24 24" fill="none" xmlns="http://www.w3.org/2000/svg">
<path d="M21.4403 11.1251L12.2503 20.3151C11.1244 21.441 9.59747 22.0735 8.00529 22.0735C6.41311 22.0735 4.88613 21.441 3.76029 20.3151C2.63445 19.1893 2.00195 17.6623 2.00195 16.0701C2.00195 14.4779 2.63445 12.951 3.76029 11.8251L12.9503 2.63511C13.7009 1.88455 14.7188 1.46289 15.7803 1.46289C16.8417 1.46289 17.8597 1.88455 18.6103 2.63511C19.3609 3.38568 19.7825 4.40366 19.7825 5.46511C19.7825 6.52657 19.3609 7.54455 18.6103 8.29512L9.41029 17.4851C9.03501 17.8604 8.52602 18.0712 7.99529 18.0712C7.46456 18.0712 6.95557 17.8604 6.58029 17.4851C6.20501 17.1098 5.99418 16.6008 5.99418 16.0701C5.99418 15.5394 6.20501 15.0304 6.58029 14.6551L15.0703 6.17511" stroke="#565DFF" stroke-width="2" stroke-linecap="round" stroke-linejoin="round"/>
</svg>
