<svg width="104" height="42" viewBox="0 0 104 42" fill="none" xmlns="http://www.w3.org/2000/svg">
<rect width="104" height="42" rx="8.04252" fill="#FF0000"/>
<path d="M39.1357 18.3931V24.5296C39.1357 25.1864 38.8542 25.7024 38.2913 26.0778C37.7283 26.4531 36.9589 26.6407 35.9831 26.6407C35.0166 26.6407 34.2472 26.4531 33.6749 26.0778C33.1119 25.7024 32.8304 25.1864 32.8304 24.5296V23.6429C32.8304 23.3333 32.9055 23.0612 33.0556 22.8266C33.2057 22.5826 33.4356 22.3903 33.7452 22.2495C33.3887 22.0806 33.126 21.8226 32.9571 21.4754C32.7882 21.1283 32.7037 20.7342 32.7037 20.2932C32.7037 19.6645 32.8679 19.1672 33.1963 18.8013C33.5247 18.4354 33.9751 18.2524 34.5475 18.2524C34.9979 18.2524 35.3544 18.3744 35.6171 18.6183C35.8798 18.8529 36.0112 19.1766 36.0112 19.5895C36.0112 19.9835 35.8892 20.2979 35.6453 20.5324C35.4013 20.767 35.0682 20.8843 34.646 20.8843C34.4114 20.8843 34.205 20.8374 34.0267 20.7436C34.0549 21.0438 34.1581 21.2831 34.3364 21.4614C34.5146 21.6396 34.7304 21.7288 34.9838 21.7288H36.3631V22.7984H34.9697C34.7445 22.7984 34.5615 22.8735 34.4208 23.0236C34.2894 23.1737 34.2238 23.3755 34.2238 23.6288V24.417C34.2238 24.7642 34.3786 25.0363 34.6882 25.2333C35.0072 25.4303 35.4388 25.5289 35.9831 25.5289C36.5273 25.5289 36.9542 25.4303 37.2638 25.2333C37.5735 25.0363 37.7283 24.7642 37.7283 24.417V18.3931H39.1357ZM34.6178 18.9561C34.4396 18.9561 34.2894 19.0124 34.1675 19.125C34.0549 19.2376 33.9986 19.3877 33.9986 19.5754C33.9986 19.7537 34.0549 19.9038 34.1675 20.0258C34.2894 20.1384 34.4396 20.1947 34.6178 20.1947C34.8055 20.1947 34.9556 20.1384 35.0682 20.0258C35.1808 19.9038 35.2371 19.7537 35.2371 19.5754C35.2371 19.3877 35.1808 19.2376 35.0682 19.125C34.9556 19.0124 34.8055 18.9561 34.6178 18.9561ZM41.5526 23.0518C41.5526 22.7046 41.6417 22.395 41.82 22.1229C42.0077 21.8414 42.2563 21.6303 42.5659 21.4895C42.1906 21.3675 41.698 21.2831 41.0881 21.2362C41.1163 20.645 41.2758 20.1243 41.5667 19.6739C41.8669 19.2235 42.2751 18.8764 42.7911 18.6324C43.3072 18.3791 43.8983 18.2524 44.5645 18.2524C45.1932 18.2524 45.7468 18.3697 46.2253 18.6043C46.7038 18.8388 47.0744 19.1719 47.3372 19.6035C47.6093 20.0352 47.7453 20.5371 47.7453 21.1095V26.5H46.3379V21.2502C46.3379 20.6779 46.1643 20.2228 45.8171 19.885C45.4793 19.5379 45.0243 19.3643 44.4519 19.3643C43.9734 19.3643 43.5465 19.4722 43.1711 19.688C42.8052 19.9038 42.5519 20.1947 42.4111 20.5606C42.7395 20.6075 43.0492 20.692 43.34 20.8139C43.6403 20.9359 43.8796 21.072 44.0578 21.2221V21.5599C43.7107 21.6725 43.4386 21.8554 43.2415 22.1088C43.0539 22.3527 42.96 22.6483 42.96 22.9955V26.5H41.5526V23.0518ZM51.8914 23.7133C52.323 23.7133 52.6701 23.854 52.9329 24.1355C53.205 24.4076 53.341 24.7595 53.341 25.1911C53.341 25.6133 53.1956 25.9605 52.9047 26.2326C52.6232 26.5047 52.2526 26.6407 51.7928 26.6407C51.3237 26.6407 50.939 26.5 50.6387 26.2185C50.3479 25.9276 50.2024 25.5523 50.2024 25.0926V18.3931H51.5958V23.7555C51.699 23.7273 51.7975 23.7133 51.8914 23.7133ZM51.8773 25.8244C52.0743 25.8244 52.2291 25.7634 52.3417 25.6415C52.4637 25.5195 52.5247 25.3647 52.5247 25.177C52.5247 24.9893 52.4637 24.8345 52.3417 24.7125C52.2291 24.5906 52.0743 24.5296 51.8773 24.5296C51.6896 24.5296 51.5348 24.5906 51.4128 24.7125C51.2908 24.8345 51.2299 24.9893 51.2299 25.177C51.2299 25.3647 51.2908 25.5195 51.4128 25.6415C51.5348 25.7634 51.6896 25.8244 51.8773 25.8244ZM57.9152 18.2524C58.9286 18.2524 59.7355 18.4729 60.336 18.9139C60.9365 19.3549 61.2368 19.9507 61.2368 20.7013V26.5H59.8575V23.2629C59.8575 22.8688 59.6698 22.5545 59.2945 22.3199C58.9286 22.0853 58.5063 21.968 58.0278 21.968C57.5493 21.968 57.1505 22.0806 56.8315 22.3058C56.5125 22.531 56.353 22.836 56.353 23.2207V23.7555C56.4468 23.7273 56.5453 23.7133 56.6485 23.7133C57.0801 23.7133 57.4273 23.8493 57.69 24.1214C57.9621 24.3935 58.0982 24.7501 58.0982 25.1911C58.0982 25.6133 57.9527 25.9605 57.6619 26.2326C57.3804 26.5047 57.0098 26.6407 56.55 26.6407C56.0809 26.6407 55.6962 26.5 55.3959 26.2185C55.105 25.9276 54.9596 25.5523 54.9596 25.0926V23.2347C54.9596 22.7656 55.0863 22.3574 55.3396 22.0103C55.6023 21.6631 55.9542 21.4004 56.3952 21.2221C56.8456 21.0344 57.3382 20.9406 57.873 20.9406C58.2483 20.9406 58.6096 20.9969 58.9567 21.1095C59.3133 21.2221 59.6135 21.4004 59.8575 21.6443V20.6591C59.8575 20.265 59.6792 19.9507 59.3227 19.7161C58.9755 19.4816 58.5063 19.3643 57.9152 19.3643C57.3429 19.3643 56.8643 19.4816 56.4796 19.7161C56.0949 19.9413 55.865 20.251 55.79 20.645H54.4388C54.4951 19.9132 54.8329 19.3314 55.4522 18.8998C56.0809 18.4682 56.9019 18.2524 57.9152 18.2524ZM57.2819 25.177C57.2819 24.9893 57.2209 24.8345 57.0989 24.7125C56.9863 24.5906 56.8362 24.5296 56.6485 24.5296C56.4515 24.5296 56.292 24.5906 56.17 24.7125C56.048 24.8345 55.987 24.9893 55.987 25.177C55.987 25.3647 56.048 25.5195 56.17 25.6415C56.292 25.7634 56.4515 25.8244 56.6485 25.8244C56.8362 25.8244 56.9863 25.7634 57.0989 25.6415C57.2209 25.5195 57.2819 25.3647 57.2819 25.177ZM61.5988 17.225C60.942 16.9622 60.1444 16.7558 59.2061 16.6057C58.2678 16.4462 57.3671 16.3664 56.5038 16.3664C55.969 16.3664 55.4764 16.404 55.026 16.479C55.0542 15.6721 55.3497 15.0294 55.9127 14.5508C56.4757 14.0629 57.2169 13.819 58.1365 13.819C59.1498 13.819 59.9614 14.1192 60.5713 14.7197C61.1812 15.3202 61.5237 16.1553 61.5988 17.225ZM60.3884 16.1272C60.1913 15.6486 59.9005 15.2874 59.5158 15.0434C59.1217 14.7995 58.6666 14.6775 58.1505 14.6775C57.6908 14.6775 57.3014 14.7666 56.9824 14.9449C56.654 15.1232 56.4335 15.3578 56.3209 15.6486C56.4804 15.6299 56.7384 15.6205 57.095 15.6205C57.6767 15.6205 58.2631 15.6674 58.8543 15.7612C59.436 15.8457 59.9474 15.9676 60.3884 16.1272ZM64.0665 23.0518C64.0665 22.7046 64.1557 22.395 64.334 22.1229C64.5216 21.8414 64.7703 21.6303 65.0799 21.4895C64.7046 21.3675 64.212 21.2831 63.6021 21.2362C63.6302 20.645 63.7897 20.1243 64.0806 19.6739C64.3809 19.2235 64.789 18.8764 65.3051 18.6324C65.8211 18.3791 66.4123 18.2524 67.0785 18.2524C67.7071 18.2524 68.2607 18.3697 68.7392 18.6043C69.2178 18.8388 69.5884 19.1719 69.8511 19.6035C70.1232 20.0352 70.2593 20.5371 70.2593 21.1095V26.5H68.8518V21.2502C68.8518 20.6779 68.6783 20.2228 68.3311 19.885C67.9933 19.5379 67.5382 19.3643 66.9659 19.3643C66.4873 19.3643 66.0604 19.4722 65.6851 19.688C65.3192 19.9038 65.0658 20.1947 64.9251 20.5606C65.2535 20.6075 65.5631 20.692 65.854 20.8139C66.1542 20.9359 66.3935 21.072 66.5718 21.2221V21.5599C66.2246 21.6725 65.9525 21.8554 65.7555 22.1088C65.5678 22.3527 65.474 22.6483 65.474 22.9955V26.5H64.0665V23.0518Z" fill="white"/>
</svg>
