<svg width="188" height="51" viewBox="0 0 188 51" fill="none" xmlns="http://www.w3.org/2000/svg">
<g filter="url(#filter0_d_155_27169)">
<g clip-path="url(#clip0_155_27169)">
<rect x="4.02148" width="179" height="42" rx="8.04252" fill="#2DC76D"/>
<path d="M29.6572 18.3931V24.5296C29.6572 25.1864 29.3757 25.7024 28.8127 26.0778C28.2498 26.4531 27.4804 26.6407 26.5045 26.6407C25.5381 26.6407 24.7687 26.4531 24.1963 26.0778C23.6334 25.7024 23.3519 25.1864 23.3519 24.5296V23.6429C23.3519 23.3333 23.4269 23.0612 23.5771 22.8266C23.7272 22.5826 23.9571 22.3903 24.2667 22.2495C23.9102 22.0806 23.6474 21.8226 23.4785 21.4754C23.3097 21.1283 23.2252 20.7342 23.2252 20.2932C23.2252 19.6645 23.3894 19.1672 23.7178 18.8013C24.0462 18.4354 24.4966 18.2524 25.069 18.2524C25.5193 18.2524 25.8759 18.3744 26.1386 18.6183C26.4013 18.8529 26.5327 19.1766 26.5327 19.5895C26.5327 19.9835 26.4107 20.2979 26.1668 20.5324C25.9228 20.767 25.5897 20.8843 25.1675 20.8843C24.9329 20.8843 24.7265 20.8374 24.5482 20.7436C24.5763 21.0438 24.6796 21.2831 24.8578 21.4614C25.0361 21.6396 25.2519 21.7288 25.5053 21.7288H26.8846V22.7984H25.4912C25.266 22.7984 25.083 22.8735 24.9423 23.0236C24.8109 23.1737 24.7452 23.3755 24.7452 23.6288V24.417C24.7452 24.7642 24.9001 25.0363 25.2097 25.2333C25.5287 25.4303 25.9603 25.5289 26.5045 25.5289C27.0488 25.5289 27.4757 25.4303 27.7853 25.2333C28.095 25.0363 28.2498 24.7642 28.2498 24.417V18.3931H29.6572ZM25.1393 18.9561C24.961 18.9561 24.8109 19.0124 24.6889 19.125C24.5763 19.2376 24.5201 19.3877 24.5201 19.5754C24.5201 19.7537 24.5763 19.9038 24.6889 20.0258C24.8109 20.1384 24.961 20.1947 25.1393 20.1947C25.327 20.1947 25.4771 20.1384 25.5897 20.0258C25.7023 19.9038 25.7586 19.7537 25.7586 19.5754C25.7586 19.3877 25.7023 19.2376 25.5897 19.125C25.4771 19.0124 25.327 18.9561 25.1393 18.9561ZM30.0611 16.5212C30.1174 16.8215 30.1502 17.0561 30.1596 17.225C29.5028 16.9622 28.7053 16.7558 27.767 16.6057C26.8287 16.4462 25.9279 16.3664 25.0647 16.3664C24.5299 16.3664 24.0372 16.404 23.5869 16.479C23.615 15.6721 23.9106 15.0294 24.4736 14.5508C25.0365 14.0629 25.7778 13.819 26.6973 13.819C26.9037 13.819 27.1008 13.833 27.2884 13.8612V13.0871H28.2455V14.1145C28.5739 14.2553 28.8554 14.4429 29.09 14.6775V13.0871H30.0611V16.5212ZM25.6558 15.6205C26.2375 15.6205 26.824 15.6674 27.4151 15.7612C27.9968 15.8457 28.5082 15.9676 28.9492 16.1272C28.7522 15.6486 28.4613 15.2874 28.0766 15.0434C27.6825 14.7995 27.2274 14.6775 26.7114 14.6775C26.2516 14.6775 25.8622 14.7666 25.5432 14.9449C25.2148 15.1232 24.9943 15.3578 24.8817 15.6486C25.0412 15.6299 25.2993 15.6205 25.6558 15.6205ZM38.8941 23.8118C39.185 23.9244 39.4149 24.0933 39.5838 24.3185C39.7527 24.5437 39.8371 24.8017 39.8371 25.0926C39.8371 25.5523 39.6917 25.9276 39.4008 26.2185C39.1193 26.5 38.7487 26.6407 38.2889 26.6407C37.8479 26.6407 37.4867 26.5 37.2052 26.2185C36.9237 25.937 36.783 25.5711 36.783 25.1207V25.1066C36.4076 25.2568 36.0464 25.4585 35.6992 25.7118C35.3614 25.9558 35.0893 26.2185 34.8829 26.5H33.4896V21.1376C33.3957 21.1658 33.2972 21.1799 33.194 21.1799C32.7624 21.1799 32.4105 21.0438 32.1384 20.7717C31.8663 20.4902 31.7302 20.1337 31.7302 19.7021C31.7302 19.2798 31.871 18.9327 32.1525 18.6606C32.4434 18.3884 32.8187 18.2524 33.2784 18.2524C33.7476 18.2524 34.1323 18.3978 34.4325 18.6887C34.7328 18.9702 34.8829 19.3361 34.8829 19.7865V25.1066C35.0143 24.9565 35.2066 24.8064 35.46 24.6563C35.7133 24.4967 36.0323 24.3278 36.417 24.1496C36.858 23.9338 37.1911 23.7461 37.4163 23.5866C37.6509 23.4271 37.8151 23.2676 37.9089 23.1081C38.0027 22.9392 38.0497 22.7327 38.0497 22.4888V18.3931H39.443V22.5029C39.443 22.7937 39.3961 23.0565 39.3023 23.291C39.2085 23.5162 39.0724 23.6898 38.8941 23.8118ZM33.194 20.3636C33.391 20.3636 33.5458 20.3026 33.6584 20.1806C33.7804 20.0586 33.8414 19.9038 33.8414 19.7161C33.8414 19.5285 33.7804 19.3737 33.6584 19.2517C33.5458 19.1297 33.391 19.0687 33.194 19.0687C33.0063 19.0687 32.8515 19.1297 32.7295 19.2517C32.6076 19.3737 32.5466 19.5285 32.5466 19.7161C32.5466 19.9038 32.6076 20.0586 32.7295 20.1806C32.8515 20.3026 33.0063 20.3636 33.194 20.3636ZM38.2889 25.8244C38.486 25.8244 38.6455 25.7634 38.7675 25.6415C38.8894 25.5195 38.9504 25.3647 38.9504 25.177C38.9504 24.9893 38.8894 24.8345 38.7675 24.7125C38.6455 24.5906 38.486 24.5296 38.2889 24.5296C38.1013 24.5296 37.9464 24.5906 37.8245 24.7125C37.7119 24.8345 37.6556 24.9893 37.6556 25.177C37.6556 25.3647 37.7119 25.5195 37.8245 25.6415C37.9464 25.7634 38.1013 25.8244 38.2889 25.8244ZM48.003 18.3931V24.5296C48.003 25.1864 47.7215 25.7024 47.1586 26.0778C46.5956 26.4531 45.8262 26.6407 44.8504 26.6407C43.8839 26.6407 43.1145 26.4531 42.5422 26.0778C41.9792 25.7024 41.6977 25.1864 41.6977 24.5296V23.6429C41.6977 23.3333 41.7728 23.0612 41.9229 22.8266C42.073 22.5826 42.3029 22.3903 42.6125 22.2495C42.256 22.0806 41.9933 21.8226 41.8244 21.4754C41.6555 21.1283 41.571 20.7342 41.571 20.2932C41.571 19.6645 41.7352 19.1672 42.0636 18.8013C42.392 18.4354 42.8424 18.2524 43.4148 18.2524C43.8652 18.2524 44.2217 18.3744 44.4844 18.6183C44.7472 18.8529 44.8785 19.1766 44.8785 19.5895C44.8785 19.9835 44.7565 20.2979 44.5126 20.5324C44.2686 20.767 43.9355 20.8843 43.5133 20.8843C43.2787 20.8843 43.0723 20.8374 42.894 20.7436C42.9222 21.0438 43.0254 21.2831 43.2037 21.4614C43.3819 21.6396 43.5977 21.7288 43.8511 21.7288H45.2304V22.7984H43.837C43.6118 22.7984 43.4289 22.8735 43.2881 23.0236C43.1567 23.1737 43.0911 23.3755 43.0911 23.6288V24.417C43.0911 24.7642 43.2459 25.0363 43.5555 25.2333C43.8745 25.4303 44.3062 25.5289 44.8504 25.5289C45.3946 25.5289 45.8215 25.4303 46.1311 25.2333C46.4408 25.0363 46.5956 24.7642 46.5956 24.417V18.3931H48.003ZM43.4851 18.9561C43.3069 18.9561 43.1567 19.0124 43.0348 19.125C42.9222 19.2376 42.8659 19.3877 42.8659 19.5754C42.8659 19.7537 42.9222 19.9038 43.0348 20.0258C43.1567 20.1384 43.3069 20.1947 43.4851 20.1947C43.6728 20.1947 43.8229 20.1384 43.9355 20.0258C44.0481 19.9038 44.1044 19.7537 44.1044 19.5754C44.1044 19.3877 44.0481 19.2376 43.9355 19.125C43.8229 19.0124 43.6728 18.9561 43.4851 18.9561ZM50.504 13.5234C50.504 14.2177 50.3445 14.8276 50.0255 15.3531C49.7158 15.8691 49.2889 16.2679 48.7447 16.5494C48.1911 16.8309 47.5671 16.9716 46.8728 16.9716C46.3098 16.9716 45.8172 16.8919 45.395 16.7324C44.9728 16.5635 44.6491 16.3383 44.4239 16.0568C44.1987 15.7659 44.0861 15.4375 44.0861 15.0716C44.0861 14.6587 44.2221 14.3256 44.4942 14.0723C44.7663 13.8096 45.1135 13.6782 45.5357 13.6782C45.958 13.6782 46.3051 13.8096 46.5772 14.0723C46.84 14.3256 46.9713 14.6634 46.9713 15.0857C46.9713 15.4985 46.8447 15.8316 46.5913 16.0849C46.6382 16.0943 46.718 16.099 46.8306 16.099C47.6094 16.099 48.2193 15.8597 48.6603 15.3812C49.1013 14.8933 49.3264 14.274 49.3358 13.5234H50.504ZM44.8742 15.0575C44.8742 15.2358 44.9399 15.3859 45.0713 15.5079C45.1933 15.6299 45.3481 15.6909 45.5357 15.6909C45.714 15.6909 45.8641 15.6299 45.9861 15.5079C46.1081 15.3859 46.1691 15.2358 46.1691 15.0575C46.1691 14.8698 46.1081 14.7197 45.9861 14.6071C45.8641 14.4851 45.714 14.4242 45.5357 14.4242C45.3481 14.4242 45.1933 14.4851 45.0713 14.6071C44.9399 14.7291 44.8742 14.8792 44.8742 15.0575ZM57.2399 23.8118C57.5308 23.9244 57.7607 24.0933 57.9296 24.3185C58.0985 24.5437 58.1829 24.8017 58.1829 25.0926C58.1829 25.5523 58.0375 25.9276 57.7466 26.2185C57.4651 26.5 57.0945 26.6407 56.6347 26.6407C56.1938 26.6407 55.8325 26.5 55.551 26.2185C55.2695 25.937 55.1288 25.5711 55.1288 25.1207V25.1066C54.7535 25.2568 54.3922 25.4585 54.0451 25.7118C53.7073 25.9558 53.4352 26.2185 53.2287 26.5H51.8354V21.1376C51.7415 21.1658 51.643 21.1799 51.5398 21.1799C51.1082 21.1799 50.7563 21.0438 50.4842 20.7717C50.2121 20.4902 50.0761 20.1337 50.0761 19.7021C50.0761 19.2798 50.2168 18.9327 50.4983 18.6606C50.7892 18.3884 51.1645 18.2524 51.6243 18.2524C52.0934 18.2524 52.4781 18.3978 52.7784 18.6887C53.0786 18.9702 53.2287 19.3361 53.2287 19.7865V25.1066C53.3601 24.9565 53.5525 24.8064 53.8058 24.6563C54.0591 24.4967 54.3782 24.3278 54.7629 24.1496C55.2039 23.9338 55.5369 23.7461 55.7621 23.5866C55.9967 23.4271 56.1609 23.2676 56.2547 23.1081C56.3486 22.9392 56.3955 22.7327 56.3955 22.4888V18.3931H57.7889V22.5029C57.7889 22.7937 57.7419 23.0565 57.6481 23.291C57.5543 23.5162 57.4182 23.6898 57.2399 23.8118ZM51.5398 20.3636C51.7369 20.3636 51.8917 20.3026 52.0043 20.1806C52.1262 20.0586 52.1872 19.9038 52.1872 19.7161C52.1872 19.5285 52.1262 19.3737 52.0043 19.2517C51.8917 19.1297 51.7369 19.0687 51.5398 19.0687C51.3522 19.0687 51.1973 19.1297 51.0754 19.2517C50.9534 19.3737 50.8924 19.5285 50.8924 19.7161C50.8924 19.9038 50.9534 20.0586 51.0754 20.1806C51.1973 20.3026 51.3522 20.3636 51.5398 20.3636ZM56.6347 25.8244C56.8318 25.8244 56.9913 25.7634 57.1133 25.6415C57.2353 25.5195 57.2962 25.3647 57.2962 25.177C57.2962 24.9893 57.2353 24.8345 57.1133 24.7125C56.9913 24.5906 56.8318 24.5296 56.6347 24.5296C56.4471 24.5296 56.2923 24.5906 56.1703 24.7125C56.0577 24.8345 56.0014 24.9893 56.0014 25.177C56.0014 25.3647 56.0577 25.5195 56.1703 25.6415C56.2923 25.7634 56.4471 25.8244 56.6347 25.8244ZM66.8837 17.605C66.8086 18.0929 66.4849 18.6277 65.9126 19.2095C66.2879 19.6129 66.4755 20.1102 66.4755 20.7013V26.5H65.0962V23.3755C65.0962 22.972 64.9086 22.6577 64.5333 22.4325C64.1673 22.1979 63.7451 22.0806 63.2666 22.0806C62.788 22.0806 62.3893 22.1932 62.0702 22.4184C61.7512 22.6436 61.5917 22.9486 61.5917 23.3333V23.7555C61.6855 23.7273 61.7841 23.7133 61.8873 23.7133C62.3189 23.7133 62.6661 23.8493 62.9288 24.1214C63.2009 24.3935 63.3369 24.7501 63.3369 25.1911C63.3369 25.6133 63.1915 25.9605 62.9006 26.2326C62.6191 26.5047 62.2485 26.6407 61.7887 26.6407C61.3196 26.6407 60.9349 26.5 60.6346 26.2185C60.3438 25.9276 60.1983 25.5523 60.1983 25.0926V23.3333C60.1983 22.7515 60.3907 22.2683 60.7754 21.8836C61.1695 21.4895 61.6855 21.2315 62.3236 21.1095C63.0554 20.5841 63.67 20.0539 64.1673 19.5191C63.8765 19.4159 63.5387 19.3643 63.154 19.3643C62.5816 19.3643 62.1031 19.4816 61.7184 19.7161C61.3337 19.9413 61.1038 20.251 61.0287 20.645H59.6776C59.7339 19.9132 60.0717 19.3314 60.6909 18.8998C61.3196 18.4682 62.1406 18.2524 63.154 18.2524C63.8108 18.2524 64.4066 18.3556 64.9414 18.562C65.1478 18.2242 65.2745 17.9052 65.3214 17.605H66.8837ZM65.0962 20.6591C65.0962 20.4527 65.0446 20.2603 64.9414 20.0821C64.6036 20.3636 64.1439 20.692 63.5621 21.0673C64.2002 21.1517 64.7115 21.3769 65.0962 21.7428V20.6591ZM62.5206 25.177C62.5206 24.9893 62.4596 24.8345 62.3377 24.7125C62.2251 24.5906 62.0749 24.5296 61.8873 24.5296C61.6902 24.5296 61.5307 24.5906 61.4087 24.7125C61.2868 24.8345 61.2258 24.9893 61.2258 25.177C61.2258 25.3647 61.2868 25.5195 61.4087 25.6415C61.5307 25.7634 61.6902 25.8244 61.8873 25.8244C62.0749 25.8244 62.2251 25.7634 62.3377 25.6415C62.4596 25.5195 62.5206 25.3647 62.5206 25.177ZM66.975 17.225C66.3182 16.9622 65.5206 16.7558 64.5823 16.6057C63.644 16.4462 62.7433 16.3664 61.88 16.3664C61.3452 16.3664 60.8526 16.404 60.4022 16.479C60.4304 15.6721 60.7259 15.0294 61.2889 14.5508C61.8519 14.0629 62.5931 13.819 63.5127 13.819C64.526 13.819 65.3376 14.1192 65.9475 14.7197C66.5574 15.3202 66.8999 16.1553 66.975 17.225ZM65.7646 16.1272C65.5675 15.6486 65.2767 15.2874 64.892 15.0434C64.4979 14.7995 64.0428 14.6775 63.5267 14.6775C63.067 14.6775 62.6776 14.7666 62.3586 14.9449C62.0302 15.1232 61.8097 15.3578 61.6971 15.6486C61.8566 15.6299 62.1146 15.6205 62.4712 15.6205C63.0529 15.6205 63.6393 15.6674 64.2305 15.7612C64.8122 15.8457 65.3236 15.9676 65.7646 16.1272ZM75.7232 23.8118C76.0141 23.9244 76.244 24.0933 76.4129 24.3185C76.5818 24.5437 76.6662 24.8017 76.6662 25.0926C76.6662 25.5523 76.5208 25.9276 76.2299 26.2185C75.9484 26.5 75.5778 26.6407 75.118 26.6407C74.677 26.6407 74.3158 26.5 74.0343 26.2185C73.7528 25.937 73.6121 25.5711 73.6121 25.1207V25.1066C73.2367 25.2568 72.8755 25.4585 72.5283 25.7118C72.1905 25.9558 71.9184 26.2185 71.712 26.5H70.3186V21.1376C70.2248 21.1658 70.1263 21.1799 70.0231 21.1799C69.5915 21.1799 69.2396 21.0438 68.9675 20.7717C68.6954 20.4902 68.5593 20.1337 68.5593 19.7021C68.5593 19.2798 68.7001 18.9327 68.9816 18.6606C69.2724 18.3884 69.6478 18.2524 70.1075 18.2524C70.5767 18.2524 70.9614 18.3978 71.2616 18.6887C71.5619 18.9702 71.712 19.3361 71.712 19.7865V25.1066C71.8434 24.9565 72.0357 24.8064 72.2891 24.6563C72.5424 24.4967 72.8614 24.3278 73.2461 24.1496C73.6871 23.9338 74.0202 23.7461 74.2454 23.5866C74.48 23.4271 74.6442 23.2676 74.738 23.1081C74.8318 22.9392 74.8788 22.7327 74.8788 22.4888V18.3931H76.2721V22.5029C76.2721 22.7937 76.2252 23.0565 76.1314 23.291C76.0375 23.5162 75.9015 23.6898 75.7232 23.8118ZM70.0231 20.3636C70.2201 20.3636 70.3749 20.3026 70.4875 20.1806C70.6095 20.0586 70.6705 19.9038 70.6705 19.7161C70.6705 19.5285 70.6095 19.3737 70.4875 19.2517C70.3749 19.1297 70.2201 19.0687 70.0231 19.0687C69.8354 19.0687 69.6806 19.1297 69.5586 19.2517C69.4366 19.3737 69.3757 19.5285 69.3757 19.7161C69.3757 19.9038 69.4366 20.0586 69.5586 20.1806C69.6806 20.3026 69.8354 20.3636 70.0231 20.3636ZM75.118 25.8244C75.3151 25.8244 75.4746 25.7634 75.5965 25.6415C75.7185 25.5195 75.7795 25.3647 75.7795 25.177C75.7795 24.9893 75.7185 24.8345 75.5965 24.7125C75.4746 24.5906 75.3151 24.5296 75.118 24.5296C74.9304 24.5296 74.7755 24.5906 74.6536 24.7125C74.541 24.8345 74.4847 24.9893 74.4847 25.177C74.4847 25.3647 74.541 25.5195 74.6536 25.6415C74.7755 25.7634 74.9304 25.8244 75.118 25.8244ZM81.8343 18.2524C82.9039 18.2524 83.7484 18.4964 84.3677 18.9843C84.9869 19.4628 85.2966 20.1243 85.2966 20.9688V26.5H83.8891V21.0954C83.8891 20.5606 83.7062 20.1384 83.3402 19.8287C82.9743 19.5191 82.4723 19.3643 81.8343 19.3643C81.1399 19.3643 80.591 19.5379 80.1876 19.885C79.7841 20.2228 79.5824 20.6826 79.5824 21.2643C79.5824 21.5364 79.6152 21.8695 79.6809 22.2636C79.756 22.6483 79.8029 22.8829 79.8216 22.9673C79.9718 22.3199 80.2204 21.8038 80.5676 21.4191C80.9147 21.0344 81.3323 20.8421 81.8202 20.8421C82.2518 20.8421 82.5896 20.9547 82.8336 21.1799C83.0869 21.4051 83.2136 21.7194 83.2136 22.1229C83.2136 22.5076 83.0916 22.8219 82.8476 23.0658C82.6131 23.3004 82.2987 23.4177 81.9046 23.4177C81.6888 23.4177 81.4824 23.3708 81.2854 23.277C81.0977 23.1831 80.9523 23.0518 80.8491 22.8829C80.6708 23.1456 80.5207 23.474 80.3987 23.8681C80.2861 24.2622 80.2298 24.6375 80.2298 24.994V26.5H78.8505V24.4592C78.8505 24.2434 78.7614 23.7977 78.5831 23.1221C78.4705 22.6999 78.3814 22.3434 78.3157 22.0525C78.2594 21.7522 78.2312 21.4801 78.2312 21.2362C78.2312 20.326 78.5502 19.6035 79.1883 19.0687C79.8357 18.5245 80.7177 18.2524 81.8343 18.2524ZM81.8765 21.5317C81.7076 21.5317 81.5669 21.588 81.4543 21.7006C81.3511 21.8038 81.2994 21.9399 81.2994 22.1088C81.2994 22.2871 81.3511 22.4325 81.4543 22.5451C81.5669 22.6577 81.7076 22.714 81.8765 22.714C82.0548 22.714 82.1955 22.6577 82.2987 22.5451C82.4113 22.4325 82.4676 22.2871 82.4676 22.1088C82.4676 21.9399 82.4113 21.8038 82.2987 21.7006C82.1955 21.588 82.0548 21.5317 81.8765 21.5317ZM87.0159 13.1293C86.9408 13.8706 86.6828 14.5227 86.2418 15.0857C85.8008 15.6392 85.2237 16.0709 84.5106 16.3805C83.7975 16.6808 83 16.8309 82.118 16.8309H81.5269V16.1975C81.7427 16.1131 81.9679 15.9958 82.2024 15.8457C82.4276 15.6862 82.6247 15.5079 82.7936 15.3108H82.6387C82.2728 15.3108 81.9866 15.2029 81.7802 14.9871C81.5738 14.7713 81.4706 14.4851 81.4706 14.1286C81.4706 13.7814 81.5925 13.4999 81.8365 13.2841C82.0711 13.0683 82.3713 12.9604 82.7373 12.9604C83.1032 12.9604 83.4081 13.0777 83.6521 13.3123C83.8867 13.5468 84.004 13.8565 84.004 14.2412C84.004 14.5133 83.943 14.7995 83.821 15.0997C83.6896 15.4 83.5113 15.658 83.2862 15.8738C83.9805 15.7518 84.5575 15.4281 85.0173 14.9027C85.4771 14.3772 85.7398 13.7861 85.8055 13.1293H87.0159ZM82.2165 14.1567C82.2165 14.3069 82.2681 14.4335 82.3713 14.5367C82.4652 14.6306 82.5871 14.6775 82.7373 14.6775C82.8874 14.6775 83.0094 14.6306 83.1032 14.5367C83.197 14.4335 83.2439 14.3069 83.2439 14.1567C83.2439 14.0066 83.197 13.8846 83.1032 13.7908C83.0094 13.697 82.8874 13.6501 82.7373 13.6501C82.5871 13.6501 82.4652 13.697 82.3713 13.7908C82.2681 13.8846 82.2165 14.0066 82.2165 14.1567ZM91.6511 20.5887C91.6511 20.204 91.5291 19.9038 91.2852 19.688C91.0412 19.4722 90.7034 19.3643 90.2718 19.3643C89.8214 19.3643 89.4602 19.4956 89.1881 19.7584C88.9254 20.0117 88.794 20.3589 88.794 20.7999H87.4429C87.4429 20.0023 87.6962 19.3783 88.2029 18.928C88.7096 18.4776 89.3992 18.2524 90.2718 18.2524C91.135 18.2524 91.8106 18.4541 92.2985 18.8576C92.7958 19.2611 93.0445 19.8193 93.0445 20.5324V26.5H91.6511V20.5887ZM103.667 18.3931V26.5H102.133L100.078 20.068L98.0231 26.5H96.489V21.1376C96.3951 21.1658 96.2919 21.1799 96.1793 21.1799C95.7477 21.1799 95.3959 21.0438 95.1238 20.7717C94.8517 20.4902 94.7156 20.1337 94.7156 19.7021C94.7156 19.2798 94.8563 18.9327 95.1378 18.6606C95.4287 18.3884 95.804 18.2524 96.2638 18.2524C96.7329 18.2524 97.1176 18.3978 97.4179 18.6887C97.7181 18.9702 97.8683 19.3361 97.8683 19.7865V23.277C97.8683 23.5115 97.8448 23.8962 97.7979 24.4311L98.0935 23.2207L99.5431 18.4494H100.627L102.062 23.2207L102.358 24.4311C102.311 23.8962 102.288 23.5115 102.288 23.277V18.3931H103.667ZM96.1793 20.3636C96.3764 20.3636 96.5312 20.3026 96.6438 20.1806C96.7658 20.0586 96.8268 19.9038 96.8268 19.7161C96.8268 19.5285 96.7658 19.3737 96.6438 19.2517C96.5312 19.1297 96.3764 19.0687 96.1793 19.0687C95.9917 19.0687 95.8369 19.1297 95.7149 19.2517C95.5929 19.3737 95.5319 19.5285 95.5319 19.7161C95.5319 19.9038 95.5929 20.0586 95.7149 20.1806C95.8369 20.3026 95.9917 20.3636 96.1793 20.3636ZM107.835 19.3643C107.61 19.3643 107.413 19.4346 107.244 19.5754C107.075 19.7068 106.981 19.8944 106.963 20.1384C108.051 20.2603 108.952 20.4855 109.665 20.8139C110.378 21.1423 110.734 21.5505 110.734 22.0384V25.0926C110.734 25.5523 110.584 25.9276 110.284 26.2185C109.984 26.5 109.599 26.6407 109.13 26.6407C108.67 26.6407 108.295 26.5047 108.004 26.2326C107.723 25.9605 107.582 25.6133 107.582 25.1911C107.582 24.7501 107.713 24.3935 107.976 24.1214C108.248 23.8493 108.6 23.7133 109.031 23.7133C109.125 23.7133 109.224 23.7273 109.327 23.7555V22.2355C109.327 21.9633 108.966 21.7194 108.243 21.5036C107.521 21.2878 106.601 21.1189 105.485 20.9969C105.494 20.1243 105.686 19.4487 106.062 18.9702C106.446 18.4917 106.967 18.2524 107.624 18.2524C107.868 18.2524 108.098 18.2759 108.314 18.3228C108.539 18.3697 108.802 18.4401 109.102 18.5339C109.149 18.5433 109.261 18.5761 109.44 18.6324C109.618 18.6793 109.768 18.7028 109.89 18.7028C110.012 18.7028 110.125 18.6559 110.228 18.562C110.331 18.4682 110.401 18.3462 110.439 18.1961L111.452 18.4917C111.33 18.9233 111.152 19.2564 110.917 19.4909C110.683 19.7161 110.411 19.8287 110.101 19.8287C109.96 19.8287 109.792 19.8053 109.594 19.7584C109.407 19.7114 109.214 19.6598 109.017 19.6035C108.811 19.5472 108.6 19.4956 108.384 19.4487C108.168 19.3924 107.985 19.3643 107.835 19.3643ZM109.046 25.8244C109.233 25.8244 109.388 25.7634 109.51 25.6415C109.632 25.5195 109.693 25.3647 109.693 25.177C109.693 24.9893 109.632 24.8345 109.51 24.7125C109.388 24.5906 109.233 24.5296 109.046 24.5296C108.849 24.5296 108.689 24.5906 108.567 24.7125C108.454 24.8345 108.398 24.9893 108.398 25.177C108.398 25.3647 108.454 25.5195 108.567 25.6415C108.689 25.7634 108.849 25.8244 109.046 25.8244ZM112.897 13.1293C112.822 13.8706 112.564 14.5227 112.123 15.0857C111.682 15.6392 111.105 16.0709 110.392 16.3805C109.679 16.6808 108.881 16.8309 107.999 16.8309H107.408V16.1975C107.624 16.1131 107.849 15.9958 108.084 15.8457C108.309 15.6862 108.506 15.5079 108.675 15.3108H108.52C108.154 15.3108 107.868 15.2029 107.662 14.9871C107.455 14.7713 107.352 14.4851 107.352 14.1286C107.352 13.7814 107.474 13.4999 107.718 13.2841C107.952 13.0683 108.253 12.9604 108.619 12.9604C108.985 12.9604 109.289 13.0777 109.533 13.3123C109.768 13.5468 109.885 13.8565 109.885 14.2412C109.885 14.5133 109.824 14.7995 109.702 15.0997C109.571 15.4 109.393 15.658 109.168 15.8738C109.862 15.7518 110.439 15.4281 110.899 14.9027C111.358 14.3772 111.621 13.7861 111.687 13.1293H112.897ZM108.098 14.1567C108.098 14.3069 108.149 14.4335 108.253 14.5367C108.347 14.6306 108.468 14.6775 108.619 14.6775C108.769 14.6775 108.891 14.6306 108.985 14.5367C109.078 14.4335 109.125 14.3069 109.125 14.1567C109.125 14.0066 109.078 13.8846 108.985 13.7908C108.891 13.697 108.769 13.6501 108.619 13.6501C108.468 13.6501 108.347 13.697 108.253 13.7908C108.149 13.8846 108.098 14.0066 108.098 14.1567ZM116.792 18.2524C117.449 18.2524 118.026 18.3556 118.523 18.562C119.021 18.7591 119.401 19.0453 119.663 19.4206C119.935 19.7865 120.071 20.2134 120.071 20.7013V24.6C120.071 25.2474 119.804 25.7494 119.269 26.1059C118.734 26.4625 117.993 26.6407 117.045 26.6407C116.098 26.6407 115.361 26.4625 114.836 26.1059C114.31 25.74 114.048 25.238 114.048 24.6V22.4888C114.048 22.0384 114.193 21.6725 114.484 21.391C114.775 21.1095 115.155 20.9688 115.624 20.9688C116.084 20.9688 116.454 21.1048 116.736 21.3769C117.017 21.6396 117.158 21.9868 117.158 22.4184C117.158 22.8407 117.022 23.1878 116.75 23.4599C116.487 23.7226 116.145 23.854 115.722 23.854C115.638 23.854 115.54 23.8446 115.427 23.8259V24.5014C115.427 24.8298 115.572 25.0832 115.863 25.2615C116.163 25.4397 116.572 25.5289 117.088 25.5289C117.604 25.5289 117.998 25.435 118.27 25.2474C118.542 25.0503 118.678 24.7782 118.678 24.4311V20.7295C118.678 20.3166 118.505 19.9882 118.157 19.7443C117.81 19.4909 117.346 19.3643 116.764 19.3643C116.201 19.3643 115.727 19.4816 115.342 19.7161C114.958 19.9413 114.728 20.251 114.653 20.645H113.302C113.367 19.9132 113.719 19.3314 114.357 18.8998C114.995 18.4682 115.807 18.2524 116.792 18.2524ZM115.708 21.771C115.521 21.771 115.366 21.832 115.244 21.954C115.122 22.0666 115.061 22.2167 115.061 22.4043C115.061 22.592 115.122 22.7468 115.244 22.8688C115.366 22.9908 115.521 23.0518 115.708 23.0518C115.896 23.0518 116.051 22.9908 116.173 22.8688C116.295 22.7468 116.356 22.592 116.356 22.4043C116.356 22.2167 116.295 22.0666 116.173 21.954C116.051 21.832 115.896 21.771 115.708 21.771ZM129.197 18.3931V26.5H127.916C127.541 26.1716 127.114 25.876 126.635 25.6133C126.166 25.3412 125.725 25.1395 125.312 25.0081V25.0644C125.312 25.5242 125.153 25.9042 124.834 26.2044C124.515 26.4953 124.116 26.6407 123.637 26.6407C123.159 26.6407 122.77 26.4953 122.469 26.2044C122.178 25.9136 122.033 25.5382 122.033 25.0785C122.033 24.6281 122.183 24.2622 122.483 23.9807C122.784 23.6898 123.182 23.5444 123.68 23.5444H123.708V21.1376C123.614 21.1658 123.516 21.1799 123.412 21.1799C122.99 21.1799 122.643 21.0438 122.371 20.7717C122.099 20.4902 121.963 20.1337 121.963 19.7021C121.963 19.2798 122.103 18.9327 122.385 18.6606C122.676 18.3884 123.051 18.2524 123.511 18.2524C123.98 18.2524 124.365 18.3978 124.665 18.6887C124.965 18.9702 125.115 19.3361 125.115 19.7865V23.7555C125.613 23.915 126.101 24.112 126.579 24.3466C127.058 24.5718 127.466 24.8017 127.804 25.0363V18.3931H129.197ZM122.779 19.7161C122.779 19.9038 122.84 20.0586 122.962 20.1806C123.084 20.3026 123.239 20.3636 123.426 20.3636C123.614 20.3636 123.769 20.3026 123.891 20.1806C124.022 20.0586 124.088 19.9038 124.088 19.7161C124.088 19.5285 124.022 19.3737 123.891 19.2517C123.769 19.1297 123.614 19.0687 123.426 19.0687C123.239 19.0687 123.084 19.1297 122.962 19.2517C122.84 19.3737 122.779 19.5285 122.779 19.7161ZM123.581 25.7681C123.788 25.7681 123.952 25.7071 124.074 25.5852C124.205 25.4538 124.271 25.2896 124.271 25.0926C124.271 24.9049 124.205 24.7501 124.074 24.6281C123.952 24.4967 123.788 24.4311 123.581 24.4311C123.394 24.4311 123.234 24.4967 123.103 24.6281C122.981 24.7501 122.92 24.9049 122.92 25.0926C122.92 25.2896 122.981 25.4538 123.103 25.5852C123.234 25.7071 123.394 25.7681 123.581 25.7681ZM135.526 26.6407C135.01 26.6407 134.593 26.5328 134.274 26.317C133.964 26.0918 133.776 25.7775 133.711 25.374L133.457 23.8681C133.326 23.9244 133.185 23.9525 133.035 23.9525C132.622 23.9525 132.28 23.8259 132.008 23.5725C131.745 23.3192 131.614 22.9955 131.614 22.6014C131.614 22.1979 131.75 21.8742 132.022 21.6303C132.303 21.3863 132.646 21.2643 133.049 21.2643C133.406 21.2643 133.711 21.3628 133.964 21.5599C134.227 21.7569 134.386 22.015 134.443 22.334L134.921 25.1207C134.94 25.2521 135.001 25.3553 135.104 25.4303C135.217 25.5054 135.353 25.5429 135.512 25.5429C135.897 25.5429 136.089 25.36 136.089 24.994V20.645C136.089 20.2603 135.93 19.9507 135.611 19.7161C135.292 19.4816 134.865 19.3643 134.33 19.3643C133.805 19.3643 133.359 19.4816 132.993 19.7161C132.627 19.9507 132.406 20.2603 132.331 20.645H130.952C131.008 19.9132 131.342 19.3314 131.951 18.8998C132.561 18.4682 133.364 18.2524 134.358 18.2524C135.306 18.2524 136.066 18.4588 136.638 18.8717C137.211 19.2845 137.497 19.8334 137.497 20.5184V24.98C137.497 25.5148 137.328 25.9276 136.99 26.2185C136.652 26.5 136.164 26.6407 135.526 26.6407ZM132.993 23.1925C133.171 23.1925 133.312 23.1362 133.415 23.0236C133.528 22.911 133.584 22.7656 133.584 22.5873C133.584 22.409 133.528 22.2683 133.415 22.1651C133.312 22.0525 133.171 21.9962 132.993 21.9962C132.815 21.9962 132.669 22.0525 132.557 22.1651C132.444 22.2683 132.388 22.409 132.388 22.5873C132.388 22.7656 132.444 22.911 132.557 23.0236C132.669 23.1362 132.815 23.1925 132.993 23.1925ZM139.852 13.5234C139.852 14.2177 139.692 14.8276 139.373 15.3531C139.064 15.8691 138.637 16.2679 138.092 16.5494C137.539 16.8309 136.915 16.9716 136.221 16.9716C135.658 16.9716 135.165 16.8919 134.743 16.7324C134.321 16.5635 133.997 16.3383 133.772 16.0568C133.546 15.7659 133.434 15.4375 133.434 15.0716C133.434 14.6587 133.57 14.3256 133.842 14.0723C134.114 13.8096 134.461 13.6782 134.884 13.6782C135.306 13.6782 135.653 13.8096 135.925 14.0723C136.188 14.3256 136.319 14.6634 136.319 15.0857C136.319 15.4985 136.192 15.8316 135.939 16.0849C135.986 16.0943 136.066 16.099 136.178 16.099C136.957 16.099 137.567 15.8597 138.008 15.3812C138.449 14.8933 138.674 14.274 138.684 13.5234H139.852ZM134.222 15.0575C134.222 15.2358 134.288 15.3859 134.419 15.5079C134.541 15.6299 134.696 15.6909 134.884 15.6909C135.062 15.6909 135.212 15.6299 135.334 15.5079C135.456 15.3859 135.517 15.2358 135.517 15.0575C135.517 14.8698 135.456 14.7197 135.334 14.6071C135.212 14.4851 135.062 14.4242 134.884 14.4242C134.696 14.4242 134.541 14.4851 134.419 14.6071C134.288 14.7291 134.222 14.8792 134.222 15.0575ZM143.319 18.2524C144.379 18.2524 145.21 18.5151 145.81 19.0406C146.42 19.5566 146.725 20.2697 146.725 21.1799V26.5H145.332V21.208C145.332 20.6263 145.149 20.1759 144.783 19.8569C144.426 19.5285 143.943 19.3643 143.333 19.3643C142.883 19.3643 142.493 19.4487 142.165 19.6176C141.846 19.7865 141.602 20.0117 141.433 20.2932C141.274 20.5653 141.194 20.8609 141.194 21.1799C141.194 21.3769 141.217 21.588 141.264 21.8132C141.311 22.0384 141.382 22.3434 141.475 22.7281C141.569 23.1034 141.64 23.413 141.687 23.657C141.733 23.8915 141.757 24.1073 141.757 24.3044V24.5014C141.898 24.3044 142.071 24.1073 142.278 23.9103C142.493 23.7133 142.756 23.4834 143.066 23.2207C142.747 23.1737 142.489 23.0377 142.292 22.8125C142.104 22.5873 142.01 22.3105 142.01 21.9821C142.01 21.6162 142.132 21.3159 142.376 21.0814C142.62 20.8468 142.934 20.7295 143.319 20.7295C143.704 20.7295 144.018 20.8515 144.262 21.0954C144.515 21.3394 144.642 21.649 144.642 22.0243C144.642 22.3809 144.534 22.7093 144.318 23.0095C144.103 23.3098 143.774 23.6757 143.333 24.1073C142.864 24.5765 142.503 24.9847 142.25 25.3318C142.006 25.679 141.865 26.0684 141.827 26.5H140.448V24.4874C140.448 24.2997 140.359 23.8587 140.181 23.1644C140.059 22.6671 139.965 22.2683 139.899 21.968C139.843 21.6584 139.815 21.3769 139.815 21.1236C139.815 20.5981 139.955 20.1149 140.237 19.6739C140.518 19.2329 140.922 18.8857 141.447 18.6324C141.982 18.3791 142.606 18.2524 143.319 18.2524ZM142.728 21.9821C142.728 22.1604 142.78 22.3058 142.883 22.4184C142.995 22.531 143.141 22.5873 143.319 22.5873C143.497 22.5873 143.638 22.531 143.741 22.4184C143.854 22.3058 143.91 22.1604 143.91 21.9821C143.91 21.8132 143.854 21.6772 143.741 21.574C143.638 21.4614 143.497 21.4051 143.319 21.4051C143.141 21.4051 142.995 21.4614 142.883 21.574C142.78 21.6772 142.728 21.8132 142.728 21.9821ZM155.778 17.605C155.703 18.0929 155.379 18.6277 154.807 19.2095C155.182 19.6129 155.37 20.1102 155.37 20.7013V26.5H153.99V23.3755C153.99 22.972 153.803 22.6577 153.427 22.4325C153.062 22.1979 152.639 22.0806 152.161 22.0806C151.682 22.0806 151.283 22.1932 150.964 22.4184C150.645 22.6436 150.486 22.9486 150.486 23.3333V23.7555C150.58 23.7273 150.678 23.7133 150.781 23.7133C151.213 23.7133 151.56 23.8493 151.823 24.1214C152.095 24.3935 152.231 24.7501 152.231 25.1911C152.231 25.6133 152.086 25.9605 151.795 26.2326C151.513 26.5047 151.143 26.6407 150.683 26.6407C150.214 26.6407 149.829 26.5 149.529 26.2185C149.238 25.9276 149.093 25.5523 149.093 25.0926V23.3333C149.093 22.7515 149.285 22.2683 149.67 21.8836C150.064 21.4895 150.58 21.2315 151.218 21.1095C151.95 20.5841 152.564 20.0539 153.062 19.5191C152.771 19.4159 152.433 19.3643 152.048 19.3643C151.476 19.3643 150.997 19.4816 150.613 19.7161C150.228 19.9413 149.998 20.251 149.923 20.645H148.572C148.628 19.9132 148.966 19.3314 149.585 18.8998C150.214 18.4682 151.035 18.2524 152.048 18.2524C152.705 18.2524 153.301 18.3556 153.836 18.562C154.042 18.2242 154.169 17.9052 154.216 17.605H155.778ZM153.99 20.6591C153.99 20.4527 153.939 20.2603 153.836 20.0821C153.498 20.3636 153.038 20.692 152.456 21.0673C153.094 21.1517 153.606 21.3769 153.99 21.7428V20.6591ZM151.415 25.177C151.415 24.9893 151.354 24.8345 151.232 24.7125C151.119 24.5906 150.969 24.5296 150.781 24.5296C150.584 24.5296 150.425 24.5906 150.303 24.7125C150.181 24.8345 150.12 24.9893 150.12 25.177C150.12 25.3647 150.181 25.5195 150.303 25.6415C150.425 25.7634 150.584 25.8244 150.781 25.8244C150.969 25.8244 151.119 25.7634 151.232 25.6415C151.354 25.5195 151.415 25.3647 151.415 25.177ZM154.448 13.7908H155.743V16.8309H154.448V13.7908ZM161.099 18.2524C161.568 18.2524 161.953 18.3978 162.253 18.6887C162.553 18.9702 162.703 19.3361 162.703 19.7865V26.5H161.31L157.425 22.3058L158.199 21.4895L161.31 24.8533V21.1376C161.216 21.1658 161.118 21.1799 161.014 21.1799C160.583 21.1799 160.231 21.0438 159.959 20.7717C159.687 20.4902 159.551 20.1337 159.551 19.7021C159.551 19.2798 159.691 18.9327 159.973 18.6606C160.264 18.3884 160.639 18.2524 161.099 18.2524ZM161.014 20.3636C161.211 20.3636 161.366 20.3026 161.479 20.1806C161.601 20.0586 161.662 19.9038 161.662 19.7161C161.662 19.5285 161.601 19.3737 161.479 19.2517C161.366 19.1297 161.211 19.0687 161.014 19.0687C160.827 19.0687 160.672 19.1297 160.55 19.2517C160.428 19.3737 160.367 19.5285 160.367 19.7161C160.367 19.9038 160.428 20.0586 160.55 20.1806C160.672 20.3026 160.827 20.3636 161.014 20.3636Z" fill="white"/>
</g>
</g>
<defs>
<filter id="filter0_d_155_27169" x="0.000223637" y="0" width="187.043" height="50.0425" filterUnits="userSpaceOnUse" color-interpolation-filters="sRGB">
<feFlood flood-opacity="0" result="BackgroundImageFix"/>
<feColorMatrix in="SourceAlpha" type="matrix" values="0 0 0 0 0 0 0 0 0 0 0 0 0 0 0 0 0 0 127 0" result="hardAlpha"/>
<feMorphology radius="4.02126" operator="erode" in="SourceAlpha" result="effect1_dropShadow_155_27169"/>
<feOffset dy="4.02126"/>
<feGaussianBlur stdDeviation="4.02126"/>
<feColorMatrix type="matrix" values="0 0 0 0 0.298039 0 0 0 0 0.305882 0 0 0 0 0.392157 0 0 0 0.42 0"/>
<feBlend mode="normal" in2="BackgroundImageFix" result="effect1_dropShadow_155_27169"/>
<feBlend mode="normal" in="SourceGraphic" in2="effect1_dropShadow_155_27169" result="shape"/>
</filter>
<clipPath id="clip0_155_27169">
<rect x="4.02148" width="179" height="42" rx="8.04252" fill="white"/>
</clipPath>
</defs>
</svg>
