<svg width="113" height="51" viewBox="0 0 113 51" fill="none" xmlns="http://www.w3.org/2000/svg">
<g filter="url(#filter0_d_155_27227)">
<rect x="4.02148" width="104" height="42" rx="8.04252" fill="#FF6B00"/>
<path d="M42.2801 23.7133C42.7117 23.7133 43.0589 23.854 43.3216 24.1355C43.5937 24.4076 43.7297 24.7595 43.7297 25.1911C43.7297 25.6133 43.5843 25.9605 43.2934 26.2326C43.0119 26.5047 42.6413 26.6407 42.1815 26.6407C41.7124 26.6407 41.3277 26.5 41.0274 26.2185C40.7366 25.9276 40.5911 25.5523 40.5911 25.0926V18.3931H41.9845V23.7555C42.0877 23.7273 42.1862 23.7133 42.2801 23.7133ZM42.266 25.8244C42.463 25.8244 42.6179 25.7634 42.7305 25.6415C42.8524 25.5195 42.9134 25.3647 42.9134 25.177C42.9134 24.9893 42.8524 24.8345 42.7305 24.7125C42.6179 24.5906 42.463 24.5296 42.266 24.5296C42.0783 24.5296 41.9235 24.5906 41.8015 24.7125C41.6796 24.8345 41.6186 24.9893 41.6186 25.177C41.6186 25.3647 41.6796 25.5195 41.8015 25.6415C41.9235 25.7634 42.0783 25.8244 42.266 25.8244ZM46.1646 23.7133C46.5962 23.7133 46.9434 23.854 47.2061 24.1355C47.4782 24.4076 47.6143 24.7595 47.6143 25.1911C47.6143 25.6133 47.4688 25.9605 47.178 26.2326C46.8965 26.5047 46.5259 26.6407 46.0661 26.6407C45.5969 26.6407 45.2122 26.5 44.912 26.2185C44.6211 25.9276 44.4757 25.5523 44.4757 25.0926V18.3931H45.869V23.7555C45.9723 23.7273 46.0708 23.7133 46.1646 23.7133ZM46.1505 25.8244C46.3476 25.8244 46.5024 25.7634 46.615 25.6415C46.737 25.5195 46.798 25.3647 46.798 25.177C46.798 24.9893 46.737 24.8345 46.615 24.7125C46.5024 24.5906 46.3476 24.5296 46.1505 24.5296C45.9629 24.5296 45.8081 24.5906 45.6861 24.7125C45.5641 24.8345 45.5031 24.9893 45.5031 25.177C45.5031 25.3647 45.5641 25.5195 45.6861 25.6415C45.8081 25.7634 45.9629 25.8244 46.1505 25.8244ZM49.2665 23.0518C49.2665 22.7046 49.3556 22.395 49.5339 22.1229C49.7216 21.8414 49.9702 21.6303 50.2798 21.4895C49.9045 21.3675 49.4119 21.2831 48.802 21.2362C48.8302 20.645 48.9897 20.1243 49.2806 19.6739C49.5808 19.2235 49.989 18.8764 50.505 18.6324C51.0211 18.3791 51.6122 18.2524 52.2784 18.2524C52.9071 18.2524 53.4607 18.3697 53.9392 18.6043C54.4177 18.8388 54.7884 19.1719 55.0511 19.6035C55.3232 20.0352 55.4592 20.5371 55.4592 21.1095V26.5H54.0518V21.2502C54.0518 20.6779 53.8782 20.2228 53.531 19.885C53.1933 19.5379 52.7382 19.3643 52.1658 19.3643C51.6873 19.3643 51.2604 19.4722 50.885 19.688C50.5191 19.9038 50.2658 20.1947 50.125 20.5606C50.4534 20.6075 50.7631 20.692 51.0539 20.8139C51.3542 20.9359 51.5935 21.072 51.7717 21.2221V21.5599C51.4246 21.6725 51.1525 21.8554 50.9554 22.1088C50.7678 22.3527 50.6739 22.6483 50.6739 22.9955V26.5H49.2665V23.0518ZM57.1874 13.1293C57.1124 13.8706 56.8543 14.5227 56.4133 15.0857C55.9723 15.6392 55.3953 16.0709 54.6822 16.3805C53.9691 16.6808 53.1715 16.8309 52.2895 16.8309H51.6984V16.1975C51.9142 16.1131 52.1394 15.9958 52.374 15.8457C52.5992 15.6862 52.7962 15.5079 52.9651 15.3108H52.8103C52.4444 15.3108 52.1582 15.2029 51.9518 14.9871C51.7453 14.7713 51.6421 14.4851 51.6421 14.1286C51.6421 13.7814 51.7641 13.4999 52.008 13.2841C52.2426 13.0683 52.5429 12.9604 52.9088 12.9604C53.2747 12.9604 53.5797 13.0777 53.8236 13.3123C54.0582 13.5468 54.1755 13.8565 54.1755 14.2412C54.1755 14.5133 54.1145 14.7995 53.9925 15.0997C53.8612 15.4 53.6829 15.658 53.4577 15.8738C54.1521 15.7518 54.7291 15.4281 55.1889 14.9027C55.6486 14.3772 55.9114 13.7861 55.977 13.1293H57.1874ZM52.3881 14.1567C52.3881 14.3069 52.4397 14.4335 52.5429 14.5367C52.6367 14.6306 52.7587 14.6775 52.9088 14.6775C53.0589 14.6775 53.1809 14.6306 53.2747 14.5367C53.3686 14.4335 53.4155 14.3069 53.4155 14.1567C53.4155 14.0066 53.3686 13.8846 53.2747 13.7908C53.1809 13.697 53.0589 13.6501 52.9088 13.6501C52.7587 13.6501 52.6367 13.697 52.5429 13.7908C52.4397 13.8846 52.3881 14.0066 52.3881 14.1567ZM61.2037 23.7133C61.6259 23.7133 61.9731 23.854 62.2452 24.1355C62.5173 24.4076 62.6534 24.7595 62.6534 25.1911C62.6534 25.6133 62.5079 25.9605 62.2171 26.2326C61.9356 26.5047 61.565 26.6407 61.1052 26.6407C60.636 26.6407 60.2513 26.5 59.9511 26.2185C59.6508 25.9276 59.5007 25.5523 59.5007 25.0926V14.3538L57.9807 16.5212L56.8829 16.1553C56.8172 15.2264 56.6342 13.9925 56.334 12.4537H57.4599C57.6757 13.5234 57.8071 14.4288 57.854 15.1701L59.5852 12.6649H60.9082V23.7555C61.0114 23.7273 61.1099 23.7133 61.2037 23.7133ZM61.1896 25.8244C61.3773 25.8244 61.5321 25.7634 61.6541 25.6415C61.7761 25.5195 61.8371 25.3647 61.8371 25.177C61.8371 24.9893 61.7761 24.8345 61.6541 24.7125C61.5321 24.5906 61.3773 24.5296 61.1896 24.5296C61.002 24.5296 60.8472 24.5906 60.7252 24.7125C60.6032 24.8345 60.5422 24.9893 60.5422 25.177C60.5422 25.3647 60.6032 25.5195 60.7252 25.6415C60.8472 25.7634 61.002 25.8244 61.1896 25.8244ZM70.9675 18.3931V24.6C70.9675 25.2568 70.7611 25.7634 70.3482 26.12C69.9354 26.4672 69.3443 26.6407 68.5749 26.6407C67.8055 26.6407 67.219 26.4672 66.8156 26.12C66.4121 25.7634 66.2104 25.2568 66.2104 24.6V23.2488C66.2104 22.9861 66.2526 22.7562 66.337 22.5592C66.4309 22.3527 66.5716 22.1041 66.7593 21.8132C66.9563 21.5223 67.1018 21.269 67.1956 21.0532C67.2894 20.828 67.3363 20.5747 67.3363 20.2932C67.3363 19.9272 67.2237 19.6551 66.9985 19.4769C66.7827 19.2986 66.4872 19.2095 66.1119 19.2095C65.699 19.2095 65.3706 19.3033 65.1266 19.4909C65.1548 19.4816 65.2017 19.4769 65.2674 19.4769C65.6333 19.4769 65.9383 19.5942 66.1822 19.8287C66.4356 20.0633 66.5622 20.3917 66.5622 20.8139C66.5622 21.1986 66.4356 21.527 66.1822 21.7991C65.9289 22.0619 65.5817 22.1932 65.1407 22.1932C64.681 22.1932 64.315 22.0431 64.0429 21.7428C63.7708 21.4426 63.6348 21.0297 63.6348 20.5043C63.6348 19.8475 63.8599 19.308 64.3103 18.8857C64.7607 18.4635 65.38 18.2524 66.1681 18.2524C66.9 18.2524 67.4865 18.4213 67.9274 18.7591C68.3778 19.0875 68.603 19.5613 68.603 20.1806C68.603 20.5278 68.5561 20.828 68.4623 21.0814C68.3684 21.3253 68.2324 21.5974 68.0541 21.8977C67.904 22.1792 67.7914 22.4137 67.7163 22.6014C67.6413 22.7797 67.6037 22.9861 67.6037 23.2207V24.6422C67.6037 24.933 67.6882 25.1535 67.8571 25.3037C68.026 25.4538 68.2699 25.5289 68.5889 25.5289C68.908 25.5289 69.1519 25.4538 69.3208 25.3037C69.4897 25.1535 69.5742 24.933 69.5742 24.6422V18.3931H70.9675ZM65.7741 20.8139C65.7741 20.6263 65.7178 20.4762 65.6052 20.3636C65.4926 20.251 65.3424 20.1947 65.1548 20.1947C64.9671 20.1947 64.8123 20.251 64.6903 20.3636C64.5777 20.4762 64.5214 20.6263 64.5214 20.8139C64.5214 21.0016 64.5777 21.1564 64.6903 21.2784C64.8123 21.391 64.9671 21.4473 65.1548 21.4473C65.3424 21.4473 65.4926 21.391 65.6052 21.2784C65.7178 21.1564 65.7741 21.0016 65.7741 20.8139Z" fill="white"/>
</g>
<defs>
<filter id="filter0_d_155_27227" x="0.000223637" y="0" width="112.043" height="50.0425" filterUnits="userSpaceOnUse" color-interpolation-filters="sRGB">
<feFlood flood-opacity="0" result="BackgroundImageFix"/>
<feColorMatrix in="SourceAlpha" type="matrix" values="0 0 0 0 0 0 0 0 0 0 0 0 0 0 0 0 0 0 127 0" result="hardAlpha"/>
<feMorphology radius="4.02126" operator="erode" in="SourceAlpha" result="effect1_dropShadow_155_27227"/>
<feOffset dy="4.02126"/>
<feGaussianBlur stdDeviation="4.02126"/>
<feColorMatrix type="matrix" values="0 0 0 0 0.298039 0 0 0 0 0.305882 0 0 0 0 0.392157 0 0 0 0.42 0"/>
<feBlend mode="normal" in2="BackgroundImageFix" result="effect1_dropShadow_155_27227"/>
<feBlend mode="normal" in="SourceGraphic" in2="effect1_dropShadow_155_27227" result="shape"/>
</filter>
</defs>
</svg>
