<svg width="164" height="38" viewBox="0 0 164 38" fill="none" xmlns="http://www.w3.org/2000/svg">
<g clip-path="url(#clip0_18_13638)">
<rect width="164" height="38" rx="8" fill="#565DFF"/>
<path d="M29.333 13.1673L28.1497 14.3507L26.8247 13.0257V22.334H25.1747V13.0257L23.8497 14.3507L22.6663 13.1673L25.9997 9.83398L29.333 13.1673ZM32.6663 17.334V26.5007C32.6663 27.4173 31.9163 28.1673 30.9997 28.1673H20.9997C20.0747 28.1673 19.333 27.4173 19.333 26.5007V17.334C19.333 16.409 20.0747 15.6673 20.9997 15.6673H23.4997V17.334H20.9997V26.5007H30.9997V17.334H28.4997V15.6673H30.9997C31.9163 15.6673 32.6663 16.409 32.6663 17.334Z" fill="white"/>
<path d="M52.72 15.888C52.6347 16.4427 52.2667 17.0507 51.616 17.712C52.0427 18.1707 52.256 18.736 52.256 19.408V26H50.688V22.448C50.688 21.9893 50.4747 21.632 50.048 21.376C49.632 21.1093 49.152 20.976 48.608 20.976C48.064 20.976 47.6107 21.104 47.248 21.36C46.8853 21.616 46.704 21.9627 46.704 22.4V22.88C46.8107 22.848 46.9227 22.832 47.04 22.832C47.5307 22.832 47.9253 22.9867 48.224 23.296C48.5333 23.6053 48.688 24.0107 48.688 24.512C48.688 24.992 48.5227 25.3867 48.192 25.696C47.872 26.0053 47.4507 26.16 46.928 26.16C46.3947 26.16 45.9573 26 45.616 25.68C45.2853 25.3493 45.12 24.9227 45.12 24.4V22.4C45.12 21.7387 45.3387 21.1893 45.776 20.752C46.224 20.304 46.8107 20.0107 47.536 19.872C48.368 19.2747 49.0667 18.672 49.632 18.064C49.3013 17.9467 48.9173 17.888 48.48 17.888C47.8293 17.888 47.2853 18.0213 46.848 18.288C46.4107 18.544 46.1493 18.896 46.064 19.344H44.528C44.592 18.512 44.976 17.8507 45.68 17.36C46.3947 16.8693 47.328 16.624 48.48 16.624C49.2267 16.624 49.904 16.7413 50.512 16.976C50.7467 16.592 50.8907 16.2293 50.944 15.888H52.72ZM50.688 19.36C50.688 19.1253 50.6293 18.9067 50.512 18.704C50.128 19.024 49.6053 19.3973 48.944 19.824C49.6693 19.92 50.2507 20.176 50.688 20.592V19.36ZM47.76 24.496C47.76 24.2827 47.6907 24.1067 47.552 23.968C47.424 23.8293 47.2533 23.76 47.04 23.76C46.816 23.76 46.6347 23.8293 46.496 23.968C46.3573 24.1067 46.288 24.2827 46.288 24.496C46.288 24.7093 46.3573 24.8853 46.496 25.024C46.6347 25.1627 46.816 25.232 47.04 25.232C47.2533 25.232 47.424 25.1627 47.552 25.024C47.6907 24.8853 47.76 24.7093 47.76 24.496ZM51.1506 11.552H52.6226V15.008H51.1506V11.552ZM58.6546 16.624C59.188 16.624 59.6253 16.7893 59.9666 17.12C60.308 17.44 60.4786 17.856 60.4786 18.368V26H58.8946L54.4786 21.232L55.3586 20.304L58.8946 24.128V19.904C58.788 19.936 58.676 19.952 58.5586 19.952C58.068 19.952 57.668 19.7973 57.3586 19.488C57.0493 19.168 56.8946 18.7627 56.8946 18.272C56.8946 17.792 57.0546 17.3973 57.3746 17.088C57.7053 16.7787 58.132 16.624 58.6546 16.624ZM58.5586 19.024C58.7826 19.024 58.9586 18.9547 59.0866 18.816C59.2253 18.6773 59.2946 18.5013 59.2946 18.288C59.2946 18.0747 59.2253 17.8987 59.0866 17.76C58.9586 17.6213 58.7826 17.552 58.5586 17.552C58.3453 17.552 58.1693 17.6213 58.0306 17.76C57.892 17.8987 57.8226 18.0747 57.8226 18.288C57.8226 18.5013 57.892 18.6773 58.0306 18.816C58.1693 18.9547 58.3453 19.024 58.5586 19.024ZM66.6049 16.624C67.3515 16.624 68.0075 16.7413 68.5729 16.976C69.1382 17.2 69.5702 17.5253 69.8689 17.952C70.1782 18.368 70.3329 18.8533 70.3329 19.408V23.84C70.3329 24.576 70.0289 25.1467 69.4209 25.552C68.8129 25.9573 67.9702 26.16 66.8929 26.16C65.8155 26.16 64.9782 25.9573 64.3809 25.552C63.7835 25.136 63.4849 24.5653 63.4849 23.84V21.44C63.4849 20.928 63.6502 20.512 63.9809 20.192C64.3115 19.872 64.7435 19.712 65.2769 19.712C65.7995 19.712 66.2209 19.8667 66.5409 20.176C66.8609 20.4747 67.0209 20.8693 67.0209 21.36C67.0209 21.84 66.8662 22.2347 66.5569 22.544C66.2582 22.8427 65.8689 22.992 65.3889 22.992C65.2929 22.992 65.1809 22.9813 65.0529 22.96V23.728C65.0529 24.1013 65.2182 24.3893 65.5489 24.592C65.8902 24.7947 66.3542 24.896 66.9409 24.896C67.5275 24.896 67.9755 24.7893 68.2849 24.576C68.5942 24.352 68.7489 24.0427 68.7489 23.648V19.44C68.7489 18.9707 68.5515 18.5973 68.1569 18.32C67.7622 18.032 67.2342 17.888 66.5729 17.888C65.9329 17.888 65.3942 18.0213 64.9569 18.288C64.5195 18.544 64.2582 18.896 64.1729 19.344H62.6369C62.7115 18.512 63.1115 17.8507 63.8369 17.36C64.5622 16.8693 65.4849 16.624 66.6049 16.624ZM65.3729 20.624C65.1595 20.624 64.9835 20.6933 64.8449 20.832C64.7062 20.96 64.6369 21.1307 64.6369 21.344C64.6369 21.5573 64.7062 21.7333 64.8449 21.872C64.9835 22.0107 65.1595 22.08 65.3729 22.08C65.5862 22.08 65.7622 22.0107 65.9009 21.872C66.0395 21.7333 66.1089 21.5573 66.1089 21.344C66.1089 21.1307 66.0395 20.96 65.9009 20.832C65.7622 20.6933 65.5862 20.624 65.3729 20.624ZM76.4736 16.624C77.2203 16.624 77.8763 16.7413 78.4416 16.976C79.007 17.2 79.439 17.5253 79.7376 17.952C80.047 18.368 80.2016 18.8533 80.2016 19.408V23.84C80.2016 24.576 79.8976 25.1467 79.2896 25.552C78.6816 25.9573 77.839 26.16 76.7616 26.16C75.6843 26.16 74.847 25.9573 74.2496 25.552C73.6523 25.136 73.3536 24.5653 73.3536 23.84V21.44C73.3536 20.928 73.519 20.512 73.8496 20.192C74.1803 19.872 74.6123 19.712 75.1456 19.712C75.6683 19.712 76.0896 19.8667 76.4096 20.176C76.7296 20.4747 76.8896 20.8693 76.8896 21.36C76.8896 21.84 76.735 22.2347 76.4256 22.544C76.127 22.8427 75.7376 22.992 75.2576 22.992C75.1616 22.992 75.0496 22.9813 74.9216 22.96V23.728C74.9216 24.1013 75.087 24.3893 75.4176 24.592C75.759 24.7947 76.223 24.896 76.8096 24.896C77.3963 24.896 77.8443 24.7893 78.1536 24.576C78.463 24.352 78.6176 24.0427 78.6176 23.648V19.44C78.6176 18.9707 78.4203 18.5973 78.0256 18.32C77.631 18.032 77.103 17.888 76.4416 17.888C75.8016 17.888 75.263 18.0213 74.8256 18.288C74.3883 18.544 74.127 18.896 74.0416 19.344H72.5056C72.5803 18.512 72.9803 17.8507 73.7056 17.36C74.431 16.8693 75.3536 16.624 76.4736 16.624ZM75.2416 20.624C75.0283 20.624 74.8523 20.6933 74.7136 20.832C74.575 20.96 74.5056 21.1307 74.5056 21.344C74.5056 21.5573 74.575 21.7333 74.7136 21.872C74.8523 22.0107 75.0283 22.08 75.2416 22.08C75.455 22.08 75.631 22.0107 75.7696 21.872C75.9083 21.7333 75.9776 21.5573 75.9776 21.344C75.9776 21.1307 75.9083 20.96 75.7696 20.832C75.631 20.6933 75.455 20.624 75.2416 20.624ZM82.9024 22.08C82.9024 21.6853 83.0037 21.3333 83.2064 21.024C83.4197 20.704 83.7024 20.464 84.0544 20.304C83.6277 20.1653 83.0677 20.0693 82.3744 20.016C82.4064 19.344 82.5877 18.752 82.9184 18.24C83.2597 17.728 83.7237 17.3333 84.3104 17.056C84.897 16.768 85.569 16.624 86.3264 16.624C87.041 16.624 87.6704 16.7573 88.2144 17.024C88.7584 17.2907 89.1797 17.6693 89.4784 18.16C89.7877 18.6507 89.9424 19.2213 89.9424 19.872V26H88.3424V20.032C88.3424 19.3813 88.145 18.864 87.7504 18.48C87.3664 18.0853 86.849 17.888 86.1984 17.888C85.6544 17.888 85.169 18.0107 84.7424 18.256C84.3264 18.5013 84.0384 18.832 83.8784 19.248C84.2517 19.3013 84.6037 19.3973 84.9344 19.536C85.2757 19.6747 85.5477 19.8293 85.7504 20V20.384C85.3557 20.512 85.0464 20.72 84.8224 21.008C84.609 21.2853 84.5024 21.6213 84.5024 22.016V26H82.9024V22.08ZM94.6305 17.888C94.3745 17.888 94.1505 17.968 93.9585 18.128C93.7665 18.2773 93.6598 18.4907 93.6385 18.768C94.8758 18.9067 95.8998 19.1627 96.7105 19.536C97.5212 19.9093 97.9265 20.3733 97.9265 20.928V24.4C97.9265 24.9227 97.7558 25.3493 97.4145 25.68C97.0732 26 96.6358 26.16 96.1025 26.16C95.5798 26.16 95.1532 26.0053 94.8225 25.696C94.5025 25.3867 94.3425 24.992 94.3425 24.512C94.3425 24.0107 94.4918 23.6053 94.7905 23.296C95.0998 22.9867 95.4998 22.832 95.9905 22.832C96.0972 22.832 96.2092 22.848 96.3265 22.88V21.152C96.3265 20.8427 95.9158 20.5653 95.0945 20.32C94.2732 20.0747 93.2278 19.8827 91.9585 19.744C91.9692 18.752 92.1878 17.984 92.6145 17.44C93.0518 16.896 93.6438 16.624 94.3905 16.624C94.6678 16.624 94.9292 16.6507 95.1745 16.704C95.4305 16.7573 95.7292 16.8373 96.0705 16.944C96.1238 16.9547 96.2518 16.992 96.4545 17.056C96.6572 17.1093 96.8278 17.136 96.9665 17.136C97.1052 17.136 97.2332 17.0827 97.3505 16.976C97.4678 16.8693 97.5478 16.7307 97.5905 16.56L98.7425 16.896C98.6038 17.3867 98.4012 17.7653 98.1345 18.032C97.8678 18.288 97.5585 18.416 97.2065 18.416C97.0465 18.416 96.8545 18.3893 96.6305 18.336C96.4172 18.2827 96.1985 18.224 95.9745 18.16C95.7398 18.096 95.4998 18.0373 95.2545 17.984C95.0092 17.92 94.8012 17.888 94.6305 17.888ZM96.0065 25.232C96.2198 25.232 96.3958 25.1627 96.5345 25.024C96.6732 24.8853 96.7425 24.7093 96.7425 24.496C96.7425 24.2827 96.6732 24.1067 96.5345 23.968C96.3958 23.8293 96.2198 23.76 96.0065 23.76C95.7825 23.76 95.6012 23.8293 95.4625 23.968C95.3345 24.1067 95.2705 24.2827 95.2705 24.496C95.2705 24.7093 95.3345 24.8853 95.4625 25.024C95.6012 25.1627 95.7825 25.232 96.0065 25.232ZM104.875 19.28C104.875 18.8427 104.736 18.5013 104.459 18.256C104.181 18.0107 103.797 17.888 103.307 17.888C102.795 17.888 102.384 18.0373 102.075 18.336C101.776 18.624 101.627 19.0187 101.627 19.52H100.091C100.091 18.6133 100.379 17.904 100.955 17.392C101.531 16.88 102.315 16.624 103.307 16.624C104.288 16.624 105.056 16.8533 105.611 17.312C106.176 17.7707 106.459 18.4053 106.459 19.216V26H104.875V19.28ZM116.093 16.784V23.76C116.093 24.5067 115.773 25.0933 115.133 25.52C114.493 25.9467 113.619 26.16 112.509 26.16C111.411 26.16 110.536 25.9467 109.885 25.52C109.245 25.0933 108.925 24.5067 108.925 23.76V22.752C108.925 22.4 109.011 22.0907 109.181 21.824C109.352 21.5467 109.613 21.328 109.965 21.168C109.56 20.976 109.261 20.6827 109.069 20.288C108.877 19.8933 108.781 19.4453 108.781 18.944C108.781 18.2293 108.968 17.664 109.341 17.248C109.715 16.832 110.227 16.624 110.877 16.624C111.389 16.624 111.795 16.7627 112.093 17.04C112.392 17.3067 112.541 17.6747 112.541 18.144C112.541 18.592 112.403 18.9493 112.125 19.216C111.848 19.4827 111.469 19.616 110.989 19.616C110.723 19.616 110.488 19.5627 110.285 19.456C110.317 19.7973 110.435 20.0693 110.637 20.272C110.84 20.4747 111.085 20.576 111.373 20.576H112.941V21.792H111.357C111.101 21.792 110.893 21.8773 110.733 22.048C110.584 22.2187 110.509 22.448 110.509 22.736V23.632C110.509 24.0267 110.685 24.336 111.037 24.56C111.4 24.784 111.891 24.896 112.509 24.896C113.128 24.896 113.613 24.784 113.965 24.56C114.317 24.336 114.493 24.0267 114.493 23.632V16.784H116.093ZM110.957 17.424C110.755 17.424 110.584 17.488 110.445 17.616C110.317 17.744 110.253 17.9147 110.253 18.128C110.253 18.3307 110.317 18.5013 110.445 18.64C110.584 18.768 110.755 18.832 110.957 18.832C111.171 18.832 111.341 18.768 111.469 18.64C111.597 18.5013 111.661 18.3307 111.661 18.128C111.661 17.9147 111.597 17.744 111.469 17.616C111.341 17.488 111.171 17.424 110.957 17.424ZM122.08 16.624C122.613 16.624 123.05 16.7893 123.392 17.12C123.733 17.44 123.904 17.856 123.904 18.368V26H122.32L117.904 21.232L118.784 20.304L122.32 24.128V19.904C122.213 19.936 122.101 19.952 121.984 19.952C121.493 19.952 121.093 19.7973 120.784 19.488C120.474 19.168 120.32 18.7627 120.32 18.272C120.32 17.792 120.48 17.3973 120.8 17.088C121.13 16.7787 121.557 16.624 122.08 16.624ZM121.984 19.024C122.208 19.024 122.384 18.9547 122.512 18.816C122.65 18.6773 122.72 18.5013 122.72 18.288C122.72 18.0747 122.65 17.8987 122.512 17.76C122.384 17.6213 122.208 17.552 121.984 17.552C121.77 17.552 121.594 17.6213 121.456 17.76C121.317 17.8987 121.248 18.0747 121.248 18.288C121.248 18.5013 121.317 18.6773 121.456 18.816C121.594 18.9547 121.77 19.024 121.984 19.024ZM130.606 19.28C130.606 18.8427 130.467 18.5013 130.19 18.256C129.913 18.0107 129.529 17.888 129.038 17.888C128.526 17.888 128.115 18.0373 127.806 18.336C127.507 18.624 127.358 19.0187 127.358 19.52H125.822C125.822 18.6133 126.11 17.904 126.686 17.392C127.262 16.88 128.046 16.624 129.038 16.624C130.019 16.624 130.787 16.8533 131.342 17.312C131.907 17.7707 132.19 18.4053 132.19 19.216V26H130.606V19.28ZM142.177 22.944C142.507 23.072 142.769 23.264 142.961 23.52C143.153 23.776 143.249 24.0693 143.249 24.4C143.249 24.9227 143.083 25.3493 142.753 25.68C142.433 26 142.011 26.16 141.489 26.16C140.987 26.16 140.577 26 140.257 25.68C139.937 25.36 139.777 24.944 139.777 24.432V24.416C139.35 24.5867 138.939 24.816 138.545 25.104C138.161 25.3813 137.851 25.68 137.617 26H136.033V19.904C135.926 19.936 135.814 19.952 135.697 19.952C135.206 19.952 134.806 19.7973 134.497 19.488C134.187 19.168 134.033 18.7627 134.033 18.272C134.033 17.792 134.193 17.3973 134.513 17.088C134.843 16.7787 135.27 16.624 135.793 16.624C136.326 16.624 136.763 16.7893 137.105 17.12C137.446 17.44 137.617 17.856 137.617 18.368V24.416C137.766 24.2453 137.985 24.0747 138.273 23.904C138.561 23.7227 138.923 23.5307 139.361 23.328C139.862 23.0827 140.241 22.8693 140.497 22.688C140.763 22.5067 140.95 22.3253 141.057 22.144C141.163 21.952 141.217 21.7173 141.217 21.44V16.784H142.801V21.456C142.801 21.7867 142.747 22.0853 142.641 22.352C142.534 22.608 142.379 22.8053 142.177 22.944ZM135.697 19.024C135.921 19.024 136.097 18.9547 136.225 18.816C136.363 18.6773 136.433 18.5013 136.433 18.288C136.433 18.0747 136.363 17.8987 136.225 17.76C136.097 17.6213 135.921 17.552 135.697 17.552C135.483 17.552 135.307 17.6213 135.169 17.76C135.03 17.8987 134.961 18.0747 134.961 18.288C134.961 18.5013 135.03 18.6773 135.169 18.816C135.307 18.9547 135.483 19.024 135.697 19.024ZM141.489 25.232C141.713 25.232 141.894 25.1627 142.033 25.024C142.171 24.8853 142.241 24.7093 142.241 24.496C142.241 24.2827 142.171 24.1067 142.033 23.968C141.894 23.8293 141.713 23.76 141.489 23.76C141.275 23.76 141.099 23.8293 140.961 23.968C140.833 24.1067 140.769 24.2827 140.769 24.496C140.769 24.7093 140.833 24.8853 140.961 25.024C141.099 25.1627 141.275 25.232 141.489 25.232Z" fill="white"/>
</g>
<rect x="0.5" y="0.5" width="163" height="37" rx="7.5" stroke="#6D788D" stroke-opacity="0.5"/>
<defs>
<clipPath id="clip0_18_13638">
<rect width="164" height="38" rx="8" fill="white"/>
</clipPath>
</defs>
</svg>
