<svg width="99" height="42" viewBox="0 0 99 42" fill="none" xmlns="http://www.w3.org/2000/svg">
<rect x="0.5" y="0.5" width="97.2339" height="41" rx="7.5" stroke="#B6BCC6"/>
<path d="M29.2529 18.3931V24.5296C29.2529 25.1864 28.9714 25.7024 28.4085 26.0778C27.8455 26.4531 27.0761 26.6407 26.1002 26.6407C25.1338 26.6407 24.3644 26.4531 23.792 26.0778C23.2291 25.7024 22.9476 25.1864 22.9476 24.5296V23.6429C22.9476 23.3333 23.0226 23.0612 23.1728 22.8266C23.3229 22.5826 23.5528 22.3903 23.8624 22.2495C23.5059 22.0806 23.2431 21.8226 23.0742 21.4754C22.9054 21.1283 22.8209 20.7342 22.8209 20.2932C22.8209 19.6645 22.9851 19.1672 23.3135 18.8013C23.6419 18.4354 24.0923 18.2524 24.6647 18.2524C25.115 18.2524 25.4716 18.3744 25.7343 18.6183C25.997 18.8529 26.1284 19.1766 26.1284 19.5895C26.1284 19.9835 26.0064 20.2979 25.7625 20.5324C25.5185 20.767 25.1854 20.8843 24.7632 20.8843C24.5286 20.8843 24.3222 20.8374 24.1439 20.7436C24.1721 21.0438 24.2753 21.2831 24.4535 21.4614C24.6318 21.6396 24.8476 21.7288 25.101 21.7288H26.4803V22.7984H25.0869C24.8617 22.7984 24.6787 22.8735 24.538 23.0236C24.4066 23.1737 24.3409 23.3755 24.3409 23.6288V24.417C24.3409 24.7642 24.4958 25.0363 24.8054 25.2333C25.1244 25.4303 25.556 25.5289 26.1002 25.5289C26.6445 25.5289 27.0714 25.4303 27.381 25.2333C27.6907 25.0363 27.8455 24.7642 27.8455 24.417V18.3931H29.2529ZM24.735 18.9561C24.5568 18.9561 24.4066 19.0124 24.2846 19.125C24.1721 19.2376 24.1158 19.3877 24.1158 19.5754C24.1158 19.7537 24.1721 19.9038 24.2846 20.0258C24.4066 20.1384 24.5568 20.1947 24.735 20.1947C24.9227 20.1947 25.0728 20.1384 25.1854 20.0258C25.298 19.9038 25.3543 19.7537 25.3543 19.5754C25.3543 19.3877 25.298 19.2376 25.1854 19.125C25.0728 19.0124 24.9227 18.9561 24.735 18.9561ZM31.1205 13.1293C31.0455 13.8706 30.7874 14.5227 30.3464 15.0857C29.9054 15.6392 29.3284 16.0709 28.6153 16.3805C27.9022 16.6808 27.1046 16.8309 26.2226 16.8309H25.6315V16.1975C25.8473 16.1131 26.0725 15.9958 26.3071 15.8457C26.5323 15.6862 26.7293 15.5079 26.8982 15.3108H26.7434C26.3775 15.3108 26.0913 15.2029 25.8849 14.9871C25.6784 14.7713 25.5752 14.4851 25.5752 14.1286C25.5752 13.7814 25.6972 13.4999 25.9412 13.2841C26.1757 13.0683 26.476 12.9604 26.8419 12.9604C27.2079 12.9604 27.5128 13.0777 27.7568 13.3123C27.9913 13.5468 28.1086 13.8565 28.1086 14.2412C28.1086 14.5133 28.0476 14.7995 27.9256 15.0997C27.7943 15.4 27.616 15.658 27.3908 15.8738C28.0852 15.7518 28.6622 15.4281 29.122 14.9027C29.5817 14.3772 29.8445 13.7861 29.9101 13.1293H31.1205ZM26.3212 14.1567C26.3212 14.3069 26.3728 14.4335 26.476 14.5367C26.5698 14.6306 26.6918 14.6775 26.8419 14.6775C26.992 14.6775 27.114 14.6306 27.2079 14.5367C27.3017 14.4335 27.3486 14.3069 27.3486 14.1567C27.3486 14.0066 27.3017 13.8846 27.2079 13.7908C27.114 13.697 26.992 13.6501 26.8419 13.6501C26.6918 13.6501 26.5698 13.697 26.476 13.7908C26.3728 13.8846 26.3212 14.0066 26.3212 14.1567ZM35.0979 18.2524C35.7547 18.2524 36.3318 18.3556 36.829 18.562C37.3263 18.7591 37.7064 19.0453 37.9691 19.4206C38.2412 19.7865 38.3772 20.2134 38.3772 20.7013V24.6C38.3772 25.2474 38.1098 25.7494 37.575 26.1059C37.0402 26.4625 36.2989 26.6407 35.3512 26.6407C34.4036 26.6407 33.667 26.4625 33.1416 26.1059C32.6161 25.74 32.3534 25.238 32.3534 24.6V22.4888C32.3534 22.0384 32.4988 21.6725 32.7897 21.391C33.0806 21.1095 33.4606 20.9688 33.9297 20.9688C34.3895 20.9688 34.7601 21.1048 35.0416 21.3769C35.3231 21.6396 35.4638 21.9868 35.4638 22.4184C35.4638 22.8407 35.3278 23.1878 35.0557 23.4599C34.7929 23.7226 34.4505 23.854 34.0282 23.854C33.9438 23.854 33.8453 23.8446 33.7327 23.8259V24.5014C33.7327 24.8298 33.8781 25.0832 34.169 25.2615C34.4692 25.4397 34.8774 25.5289 35.3935 25.5289C35.9095 25.5289 36.3036 25.435 36.5757 25.2474C36.8478 25.0503 36.9839 24.7782 36.9839 24.4311V20.7295C36.9839 20.3166 36.8103 19.9882 36.4631 19.7443C36.1159 19.4909 35.6515 19.3643 35.0697 19.3643C34.5068 19.3643 34.0329 19.4816 33.6482 19.7161C33.2635 19.9413 33.0336 20.251 32.9586 20.645H31.6074C31.6731 19.9132 32.025 19.3314 32.663 18.8998C33.3011 18.4682 34.1127 18.2524 35.0979 18.2524ZM34.0142 21.771C33.8265 21.771 33.6717 21.832 33.5497 21.954C33.4277 22.0666 33.3667 22.2167 33.3667 22.4043C33.3667 22.592 33.4277 22.7468 33.5497 22.8688C33.6717 22.9908 33.8265 23.0518 34.0142 23.0518C34.2018 23.0518 34.3566 22.9908 34.4786 22.8688C34.6006 22.7468 34.6616 22.592 34.6616 22.4043C34.6616 22.2167 34.6006 22.0666 34.4786 21.954C34.3566 21.832 34.2018 21.771 34.0142 21.771ZM47.2211 23.8118C47.512 23.9244 47.7419 24.0933 47.9108 24.3185C48.0797 24.5437 48.1641 24.8017 48.1641 25.0926C48.1641 25.5523 48.0187 25.9276 47.7278 26.2185C47.4463 26.5 47.0757 26.6407 46.6159 26.6407C46.1749 26.6407 45.8137 26.5 45.5322 26.2185C45.2507 25.937 45.11 25.5711 45.11 25.1207V25.1066C44.7347 25.2568 44.3734 25.4585 44.0263 25.7118C43.6885 25.9558 43.4164 26.2185 43.2099 26.5H41.8166V21.1376C41.7227 21.1658 41.6242 21.1799 41.521 21.1799C41.0894 21.1799 40.7375 21.0438 40.4654 20.7717C40.1933 20.4902 40.0573 20.1337 40.0573 19.7021C40.0573 19.2798 40.198 18.9327 40.4795 18.6606C40.7704 18.3884 41.1457 18.2524 41.6055 18.2524C42.0746 18.2524 42.4593 18.3978 42.7596 18.6887C43.0598 18.9702 43.2099 19.3361 43.2099 19.7865V25.1066C43.3413 24.9565 43.5337 24.8064 43.787 24.6563C44.0403 24.4967 44.3594 24.3278 44.7441 24.1496C45.185 23.9338 45.5181 23.7461 45.7433 23.5866C45.9779 23.4271 46.1421 23.2676 46.2359 23.1081C46.3298 22.9392 46.3767 22.7327 46.3767 22.4888V18.3931H47.7701V22.5029C47.7701 22.7937 47.7231 23.0565 47.6293 23.291C47.5355 23.5162 47.3994 23.6898 47.2211 23.8118ZM41.521 20.3636C41.7181 20.3636 41.8729 20.3026 41.9855 20.1806C42.1074 20.0586 42.1684 19.9038 42.1684 19.7161C42.1684 19.5285 42.1074 19.3737 41.9855 19.2517C41.8729 19.1297 41.7181 19.0687 41.521 19.0687C41.3334 19.0687 41.1785 19.1297 41.0566 19.2517C40.9346 19.3737 40.8736 19.5285 40.8736 19.7161C40.8736 19.9038 40.9346 20.0586 41.0566 20.1806C41.1785 20.3026 41.3334 20.3636 41.521 20.3636ZM46.6159 25.8244C46.813 25.8244 46.9725 25.7634 47.0945 25.6415C47.2165 25.5195 47.2774 25.3647 47.2774 25.177C47.2774 24.9893 47.2165 24.8345 47.0945 24.7125C46.9725 24.5906 46.813 24.5296 46.6159 24.5296C46.4283 24.5296 46.2735 24.5906 46.1515 24.7125C46.0389 24.8345 45.9826 24.9893 45.9826 25.177C45.9826 25.3647 46.0389 25.5195 46.1515 25.6415C46.2735 25.7634 46.4283 25.8244 46.6159 25.8244ZM50.2218 23.0518C50.2218 22.7046 50.3109 22.395 50.4892 22.1229C50.6768 21.8414 50.9255 21.6303 51.2351 21.4895C50.8598 21.3675 50.3672 21.2831 49.7573 21.2362C49.7855 20.645 49.945 20.1243 50.2358 19.6739C50.5361 19.2235 50.9442 18.8764 51.4603 18.6324C51.9764 18.3791 52.5675 18.2524 53.2337 18.2524C53.8623 18.2524 54.4159 18.3697 54.8945 18.6043C55.373 18.8388 55.7436 19.1719 56.0063 19.6035C56.2785 20.0352 56.4145 20.5371 56.4145 21.1095V26.5H55.0071V21.2502C55.0071 20.6779 54.8335 20.2228 54.4863 19.885C54.1485 19.5379 53.6935 19.3643 53.1211 19.3643C52.6426 19.3643 52.2156 19.4722 51.8403 19.688C51.4744 19.9038 51.221 20.1947 51.0803 20.5606C51.4087 20.6075 51.7183 20.692 52.0092 20.8139C52.3095 20.9359 52.5487 21.072 52.727 21.2221V21.5599C52.3798 21.6725 52.1077 21.8554 51.9107 22.1088C51.723 22.3527 51.6292 22.6483 51.6292 22.9955V26.5H50.2218V23.0518ZM61.7428 18.2524C62.7561 18.2524 63.5631 18.4729 64.1636 18.9139C64.7641 19.3549 65.0643 19.9507 65.0643 20.7013V26.5H63.6851V23.2629C63.6851 22.8688 63.4974 22.5545 63.1221 22.3199C62.7561 22.0853 62.3339 21.968 61.8554 21.968C61.3768 21.968 60.9781 22.0806 60.6591 22.3058C60.34 22.531 60.1805 22.836 60.1805 23.2207V23.7555C60.2744 23.7273 60.3729 23.7133 60.4761 23.7133C60.9077 23.7133 61.2549 23.8493 61.5176 24.1214C61.7897 24.3935 61.9258 24.7501 61.9258 25.1911C61.9258 25.6133 61.7803 25.9605 61.4894 26.2326C61.208 26.5047 60.8373 26.6407 60.3776 26.6407C59.9084 26.6407 59.5237 26.5 59.2235 26.2185C58.9326 25.9276 58.7872 25.5523 58.7872 25.0926V23.2347C58.7872 22.7656 58.9138 22.3574 59.1672 22.0103C59.4299 21.6631 59.7817 21.4004 60.2227 21.2221C60.6731 21.0344 61.1657 20.9406 61.7006 20.9406C62.0759 20.9406 62.4371 20.9969 62.7843 21.1095C63.1408 21.2221 63.4411 21.4004 63.6851 21.6443V20.6591C63.6851 20.265 63.5068 19.9507 63.1502 19.7161C62.8031 19.4816 62.3339 19.3643 61.7428 19.3643C61.1704 19.3643 60.6919 19.4816 60.3072 19.7161C59.9225 19.9413 59.6926 20.251 59.6175 20.645H58.2664C58.3227 19.9132 58.6605 19.3314 59.2798 18.8998C59.9084 18.4682 60.7294 18.2524 61.7428 18.2524ZM61.1094 25.177C61.1094 24.9893 61.0484 24.8345 60.9265 24.7125C60.8139 24.5906 60.6637 24.5296 60.4761 24.5296C60.279 24.5296 60.1195 24.5906 59.9976 24.7125C59.8756 24.8345 59.8146 24.9893 59.8146 25.177C59.8146 25.3647 59.8756 25.5195 59.9976 25.6415C60.1195 25.7634 60.279 25.8244 60.4761 25.8244C60.6637 25.8244 60.8139 25.7634 60.9265 25.6415C61.0484 25.5195 61.1094 25.3647 61.1094 25.177ZM67.4249 13.5234C67.4249 14.2177 67.2654 14.8276 66.9464 15.3531C66.6367 15.8691 66.2098 16.2679 65.6656 16.5494C65.112 16.8309 64.488 16.9716 63.7937 16.9716C63.2307 16.9716 62.7381 16.8919 62.3159 16.7324C61.8937 16.5635 61.5699 16.3383 61.3448 16.0568C61.1196 15.7659 61.007 15.4375 61.007 15.0716C61.007 14.6587 61.143 14.3256 61.4151 14.0723C61.6872 13.8096 62.0344 13.6782 62.4566 13.6782C62.8789 13.6782 63.226 13.8096 63.4981 14.0723C63.7609 14.3256 63.8922 14.6634 63.8922 15.0857C63.8922 15.4985 63.7656 15.8316 63.5122 16.0849C63.5591 16.0943 63.6389 16.099 63.7515 16.099C64.5303 16.099 65.1402 15.8597 65.5812 15.3812C66.0222 14.8933 66.2473 14.274 66.2567 13.5234H67.4249ZM61.7951 15.0575C61.7951 15.2358 61.8608 15.3859 61.9922 15.5079C62.1142 15.6299 62.269 15.6909 62.4566 15.6909C62.6349 15.6909 62.785 15.6299 62.907 15.5079C63.029 15.3859 63.09 15.2358 63.09 15.0575C63.09 14.8698 63.029 14.7197 62.907 14.6071C62.785 14.4851 62.6349 14.4242 62.4566 14.4242C62.269 14.4242 62.1142 14.4851 61.9922 14.6071C61.8608 14.7291 61.7951 14.8792 61.7951 15.0575ZM74.9876 18.3931V24.7125C74.9876 25.3131 74.7155 25.7869 74.1713 26.1341C73.6365 26.4719 72.8952 26.6407 71.9475 26.6407C70.9999 26.6407 70.2539 26.4719 69.7097 26.1341C69.1749 25.7869 68.9075 25.3131 68.9075 24.7125V21.1376C68.8136 21.1658 68.7151 21.1799 68.6119 21.1799C68.1803 21.1799 67.8284 21.0438 67.5563 20.7717C67.2842 20.4902 67.1482 20.1337 67.1482 19.7021C67.1482 19.2798 67.2889 18.9327 67.5704 18.6606C67.8613 18.3884 68.2366 18.2524 68.6963 18.2524C69.1655 18.2524 69.5502 18.3978 69.8504 18.6887C70.1507 18.9702 70.3008 19.3361 70.3008 19.7865V24.5437C70.3008 24.8439 70.4463 25.0832 70.7371 25.2615C71.028 25.4397 71.4315 25.5289 71.9475 25.5289C72.4542 25.5289 72.853 25.4397 73.1439 25.2615C73.4347 25.0832 73.5802 24.8439 73.5802 24.5437V18.3931H74.9876ZM68.6119 20.3636C68.8089 20.3636 68.9638 20.3026 69.0764 20.1806C69.1983 20.0586 69.2593 19.9038 69.2593 19.7161C69.2593 19.5285 69.1983 19.3737 69.0764 19.2517C68.9638 19.1297 68.8089 19.0687 68.6119 19.0687C68.4242 19.0687 68.2694 19.1297 68.1474 19.2517C68.0255 19.3737 67.9645 19.5285 67.9645 19.7161C67.9645 19.9038 68.0255 20.0586 68.1474 20.1806C68.2694 20.3026 68.4242 20.3636 68.6119 20.3636Z" fill="#6D788D"/>
</svg>
