<svg width="109" height="42" viewBox="0 0 109 42" fill="none" xmlns="http://www.w3.org/2000/svg">
<rect width="109" height="42" rx="8" fill="#565DFF"/>
<path d="M23.5875 18.2524C24.2162 18.3556 24.7182 18.6606 25.0935 19.1672C25.4688 19.6739 25.6565 20.3026 25.6565 21.0532V26.5H24.249V21.0814C24.249 20.6591 24.1927 20.3166 24.0801 20.0539C23.9769 19.7912 23.8033 19.5801 23.5594 19.4206L22.166 20.3917L20.7023 19.3783C20.4208 19.566 20.2144 19.8053 20.083 20.0961C19.9517 20.387 19.886 20.7576 19.886 21.208C19.886 21.4144 19.9141 21.6631 19.9704 21.954C20.0361 22.2355 20.1065 22.5169 20.1815 22.7984C20.3786 23.4834 20.4771 23.9854 20.4771 24.3044V24.6422C20.6272 24.4451 20.829 24.234 21.0823 24.0088C21.345 23.7836 21.5092 23.6429 21.5749 23.5866L21.8142 23.3896C21.5139 23.3426 21.27 23.216 21.0823 23.0095C20.904 22.7937 20.8149 22.5263 20.8149 22.2073C20.8149 21.8508 20.9369 21.5552 21.1808 21.3206C21.4342 21.0767 21.7532 20.9547 22.1379 20.9547C22.5226 20.9547 22.8369 21.0767 23.0809 21.3206C23.3248 21.5646 23.4468 21.8742 23.4468 22.2495C23.4468 22.5967 23.3342 22.911 23.109 23.1925C22.8932 23.474 22.5601 23.8165 22.1097 24.2199C21.6218 24.6422 21.2465 25.0222 20.9838 25.36C20.7211 25.6884 20.5756 26.0684 20.5475 26.5H19.1682V24.4874C19.1682 24.356 19.14 24.173 19.0837 23.9385C19.0274 23.6945 18.9664 23.4412 18.9008 23.1784C18.7788 22.6999 18.685 22.3152 18.6193 22.0243C18.563 21.7335 18.5348 21.4661 18.5348 21.2221C18.5348 20.4621 18.7272 19.8147 19.1119 19.2798C19.506 18.745 20.0642 18.4025 20.7867 18.2524L22.1801 19.2939L23.5875 18.2524ZM21.5327 22.2073C21.5327 22.3856 21.5843 22.531 21.6875 22.6436C21.8001 22.7468 21.9455 22.7984 22.1238 22.7984C22.3021 22.7984 22.4428 22.7468 22.546 22.6436C22.6586 22.531 22.7149 22.3856 22.7149 22.2073C22.7149 22.0384 22.6586 21.9024 22.546 21.7991C22.4428 21.6866 22.3021 21.6303 22.1238 21.6303C21.9455 21.6303 21.8001 21.6866 21.6875 21.7991C21.5843 21.9024 21.5327 22.0384 21.5327 22.2073ZM28.0215 13.5234C28.0215 14.2177 27.862 14.8276 27.543 15.3531C27.2334 15.8691 26.8065 16.2679 26.2622 16.5494C25.7087 16.8309 25.0847 16.9716 24.3903 16.9716C23.8274 16.9716 23.3348 16.8919 22.9125 16.7324C22.4903 16.5635 22.1666 16.3383 21.9414 16.0568C21.7162 15.7659 21.6036 15.4375 21.6036 15.0716C21.6036 14.6587 21.7397 14.3256 22.0118 14.0723C22.2839 13.8096 22.631 13.6782 23.0533 13.6782C23.4755 13.6782 23.8227 13.8096 24.0948 14.0723C24.3575 14.3256 24.4889 14.6634 24.4889 15.0857C24.4889 15.4985 24.3622 15.8316 24.1089 16.0849C24.1558 16.0943 24.2355 16.099 24.3481 16.099C25.1269 16.099 25.7368 15.8597 26.1778 15.3812C26.6188 14.8933 26.844 14.274 26.8534 13.5234H28.0215ZM22.3918 15.0575C22.3918 15.2358 22.4575 15.3859 22.5888 15.5079C22.7108 15.6299 22.8656 15.6909 23.0533 15.6909C23.2316 15.6909 23.3817 15.6299 23.5037 15.5079C23.6256 15.3859 23.6866 15.2358 23.6866 15.0575C23.6866 14.8698 23.6256 14.7197 23.5037 14.6071C23.3817 14.4851 23.2316 14.4242 23.0533 14.4242C22.8656 14.4242 22.7108 14.4851 22.5888 14.6071C22.4575 14.7291 22.3918 14.8792 22.3918 15.0575ZM30.8134 18.2524C31.7329 18.2524 32.4554 18.4729 32.9808 18.9139C33.5063 19.3549 33.769 19.9601 33.769 20.7295V25.0926C33.769 25.5523 33.6189 25.9276 33.3186 26.2185C33.0183 26.5 32.6336 26.6407 32.1645 26.6407C31.7047 26.6407 31.3294 26.5047 31.0385 26.2326C30.7571 25.9605 30.6163 25.6133 30.6163 25.1911C30.6163 24.7501 30.7524 24.3935 31.0245 24.1214C31.2966 23.8493 31.6484 23.7133 32.0801 23.7133C32.1833 23.7133 32.2818 23.7273 32.3756 23.7555V20.8421C32.3756 20.3823 32.2349 20.0211 31.9534 19.7584C31.6813 19.4956 31.2919 19.3643 30.7852 19.3643C30.3254 19.3643 29.9407 19.4909 29.6311 19.7443C29.3308 19.9976 29.1479 20.3401 29.0822 20.7717H27.6888C27.7545 19.9929 28.0642 19.3783 28.6177 18.928C29.1807 18.4776 29.9126 18.2524 30.8134 18.2524ZM32.0801 25.8244C32.2771 25.8244 32.4366 25.7634 32.5586 25.6415C32.6806 25.5195 32.7415 25.3647 32.7415 25.177C32.7415 24.9893 32.6806 24.8345 32.5586 24.7125C32.4366 24.5906 32.2771 24.5296 32.0801 24.5296C31.8924 24.5296 31.7376 24.5906 31.6156 24.7125C31.4936 24.8345 31.4326 24.9893 31.4326 25.177C31.4326 25.3647 31.4936 25.5195 31.6156 25.6415C31.7376 25.7634 31.8924 25.8244 32.0801 25.8244ZM37.9224 23.7133C38.354 23.7133 38.7012 23.854 38.9639 24.1355C39.236 24.4076 39.372 24.7595 39.372 25.1911C39.372 25.6133 39.2266 25.9605 38.9357 26.2326C38.6542 26.5047 38.2836 26.6407 37.8239 26.6407C37.3547 26.6407 36.97 26.5 36.6698 26.2185C36.3789 25.9276 36.2334 25.5523 36.2334 25.0926V18.3931H37.6268V23.7555C37.73 23.7273 37.8285 23.7133 37.9224 23.7133ZM37.9083 25.8244C38.1053 25.8244 38.2602 25.7634 38.3728 25.6415C38.4947 25.5195 38.5557 25.3647 38.5557 25.177C38.5557 24.9893 38.4947 24.8345 38.3728 24.7125C38.2602 24.5906 38.1053 24.5296 37.9083 24.5296C37.7206 24.5296 37.5658 24.5906 37.4438 24.7125C37.3219 24.8345 37.2609 24.9893 37.2609 25.177C37.2609 25.3647 37.3219 25.5195 37.4438 25.6415C37.5658 25.7634 37.7206 25.8244 37.9083 25.8244ZM43.9462 18.2524C44.9596 18.2524 45.7665 18.4729 46.367 18.9139C46.9676 19.3549 47.2678 19.9507 47.2678 20.7013V26.5H45.8885V23.2629C45.8885 22.8688 45.7009 22.5545 45.3255 22.3199C44.9596 22.0853 44.5374 21.968 44.0588 21.968C43.5803 21.968 43.1815 22.0806 42.8625 22.3058C42.5435 22.531 42.384 22.836 42.384 23.2207V23.7555C42.4778 23.7273 42.5763 23.7133 42.6795 23.7133C43.1112 23.7133 43.4583 23.8493 43.7211 24.1214C43.9932 24.3935 44.1292 24.7501 44.1292 25.1911C44.1292 25.6133 43.9838 25.9605 43.6929 26.2326C43.4114 26.5047 43.0408 26.6407 42.581 26.6407C42.1119 26.6407 41.7272 26.5 41.4269 26.2185C41.1361 25.9276 40.9906 25.5523 40.9906 25.0926V23.2347C40.9906 22.7656 41.1173 22.3574 41.3706 22.0103C41.6333 21.6631 41.9852 21.4004 42.4262 21.2221C42.8766 21.0344 43.3692 20.9406 43.904 20.9406C44.2793 20.9406 44.6406 20.9969 44.9877 21.1095C45.3443 21.2221 45.6446 21.4004 45.8885 21.6443V20.6591C45.8885 20.265 45.7102 19.9507 45.3537 19.7161C45.0065 19.4816 44.5374 19.3643 43.9462 19.3643C43.3739 19.3643 42.8954 19.4816 42.5107 19.7161C42.126 19.9413 41.8961 20.251 41.821 20.645H40.4699C40.5262 19.9132 40.8639 19.3314 41.4832 18.8998C42.1119 18.4682 42.9329 18.2524 43.9462 18.2524ZM43.3129 25.177C43.3129 24.9893 43.2519 24.8345 43.1299 24.7125C43.0173 24.5906 42.8672 24.5296 42.6795 24.5296C42.4825 24.5296 42.323 24.5906 42.201 24.7125C42.079 24.8345 42.018 24.9893 42.018 25.177C42.018 25.3647 42.079 25.5195 42.201 25.6415C42.323 25.7634 42.4825 25.8244 42.6795 25.8244C42.8672 25.8244 43.0173 25.7634 43.1299 25.6415C43.2519 25.5195 43.3129 25.3647 43.3129 25.177ZM47.5313 16.5212C47.5876 16.8215 47.6204 17.0561 47.6298 17.225C46.973 16.9622 46.1754 16.7558 45.2371 16.6057C44.2989 16.4462 43.3981 16.3664 42.5349 16.3664C42 16.3664 41.5074 16.404 41.057 16.479C41.0852 15.6721 41.3808 15.0294 41.9437 14.5508C42.5067 14.0629 43.248 13.819 44.1675 13.819C44.3739 13.819 44.571 13.833 44.7586 13.8612V13.0871H45.7157V14.1145C46.0441 14.2553 46.3256 14.4429 46.5601 14.6775V13.0871H47.5313V16.5212ZM43.126 15.6205C43.7077 15.6205 44.2942 15.6674 44.8853 15.7612C45.467 15.8457 45.9784 15.9676 46.4194 16.1272C46.2224 15.6486 45.9315 15.2874 45.5468 15.0434C45.1527 14.7995 44.6976 14.6775 44.1816 14.6775C43.7218 14.6775 43.3324 14.7666 43.0134 14.9449C42.685 15.1232 42.4645 15.3578 42.3519 15.6486C42.5114 15.6299 42.7694 15.6205 43.126 15.6205ZM53.1236 18.2524C53.7804 18.2524 54.3574 18.3556 54.8547 18.562C55.352 18.7591 55.732 19.0453 55.9947 19.4206C56.2668 19.7865 56.4029 20.2134 56.4029 20.7013V24.6C56.4029 25.2474 56.1355 25.7494 55.6007 26.1059C55.0658 26.4625 54.3246 26.6407 53.3769 26.6407C52.4292 26.6407 51.6927 26.4625 51.1672 26.1059C50.6418 25.74 50.379 25.238 50.379 24.6V22.4888C50.379 22.0384 50.5245 21.6725 50.8154 21.391C51.1062 21.1095 51.4862 20.9688 51.9554 20.9688C52.4151 20.9688 52.7858 21.1048 53.0673 21.3769C53.3488 21.6396 53.4895 21.9868 53.4895 22.4184C53.4895 22.8407 53.3534 23.1878 53.0813 23.4599C52.8186 23.7226 52.4761 23.854 52.0539 23.854C51.9695 23.854 51.8709 23.8446 51.7583 23.8259V24.5014C51.7583 24.8298 51.9038 25.0832 52.1946 25.2615C52.4949 25.4397 52.9031 25.5289 53.4191 25.5289C53.9352 25.5289 54.3293 25.435 54.6014 25.2474C54.8735 25.0503 55.0095 24.7782 55.0095 24.4311V20.7295C55.0095 20.3166 54.8359 19.9882 54.4888 19.7443C54.1416 19.4909 53.6772 19.3643 53.0954 19.3643C52.5324 19.3643 52.0586 19.4816 51.6739 19.7161C51.2892 19.9413 51.0593 20.251 50.9842 20.645H49.6331C49.6988 19.9132 50.0506 19.3314 50.6887 18.8998C51.3267 18.4682 52.1384 18.2524 53.1236 18.2524ZM52.0398 21.771C51.8522 21.771 51.6974 21.832 51.5754 21.954C51.4534 22.0666 51.3924 22.2167 51.3924 22.4043C51.3924 22.592 51.4534 22.7468 51.5754 22.8688C51.6974 22.9908 51.8522 23.0518 52.0398 23.0518C52.2275 23.0518 52.3823 22.9908 52.5043 22.8688C52.6263 22.7468 52.6873 22.592 52.6873 22.4043C52.6873 22.2167 52.6263 22.0666 52.5043 21.954C52.3823 21.832 52.2275 21.771 52.0398 21.771ZM58.8289 23.0518C58.8289 22.7046 58.918 22.395 59.0963 22.1229C59.284 21.8414 59.5326 21.6303 59.8422 21.4895C59.4669 21.3675 58.9743 21.2831 58.3644 21.2362C58.3926 20.645 58.5521 20.1243 58.843 19.6739C59.1432 19.2235 59.5514 18.8764 60.0674 18.6324C60.5835 18.3791 61.1746 18.2524 61.8408 18.2524C62.4695 18.2524 63.0231 18.3697 63.5016 18.6043C63.9801 18.8388 64.3507 19.1719 64.6135 19.6035C64.8856 20.0352 65.0216 20.5371 65.0216 21.1095V26.5H63.6142V21.2502C63.6142 20.6779 63.4406 20.2228 63.0934 19.885C62.7556 19.5379 62.3006 19.3643 61.7282 19.3643C61.2497 19.3643 60.8228 19.4722 60.4474 19.688C60.0815 19.9038 59.8282 20.1947 59.6874 20.5606C60.0158 20.6075 60.3255 20.692 60.6163 20.8139C60.9166 20.9359 61.1559 21.072 61.3341 21.2221V21.5599C60.987 21.6725 60.7149 21.8554 60.5178 22.1088C60.3302 22.3527 60.2363 22.6483 60.2363 22.9955V26.5H58.8289V23.0518Z" fill="white"/>
<path d="M74 19L79 24L84 19H74Z" fill="white"/>
</svg>
