<svg width="52" height="52" viewBox="0 0 52 52" fill="none" xmlns="http://www.w3.org/2000/svg">
<path d="M32.5 17.3333H32.5217M27.0833 45.5H13C11.2761 45.5 9.62279 44.8152 8.40381 43.5962C7.18482 42.3772 6.5 40.7239 6.5 39V13C6.5 11.2761 7.18482 9.62279 8.40381 8.40381C9.62279 7.18482 11.2761 6.5 13 6.5H39C40.7239 6.5 42.3772 7.18482 43.5962 8.40381C44.8152 9.62279 45.5 11.2761 45.5 13V27.0833" stroke="#565DFF" stroke-width="3.5" stroke-linecap="round" stroke-linejoin="round"/>
<path d="M6.5 34.6673L17.3333 23.8339C19.344 21.8991 21.8227 21.8991 23.8333 23.8339L32.5 32.5006" stroke="#565DFF" stroke-width="3.5" stroke-linecap="round" stroke-linejoin="round"/>
<path d="M30.334 30.334L32.5007 28.1673C33.9523 26.772 35.6423 26.382 37.2283 26.9973M34.6673 41.1673H47.6673M41.1673 34.6673V47.6673" stroke="#565DFF" stroke-width="3.5" stroke-linecap="round" stroke-linejoin="round"/>
</svg>
