<svg width="151" height="42" viewBox="0 0 151 42" fill="none" xmlns="http://www.w3.org/2000/svg">
<rect width="151" height="42" rx="8" fill="#2192FF"/>
<path fill-rule="evenodd" clip-rule="evenodd" d="M32.9451 10.25H33.0549C34.4225 10.25 35.5248 10.25 36.3918 10.3665C37.2919 10.4875 38.0497 10.7464 38.6517 11.3484C39.3916 12.0883 39.6205 13.0752 39.7012 14.2994C39.9462 14.3158 40.1763 14.3376 40.3918 14.3665C41.2919 14.4875 42.0497 14.7464 42.6517 15.3484C43.2536 15.9503 43.5125 16.7081 43.6335 17.6083C43.75 18.4752 43.75 19.5775 43.75 20.9451V21.0549C43.75 22.4225 43.75 23.5248 43.6335 24.3918C43.5125 25.2919 43.2536 26.0497 42.6517 26.6517C41.9117 27.3916 40.9248 27.6205 39.7006 27.7012C39.6842 27.9462 39.6625 28.1763 39.6335 28.3918C39.5125 29.2919 39.2536 30.0497 38.6517 30.6517C38.0497 31.2536 37.2919 31.5125 36.3918 31.6335C35.5248 31.75 34.4225 31.75 33.0549 31.75H32.9451C31.5775 31.75 30.4752 31.75 29.6082 31.6335C28.7081 31.5125 27.9503 31.2536 27.3484 30.6517C26.7464 30.0497 26.4875 29.2919 26.3665 28.3918C26.3376 28.1763 26.3158 27.9462 26.2994 27.7012C25.0752 27.6205 24.0883 27.3916 23.3484 26.6517C22.7464 26.0497 22.4875 25.2919 22.3665 24.3918C22.25 23.5248 22.25 22.4225 22.25 21.0549V20.9451C22.25 19.5775 22.25 18.4752 22.3665 17.6083C22.4875 16.7081 22.7464 15.9503 23.3484 15.3484C23.9503 14.7464 24.7081 14.4875 25.6082 14.3665C25.8237 14.3376 26.0538 14.3158 26.2988 14.2994C26.3795 13.0752 26.6084 12.0883 27.3483 11.3484C27.9503 10.7464 28.7081 10.4875 29.6082 10.3665C30.4752 10.25 31.5775 10.25 32.9451 10.25ZM27.8071 14.2529C28.1641 14.25 28.5431 14.25 28.9451 14.25H37.0549C37.4569 14.25 37.8359 14.25 38.1929 14.2529C38.1109 13.2321 37.9265 12.7445 37.591 12.409C37.3142 12.1322 36.9257 11.9518 36.1919 11.8531C35.4365 11.7516 34.4354 11.75 33 11.75C31.5646 11.75 30.5635 11.7516 29.8081 11.8531C29.0743 11.9518 28.6858 12.1322 28.409 12.409C28.0735 12.7445 27.8891 13.2321 27.8071 14.2529ZM26.2529 26.1929C26.25 25.8359 26.25 25.4569 26.25 25.0549L26.25 24.75H26C25.5858 24.75 25.25 24.4142 25.25 24C25.25 23.5858 25.5858 23.25 26 23.25H40C40.4142 23.25 40.75 23.5858 40.75 24C40.75 24.4142 40.4142 24.75 40 24.75H39.75V25.0549C39.75 25.4569 39.75 25.8359 39.7471 26.1929C40.7679 26.1109 41.2555 25.9265 41.591 25.591C41.8678 25.3142 42.0482 24.9257 42.1469 24.1919C42.2484 23.4365 42.25 22.4354 42.25 21C42.25 19.5646 42.2484 18.5635 42.1469 17.8081C42.0482 17.0743 41.8678 16.6858 41.591 16.409C41.3142 16.1322 40.9257 15.9518 40.1919 15.8531C39.4365 15.7516 38.4354 15.75 37 15.75H29C27.5646 15.75 26.5635 15.7516 25.8081 15.8531C25.0743 15.9518 24.6858 16.1322 24.409 16.409C24.1322 16.6858 23.9518 17.0743 23.8531 17.8081C23.7516 18.5635 23.75 19.5646 23.75 21C23.75 22.4354 23.7516 23.4365 23.8531 24.1919C23.9518 24.9257 24.1322 25.3142 24.409 25.591C24.7445 25.9265 25.2321 26.1109 26.2529 26.1929ZM38.25 24.75H27.75V25C27.75 26.4354 27.7516 27.4365 27.8531 28.1919C27.9518 28.9257 28.1322 29.3142 28.409 29.591C28.6858 29.8678 29.0743 30.0482 29.8081 30.1469C30.5635 30.2484 31.5646 30.25 33 30.25C34.4354 30.25 35.4365 30.2484 36.1919 30.1469C36.9257 30.0482 37.3142 29.8678 37.591 29.591C37.8678 29.3142 38.0482 28.9257 38.1469 28.1919C38.2484 27.4365 38.25 26.4354 38.25 25V24.75ZM26.25 19C26.25 18.5858 26.5858 18.25 27 18.25H30C30.4142 18.25 30.75 18.5858 30.75 19C30.75 19.4142 30.4142 19.75 30 19.75H27C26.5858 19.75 26.25 19.4142 26.25 19Z" fill="white"/>
<path d="M39 19C39 19.5523 38.5523 20 38 20C37.4477 20 37 19.5523 37 19C37 18.4477 37.4477 18 38 18C38.5523 18 39 18.4477 39 19Z" fill="white"/>
<path d="M62.2328 18.3931V26.5H60.6987L58.6438 20.068L56.589 26.5H55.0549V21.1376C54.961 21.1658 54.8578 21.1799 54.7452 21.1799C54.3136 21.1799 53.9618 21.0438 53.6896 20.7717C53.4175 20.4902 53.2815 20.1337 53.2815 19.7021C53.2815 19.2798 53.4222 18.9327 53.7037 18.6606C53.9946 18.3884 54.3699 18.2524 54.8297 18.2524C55.2988 18.2524 55.6835 18.3978 55.9838 18.6887C56.284 18.9702 56.4342 19.3361 56.4342 19.7865V23.277C56.4342 23.5115 56.4107 23.8962 56.3638 24.4311L56.6593 23.2207L58.109 18.4494H59.1927L60.6283 23.2207L60.9239 24.4311C60.877 23.8962 60.8535 23.5115 60.8535 23.277V18.3931H62.2328ZM54.7452 20.3636C54.9423 20.3636 55.0971 20.3026 55.2097 20.1806C55.3317 20.0586 55.3927 19.9038 55.3927 19.7161C55.3927 19.5285 55.3317 19.3737 55.2097 19.2517C55.0971 19.1297 54.9423 19.0687 54.7452 19.0687C54.5576 19.0687 54.4027 19.1297 54.2808 19.2517C54.1588 19.3737 54.0978 19.5285 54.0978 19.7161C54.0978 19.9038 54.1588 20.0586 54.2808 20.1806C54.4027 20.3026 54.5576 20.3636 54.7452 20.3636ZM62.7273 17.225C62.0705 16.9622 61.2729 16.7558 60.3347 16.6057C59.3964 16.4462 58.4956 16.3664 57.6324 16.3664C57.0975 16.3664 56.6049 16.404 56.1546 16.479C56.1827 15.6721 56.4783 15.0294 57.0412 14.5508C57.6042 14.0629 58.3455 13.819 59.265 13.819C60.2784 13.819 61.09 14.1192 61.6999 14.7197C62.3098 15.3202 62.6522 16.1553 62.7273 17.225ZM61.5169 16.1272C61.3199 15.6486 61.029 15.2874 60.6443 15.0434C60.2502 14.7995 59.7951 14.6775 59.2791 14.6775C58.8193 14.6775 58.4299 14.7666 58.1109 14.9449C57.7825 15.1232 57.562 15.3578 57.4494 15.6486C57.6089 15.6299 57.8669 15.6205 58.2235 15.6205C58.8052 15.6205 59.3917 15.6674 59.9828 15.7612C60.5645 15.8457 61.0759 15.9676 61.5169 16.1272ZM71.7433 18.3931V26.5H70.4625C70.0872 26.1716 69.6603 25.876 69.1818 25.6133C68.7126 25.3412 68.2716 25.1395 67.8588 25.0081V25.0644C67.8588 25.5242 67.6993 25.9042 67.3802 26.2044C67.0612 26.4953 66.6624 26.6407 66.1839 26.6407C65.7054 26.6407 65.316 26.4953 65.0157 26.2044C64.7249 25.9136 64.5794 25.5382 64.5794 25.0785C64.5794 24.6281 64.7296 24.2622 65.0298 23.9807C65.3301 23.6898 65.7288 23.5444 66.2261 23.5444H66.2543V21.1376C66.1604 21.1658 66.0619 21.1799 65.9587 21.1799C65.5365 21.1799 65.1893 21.0438 64.9172 20.7717C64.6451 20.4902 64.5091 20.1337 64.5091 19.7021C64.5091 19.2798 64.6498 18.9327 64.9313 18.6606C65.2222 18.3884 65.5975 18.2524 66.0572 18.2524C66.5264 18.2524 66.9111 18.3978 67.2113 18.6887C67.5116 18.9702 67.6617 19.3361 67.6617 19.7865V23.7555C68.159 23.915 68.6469 24.112 69.1255 24.3466C69.604 24.5718 70.0121 24.8017 70.3499 25.0363V18.3931H71.7433ZM65.3254 19.7161C65.3254 19.9038 65.3864 20.0586 65.5083 20.1806C65.6303 20.3026 65.7851 20.3636 65.9728 20.3636C66.1604 20.3636 66.3153 20.3026 66.4372 20.1806C66.5686 20.0586 66.6343 19.9038 66.6343 19.7161C66.6343 19.5285 66.5686 19.3737 66.4372 19.2517C66.3153 19.1297 66.1604 19.0687 65.9728 19.0687C65.7851 19.0687 65.6303 19.1297 65.5083 19.2517C65.3864 19.3737 65.3254 19.5285 65.3254 19.7161ZM66.1276 25.7681C66.334 25.7681 66.4982 25.7071 66.6202 25.5852C66.7516 25.4538 66.8173 25.2896 66.8173 25.0926C66.8173 24.9049 66.7516 24.7501 66.6202 24.6281C66.4982 24.4967 66.334 24.4311 66.1276 24.4311C65.94 24.4311 65.7804 24.4967 65.6491 24.6281C65.5271 24.7501 65.4661 24.9049 65.4661 25.0926C65.4661 25.2896 65.5271 25.4538 65.6491 25.5852C65.7804 25.7071 65.94 25.7681 66.1276 25.7681ZM82.3654 18.3931V26.5H80.8313L78.7765 20.068L76.7216 26.5H75.1875V21.1376C75.0936 21.1658 74.9904 21.1799 74.8778 21.1799C74.4462 21.1799 74.0944 21.0438 73.8223 20.7717C73.5502 20.4902 73.4141 20.1337 73.4141 19.7021C73.4141 19.2798 73.5548 18.9327 73.8363 18.6606C74.1272 18.3884 74.5025 18.2524 74.9623 18.2524C75.4314 18.2524 75.8161 18.3978 76.1164 18.6887C76.4166 18.9702 76.5668 19.3361 76.5668 19.7865V23.277C76.5668 23.5115 76.5433 23.8962 76.4964 24.4311L76.792 23.2207L78.2416 18.4494H79.3254L80.7609 23.2207L81.0565 24.4311C81.0096 23.8962 80.9861 23.5115 80.9861 23.277V18.3931H82.3654ZM74.8778 20.3636C75.0749 20.3636 75.2297 20.3026 75.3423 20.1806C75.4643 20.0586 75.5253 19.9038 75.5253 19.7161C75.5253 19.5285 75.4643 19.3737 75.3423 19.2517C75.2297 19.1297 75.0749 19.0687 74.8778 19.0687C74.6902 19.0687 74.5354 19.1297 74.4134 19.2517C74.2914 19.3737 74.2304 19.5285 74.2304 19.7161C74.2304 19.9038 74.2914 20.0586 74.4134 20.1806C74.5354 20.3026 74.6902 20.3636 74.8778 20.3636ZM83.7466 12.7634C83.7466 13.1762 83.6246 13.4906 83.3807 13.7064C83.1367 13.9222 82.7426 14.1239 82.1984 14.3116L81.551 14.5227C81.8794 14.776 82.0436 15.1138 82.0436 15.536C82.0436 15.9114 81.9169 16.221 81.6636 16.4649C81.4103 16.7089 81.0912 16.8309 80.7065 16.8309C80.3125 16.8309 79.9934 16.7042 79.7495 16.4509C79.5055 16.1975 79.3835 15.8691 79.3835 15.4657C79.3835 15.081 79.4961 14.7713 79.7213 14.5367C79.9465 14.3022 80.1764 14.138 80.411 14.0441C80.6362 13.9503 81.0396 13.8096 81.6214 13.6219C81.9685 13.5093 82.2266 13.3967 82.3955 13.2841C82.5644 13.1715 82.6535 12.9979 82.6629 12.7634H83.7466ZM80.7628 16.1131C80.913 16.1131 81.0396 16.0615 81.1428 15.9583C81.2367 15.8551 81.2836 15.7237 81.2836 15.5642C81.2836 15.4047 81.2367 15.2733 81.1428 15.1701C81.0396 15.0669 80.913 15.0153 80.7628 15.0153C80.6033 15.0153 80.4767 15.0669 80.3828 15.1701C80.2796 15.2733 80.228 15.4047 80.228 15.5642C80.228 15.7237 80.2796 15.8551 80.3828 15.9583C80.4767 16.0615 80.6033 16.1131 80.7628 16.1131ZM86.9076 23.7133C87.3393 23.7133 87.6864 23.854 87.9492 24.1355C88.2213 24.4076 88.3573 24.7595 88.3573 25.1911C88.3573 25.6133 88.2119 25.9605 87.921 26.2326C87.6395 26.5047 87.2689 26.6407 86.8091 26.6407C86.34 26.6407 85.9553 26.5 85.655 26.2185C85.3642 25.9276 85.2187 25.5523 85.2187 25.0926V18.3931H86.6121V23.7555C86.7153 23.7273 86.8138 23.7133 86.9076 23.7133ZM86.8936 25.8244C87.0906 25.8244 87.2454 25.7634 87.358 25.6415C87.48 25.5195 87.541 25.3647 87.541 25.177C87.541 24.9893 87.48 24.8345 87.358 24.7125C87.2454 24.5906 87.0906 24.5296 86.8936 24.5296C86.7059 24.5296 86.5511 24.5906 86.4291 24.7125C86.3071 24.8345 86.2461 24.9893 86.2461 25.177C86.2461 25.3647 86.3071 25.5195 86.4291 25.6415C86.5511 25.7634 86.7059 25.8244 86.8936 25.8244ZM93.0441 18.2524C93.7009 18.2524 94.278 18.3556 94.7753 18.562C95.2726 18.7591 95.6526 19.0453 95.9153 19.4206C96.1874 19.7865 96.3234 20.2134 96.3234 20.7013V24.6C96.3234 25.2474 96.056 25.7494 95.5212 26.1059C94.9864 26.4625 94.2451 26.6407 93.2974 26.6407C92.3498 26.6407 91.6132 26.4625 91.0878 26.1059C90.5623 25.74 90.2996 25.238 90.2996 24.6V22.4888C90.2996 22.0384 90.445 21.6725 90.7359 21.391C91.0268 21.1095 91.4068 20.9688 91.8759 20.9688C92.3357 20.9688 92.7063 21.1048 92.9878 21.3769C93.2693 21.6396 93.41 21.9868 93.41 22.4184C93.41 22.8407 93.274 23.1878 93.0019 23.4599C92.7392 23.7226 92.3967 23.854 91.9745 23.854C91.89 23.854 91.7915 23.8446 91.6789 23.8259V24.5014C91.6789 24.8298 91.8243 25.0832 92.1152 25.2615C92.4155 25.4397 92.8236 25.5289 93.3397 25.5289C93.8557 25.5289 94.2498 25.435 94.5219 25.2474C94.794 25.0503 94.9301 24.7782 94.9301 24.4311V20.7295C94.9301 20.3166 94.7565 19.9882 94.4093 19.7443C94.0622 19.4909 93.5977 19.3643 93.016 19.3643C92.453 19.3643 91.9791 19.4816 91.5944 19.7161C91.2097 19.9413 90.9799 20.251 90.9048 20.645H89.5537C89.6193 19.9132 89.9712 19.3314 90.6092 18.8998C91.2473 18.4682 92.0589 18.2524 93.0441 18.2524ZM91.9604 21.771C91.7727 21.771 91.6179 21.832 91.4959 21.954C91.3739 22.0666 91.313 22.2167 91.313 22.4043C91.313 22.592 91.3739 22.7468 91.4959 22.8688C91.6179 22.9908 91.7727 23.0518 91.9604 23.0518C92.148 23.0518 92.3029 22.9908 92.4248 22.8688C92.5468 22.7468 92.6078 22.592 92.6078 22.4043C92.6078 22.2167 92.5468 22.0666 92.4248 21.954C92.3029 21.832 92.148 21.771 91.9604 21.771ZM98.7494 23.0518C98.7494 22.7046 98.8386 22.395 99.0168 22.1229C99.2045 21.8414 99.4531 21.6303 99.7628 21.4895C99.3875 21.3675 98.8949 21.2831 98.285 21.2362C98.3131 20.645 98.4726 20.1243 98.7635 19.6739C99.0638 19.2235 99.4719 18.8764 99.988 18.6324C100.504 18.3791 101.095 18.2524 101.761 18.2524C102.39 18.2524 102.944 18.3697 103.422 18.6043C103.901 18.8388 104.271 19.1719 104.534 19.6035C104.806 20.0352 104.942 20.5371 104.942 21.1095V26.5H103.535V21.2502C103.535 20.6779 103.361 20.2228 103.014 19.885C102.676 19.5379 102.221 19.3643 101.649 19.3643C101.17 19.3643 100.743 19.4722 100.368 19.688C100.002 19.9038 99.7487 20.1947 99.608 20.5606C99.9364 20.6075 100.246 20.692 100.537 20.8139C100.837 20.9359 101.076 21.072 101.255 21.2221V21.5599C100.908 21.6725 100.635 21.8554 100.438 22.1088C100.251 22.3527 100.157 22.6483 100.157 22.9955V26.5H98.7494V23.0518ZM114 17.605C113.925 18.0929 113.601 18.6277 113.029 19.2095C113.404 19.6129 113.592 20.1102 113.592 20.7013V26.5H112.213V23.3755C112.213 22.972 112.025 22.6577 111.65 22.4325C111.284 22.1979 110.862 22.0806 110.383 22.0806C109.905 22.0806 109.506 22.1932 109.187 22.4184C108.868 22.6436 108.708 22.9486 108.708 23.3333V23.7555C108.802 23.7273 108.901 23.7133 109.004 23.7133C109.435 23.7133 109.783 23.8493 110.045 24.1214C110.317 24.3935 110.453 24.7501 110.453 25.1911C110.453 25.6133 110.308 25.9605 110.017 26.2326C109.736 26.5047 109.365 26.6407 108.905 26.6407C108.436 26.6407 108.051 26.5 107.751 26.2185C107.46 25.9276 107.315 25.5523 107.315 25.0926V23.3333C107.315 22.7515 107.507 22.2683 107.892 21.8836C108.286 21.4895 108.802 21.2315 109.44 21.1095C110.172 20.5841 110.787 20.0539 111.284 19.5191C110.993 19.4159 110.655 19.3643 110.27 19.3643C109.698 19.3643 109.22 19.4816 108.835 19.7161C108.45 19.9413 108.22 20.251 108.145 20.645H106.794C106.85 19.9132 107.188 19.3314 107.807 18.8998C108.436 18.4682 109.257 18.2524 110.27 18.2524C110.927 18.2524 111.523 18.3556 112.058 18.562C112.264 18.2242 112.391 17.9052 112.438 17.605H114ZM112.213 20.6591C112.213 20.4527 112.161 20.2603 112.058 20.0821C111.72 20.3636 111.26 20.692 110.679 21.0673C111.317 21.1517 111.828 21.3769 112.213 21.7428V20.6591ZM109.637 25.177C109.637 24.9893 109.576 24.8345 109.454 24.7125C109.342 24.5906 109.191 24.5296 109.004 24.5296C108.807 24.5296 108.647 24.5906 108.525 24.7125C108.403 24.8345 108.342 24.9893 108.342 25.177C108.342 25.3647 108.403 25.5195 108.525 25.6415C108.647 25.7634 108.807 25.8244 109.004 25.8244C109.191 25.8244 109.342 25.7634 109.454 25.6415C109.576 25.5195 109.637 25.3647 109.637 25.177ZM119.552 20.5887C119.552 20.204 119.43 19.9038 119.186 19.688C118.942 19.4722 118.605 19.3643 118.173 19.3643C117.723 19.3643 117.361 19.4956 117.089 19.7584C116.827 20.0117 116.695 20.3589 116.695 20.7999H115.344C115.344 20.0023 115.597 19.3783 116.104 18.928C116.611 18.4776 117.3 18.2524 118.173 18.2524C119.036 18.2524 119.712 18.4541 120.2 18.8576C120.697 19.2611 120.946 19.8193 120.946 20.5324V26.5H119.552V20.5887ZM125.122 19.3643C124.897 19.3643 124.7 19.4346 124.531 19.5754C124.362 19.7068 124.268 19.8944 124.249 20.1384C125.338 20.2603 126.239 20.4855 126.952 20.8139C127.665 21.1423 128.021 21.5505 128.021 22.0384V25.0926C128.021 25.5523 127.871 25.9276 127.571 26.2185C127.271 26.5 126.886 26.6407 126.417 26.6407C125.957 26.6407 125.582 26.5047 125.291 26.2326C125.009 25.9605 124.869 25.6133 124.869 25.1911C124.869 24.7501 125 24.3935 125.263 24.1214C125.535 23.8493 125.887 23.7133 126.318 23.7133C126.412 23.7133 126.511 23.7273 126.614 23.7555V22.2355C126.614 21.9633 126.253 21.7194 125.53 21.5036C124.808 21.2878 123.888 21.1189 122.772 20.9969C122.781 20.1243 122.973 19.4487 123.349 18.9702C123.733 18.4917 124.254 18.2524 124.911 18.2524C125.155 18.2524 125.385 18.2759 125.601 18.3228C125.826 18.3697 126.089 18.4401 126.389 18.5339C126.436 18.5433 126.548 18.5761 126.727 18.6324C126.905 18.6793 127.055 18.7028 127.177 18.7028C127.299 18.7028 127.411 18.6559 127.515 18.562C127.618 18.4682 127.688 18.3462 127.726 18.1961L128.739 18.4917C128.617 18.9233 128.439 19.2564 128.204 19.4909C127.97 19.7161 127.698 19.8287 127.388 19.8287C127.247 19.8287 127.078 19.8053 126.881 19.7584C126.694 19.7114 126.501 19.6598 126.304 19.6035C126.098 19.5472 125.887 19.4956 125.671 19.4487C125.455 19.3924 125.272 19.3643 125.122 19.3643ZM126.332 25.8244C126.52 25.8244 126.675 25.7634 126.797 25.6415C126.919 25.5195 126.98 25.3647 126.98 25.177C126.98 24.9893 126.919 24.8345 126.797 24.7125C126.675 24.5906 126.52 24.5296 126.332 24.5296C126.135 24.5296 125.976 24.5906 125.854 24.7125C125.741 24.8345 125.685 24.9893 125.685 25.177C125.685 25.3647 125.741 25.5195 125.854 25.6415C125.976 25.7634 126.135 25.8244 126.332 25.8244Z" fill="white"/>
</svg>
