<svg width="113" height="51" viewBox="0 0 113 51" fill="none" xmlns="http://www.w3.org/2000/svg">
<g filter="url(#filter0_d_155_27383)">
<rect x="4.02148" width="104" height="42" rx="8.04252" fill="#565DFF"/>
<path d="M45.1424 18.3931V24.7125C45.1424 25.3131 44.8703 25.7869 44.3261 26.1341C43.7913 26.4719 43.05 26.6407 42.1023 26.6407C41.1547 26.6407 40.4087 26.4719 39.8645 26.1341C39.3297 25.7869 39.0623 25.3131 39.0623 24.7125V21.1376C38.9684 21.1658 38.8699 21.1799 38.7667 21.1799C38.3351 21.1799 37.9832 21.0438 37.7111 20.7717C37.439 20.4902 37.303 20.1337 37.303 19.7021C37.303 19.2798 37.4437 18.9327 37.7252 18.6606C38.0161 18.3884 38.3914 18.2524 38.8512 18.2524C39.3203 18.2524 39.705 18.3978 40.0053 18.6887C40.3055 18.9702 40.4556 19.3361 40.4556 19.7865V24.5437C40.4556 24.8439 40.6011 25.0832 40.8919 25.2615C41.1828 25.4397 41.5863 25.5289 42.1023 25.5289C42.609 25.5289 43.0078 25.4397 43.2987 25.2615C43.5895 25.0832 43.735 24.8439 43.735 24.5437V18.3931H45.1424ZM38.7667 20.3636C38.9638 20.3636 39.1186 20.3026 39.2312 20.1806C39.3531 20.0586 39.4141 19.9038 39.4141 19.7161C39.4141 19.5285 39.3531 19.3737 39.2312 19.2517C39.1186 19.1297 38.9638 19.0687 38.7667 19.0687C38.5791 19.0687 38.4242 19.1297 38.3023 19.2517C38.1803 19.3737 38.1193 19.5285 38.1193 19.7161C38.1193 19.9038 38.1803 20.0586 38.3023 20.1806C38.4242 20.3026 38.5791 20.3636 38.7667 20.3636ZM47.6478 13.5234C47.6478 14.2177 47.4883 14.8276 47.1693 15.3531C46.8596 15.8691 46.4327 16.2679 45.8885 16.5494C45.3349 16.8309 44.7109 16.9716 44.0166 16.9716C43.4536 16.9716 42.961 16.8919 42.5388 16.7324C42.1165 16.5635 41.7928 16.3383 41.5676 16.0568C41.3425 15.7659 41.2299 15.4375 41.2299 15.0716C41.2299 14.6587 41.3659 14.3256 41.638 14.0723C41.9101 13.8096 42.2573 13.6782 42.6795 13.6782C43.1018 13.6782 43.4489 13.8096 43.721 14.0723C43.9838 14.3256 44.1151 14.6634 44.1151 15.0857C44.1151 15.4985 43.9884 15.8316 43.7351 16.0849C43.782 16.0943 43.8618 16.099 43.9744 16.099C44.7532 16.099 45.363 15.8597 45.804 15.3812C46.245 14.8933 46.4702 14.274 46.4796 13.5234H47.6478ZM42.018 15.0575C42.018 15.2358 42.0837 15.3859 42.2151 15.5079C42.337 15.6299 42.4919 15.6909 42.6795 15.6909C42.8578 15.6909 43.0079 15.6299 43.1299 15.5079C43.2519 15.3859 43.3129 15.2358 43.3129 15.0575C43.3129 14.8698 43.2519 14.7197 43.1299 14.6071C43.0079 14.4851 42.8578 14.4242 42.6795 14.4242C42.4919 14.4242 42.337 14.4851 42.2151 14.6071C42.0837 14.7291 42.018 14.8792 42.018 15.0575ZM54.3837 23.8118C54.6746 23.9244 54.9045 24.0933 55.0734 24.3185C55.2423 24.5437 55.3267 24.8017 55.3267 25.0926C55.3267 25.5523 55.1813 25.9276 54.8904 26.2185C54.6089 26.5 54.2383 26.6407 53.7785 26.6407C53.3375 26.6407 52.9763 26.5 52.6948 26.2185C52.4133 25.937 52.2726 25.5711 52.2726 25.1207V25.1066C51.8973 25.2568 51.536 25.4585 51.1888 25.7118C50.8511 25.9558 50.5789 26.2185 50.3725 26.5H48.9792V21.1376C48.8853 21.1658 48.7868 21.1799 48.6836 21.1799C48.252 21.1799 47.9001 21.0438 47.628 20.7717C47.3559 20.4902 47.2199 20.1337 47.2199 19.7021C47.2199 19.2798 47.3606 18.9327 47.6421 18.6606C47.933 18.3884 48.3083 18.2524 48.768 18.2524C49.2372 18.2524 49.6219 18.3978 49.9221 18.6887C50.2224 18.9702 50.3725 19.3361 50.3725 19.7865V25.1066C50.5039 24.9565 50.6962 24.8064 50.9496 24.6563C51.2029 24.4967 51.5219 24.3278 51.9066 24.1496C52.3476 23.9338 52.6807 23.7461 52.9059 23.5866C53.1405 23.4271 53.3047 23.2676 53.3985 23.1081C53.4924 22.9392 53.5393 22.7327 53.5393 22.4888V18.3931H54.9326V22.5029C54.9326 22.7937 54.8857 23.0565 54.7919 23.291C54.6981 23.5162 54.562 23.6898 54.3837 23.8118ZM48.6836 20.3636C48.8806 20.3636 49.0355 20.3026 49.1481 20.1806C49.27 20.0586 49.331 19.9038 49.331 19.7161C49.331 19.5285 49.27 19.3737 49.1481 19.2517C49.0355 19.1297 48.8806 19.0687 48.6836 19.0687C48.4959 19.0687 48.3411 19.1297 48.2191 19.2517C48.0972 19.3737 48.0362 19.5285 48.0362 19.7161C48.0362 19.9038 48.0972 20.0586 48.2191 20.1806C48.3411 20.3026 48.4959 20.3636 48.6836 20.3636ZM53.7785 25.8244C53.9756 25.8244 54.1351 25.7634 54.2571 25.6415C54.379 25.5195 54.44 25.3647 54.44 25.177C54.44 24.9893 54.379 24.8345 54.2571 24.7125C54.1351 24.5906 53.9756 24.5296 53.7785 24.5296C53.5909 24.5296 53.4361 24.5906 53.3141 24.7125C53.2015 24.8345 53.1452 24.9893 53.1452 25.177C53.1452 25.3647 53.2015 25.5195 53.3141 25.6415C53.4361 25.7634 53.5909 25.8244 53.7785 25.8244ZM63.1126 18.2524C64.1823 18.2524 64.7171 18.8435 64.7171 20.0258V26.5H63.3097V20.0398C63.3097 19.6176 63.1736 19.4065 62.9015 19.4065C62.6763 19.4065 62.5168 19.5332 62.423 19.7865L59.8474 26.5H58.3977V21.1376C58.3039 21.1658 58.2054 21.1799 58.1021 21.1799C57.6705 21.1799 57.3187 21.0438 57.0466 20.7717C56.7745 20.4902 56.6384 20.1337 56.6384 19.7021C56.6384 19.2798 56.7791 18.9327 57.0606 18.6606C57.3515 18.3884 57.7268 18.2524 58.1866 18.2524C58.6557 18.2524 59.0404 18.3978 59.3407 18.6887C59.6409 18.9702 59.7911 19.3361 59.7911 19.7865V23.3333C59.7911 23.6617 59.7723 23.9807 59.7348 24.2903C59.7066 24.5906 59.6879 24.7735 59.6785 24.8392L60.1007 23.1503L61.3815 19.5613C61.6911 18.6887 62.2682 18.2524 63.1126 18.2524ZM58.1021 20.3636C58.2992 20.3636 58.454 20.3026 58.5666 20.1806C58.6886 20.0586 58.7496 19.9038 58.7496 19.7161C58.7496 19.5285 58.6886 19.3737 58.5666 19.2517C58.454 19.1297 58.2992 19.0687 58.1021 19.0687C57.9145 19.0687 57.7597 19.1297 57.6377 19.2517C57.5157 19.3737 57.4547 19.5285 57.4547 19.7161C57.4547 19.9038 57.5157 20.0586 57.6377 20.1806C57.7597 20.3026 57.9145 20.3636 58.1021 20.3636ZM65.5875 14.2412C65.5875 14.5508 65.4937 14.8135 65.3061 15.0294C65.1184 15.2358 64.8698 15.3531 64.5601 15.3812C64.851 15.8785 65.0246 16.4931 65.0809 17.225C64.4241 16.9622 63.6265 16.7558 62.6882 16.6057C61.7499 16.4462 60.8492 16.3664 59.9859 16.3664C59.4511 16.3664 58.9585 16.404 58.5081 16.479C58.5363 15.6721 58.8318 15.0294 59.3948 14.5508C59.9578 14.0629 60.699 13.819 61.6186 13.819C62.2097 13.819 62.7445 13.9269 63.223 14.1427C63.2418 13.833 63.3591 13.5797 63.5749 13.3826C63.7907 13.1856 64.0675 13.0871 64.4053 13.0871C64.7525 13.0871 65.0386 13.195 65.2638 13.4108C65.4796 13.6266 65.5875 13.9034 65.5875 14.2412ZM64.4053 14.7479C64.5554 14.7479 64.6774 14.701 64.7712 14.6071C64.8651 14.5133 64.912 14.3913 64.912 14.2412C64.912 14.0911 64.8651 13.9691 64.7712 13.8753C64.6774 13.772 64.5554 13.7204 64.4053 13.7204C64.2552 13.7204 64.1332 13.772 64.0394 13.8753C63.9455 13.9691 63.8986 14.0911 63.8986 14.2412C63.8986 14.3913 63.9455 14.5133 64.0394 14.6071C64.1332 14.701 64.2552 14.7479 64.4053 14.7479ZM60.5771 15.6205C61.1588 15.6205 61.7452 15.6674 62.3364 15.7612C62.9181 15.8457 63.4295 15.9676 63.8705 16.1272C63.6734 15.6486 63.3826 15.2874 62.9979 15.0434C62.6038 14.7995 62.1487 14.6775 61.6326 14.6775C61.1729 14.6775 60.7835 14.7666 60.4645 14.9449C60.1361 15.1232 59.9156 15.3578 59.803 15.6486C59.9625 15.6299 60.2205 15.6205 60.5771 15.6205ZM67.5349 23.0518C67.5349 22.7046 67.624 22.395 67.8023 22.1229C67.99 21.8414 68.2386 21.6303 68.5482 21.4895C68.1729 21.3675 67.6803 21.2831 67.0704 21.2362C67.0986 20.645 67.2581 20.1243 67.549 19.6739C67.8492 19.2235 68.2574 18.8764 68.7734 18.6324C69.2895 18.3791 69.8806 18.2524 70.5468 18.2524C71.1755 18.2524 71.7291 18.3697 72.2076 18.6043C72.6861 18.8388 73.0567 19.1719 73.3195 19.6035C73.5916 20.0352 73.7276 20.5371 73.7276 21.1095V26.5H72.3202V21.2502C72.3202 20.6779 72.1466 20.2228 71.7994 19.885C71.4616 19.5379 71.0066 19.3643 70.4342 19.3643C69.9557 19.3643 69.5288 19.4722 69.1534 19.688C68.7875 19.9038 68.5342 20.1947 68.3934 20.5606C68.7218 20.6075 69.0315 20.692 69.3223 20.8139C69.6226 20.9359 69.8619 21.072 70.0401 21.2221V21.5599C69.693 21.6725 69.4209 21.8554 69.2238 22.1088C69.0362 22.3527 68.9423 22.6483 68.9423 22.9955V26.5H67.5349V23.0518Z" fill="white"/>
</g>
<defs>
<filter id="filter0_d_155_27383" x="0.000223637" y="0" width="112.043" height="50.0425" filterUnits="userSpaceOnUse" color-interpolation-filters="sRGB">
<feFlood flood-opacity="0" result="BackgroundImageFix"/>
<feColorMatrix in="SourceAlpha" type="matrix" values="0 0 0 0 0 0 0 0 0 0 0 0 0 0 0 0 0 0 127 0" result="hardAlpha"/>
<feMorphology radius="4.02126" operator="erode" in="SourceAlpha" result="effect1_dropShadow_155_27383"/>
<feOffset dy="4.02126"/>
<feGaussianBlur stdDeviation="4.02126"/>
<feColorMatrix type="matrix" values="0 0 0 0 0.298039 0 0 0 0 0.305882 0 0 0 0 0.392157 0 0 0 0.42 0"/>
<feBlend mode="normal" in2="BackgroundImageFix" result="effect1_dropShadow_155_27383"/>
<feBlend mode="normal" in="SourceGraphic" in2="effect1_dropShadow_155_27383" result="shape"/>
</filter>
</defs>
</svg>
