<svg width="113" height="51" viewBox="0 0 113 51" fill="none" xmlns="http://www.w3.org/2000/svg">
<g filter="url(#filter0_d_155_27302)">
<g clip-path="url(#clip0_155_27302)">
<rect x="4.02148" width="104" height="42" rx="8.04252" fill="#FF6B00"/>
<path d="M34.1424 18.3931V24.7125C34.1424 25.3131 33.8703 25.7869 33.3261 26.1341C32.7913 26.4719 32.05 26.6407 31.1023 26.6407C30.1547 26.6407 29.4087 26.4719 28.8645 26.1341C28.3297 25.7869 28.0623 25.3131 28.0623 24.7125V21.1376C27.9684 21.1658 27.8699 21.1799 27.7667 21.1799C27.3351 21.1799 26.9832 21.0438 26.7111 20.7717C26.439 20.4902 26.303 20.1337 26.303 19.7021C26.303 19.2798 26.4437 18.9327 26.7252 18.6606C27.0161 18.3884 27.3914 18.2524 27.8512 18.2524C28.3203 18.2524 28.705 18.3978 29.0053 18.6887C29.3055 18.9702 29.4556 19.3361 29.4556 19.7865V24.5437C29.4556 24.8439 29.6011 25.0832 29.8919 25.2615C30.1828 25.4397 30.5863 25.5289 31.1023 25.5289C31.609 25.5289 32.0078 25.4397 32.2987 25.2615C32.5895 25.0832 32.735 24.8439 32.735 24.5437V18.3931H34.1424ZM27.7667 20.3636C27.9638 20.3636 28.1186 20.3026 28.2312 20.1806C28.3531 20.0586 28.4141 19.9038 28.4141 19.7161C28.4141 19.5285 28.3531 19.3737 28.2312 19.2517C28.1186 19.1297 27.9638 19.0687 27.7667 19.0687C27.5791 19.0687 27.4242 19.1297 27.3023 19.2517C27.1803 19.3737 27.1193 19.5285 27.1193 19.7161C27.1193 19.9038 27.1803 20.0586 27.3023 20.1806C27.4242 20.3026 27.5791 20.3636 27.7667 20.3636ZM36.6478 13.5234C36.6478 14.2177 36.4883 14.8276 36.1693 15.3531C35.8596 15.8691 35.4327 16.2679 34.8885 16.5494C34.3349 16.8309 33.7109 16.9716 33.0166 16.9716C32.4536 16.9716 31.961 16.8919 31.5388 16.7324C31.1165 16.5635 30.7928 16.3383 30.5676 16.0568C30.3425 15.7659 30.2299 15.4375 30.2299 15.0716C30.2299 14.6587 30.3659 14.3256 30.638 14.0723C30.9101 13.8096 31.2573 13.6782 31.6795 13.6782C32.1018 13.6782 32.4489 13.8096 32.721 14.0723C32.9838 14.3256 33.1151 14.6634 33.1151 15.0857C33.1151 15.4985 32.9884 15.8316 32.7351 16.0849C32.782 16.0943 32.8618 16.099 32.9744 16.099C33.7532 16.099 34.363 15.8597 34.804 15.3812C35.245 14.8933 35.4702 14.274 35.4796 13.5234H36.6478ZM31.018 15.0575C31.018 15.2358 31.0837 15.3859 31.2151 15.5079C31.337 15.6299 31.4919 15.6909 31.6795 15.6909C31.8578 15.6909 32.0079 15.6299 32.1299 15.5079C32.2519 15.3859 32.3129 15.2358 32.3129 15.0575C32.3129 14.8698 32.2519 14.7197 32.1299 14.6071C32.0079 14.4851 31.8578 14.4242 31.6795 14.4242C31.4919 14.4242 31.337 14.4851 31.2151 14.6071C31.0837 14.7291 31.018 14.8792 31.018 15.0575ZM43.3837 23.8118C43.6746 23.9244 43.9045 24.0933 44.0734 24.3185C44.2423 24.5437 44.3267 24.8017 44.3267 25.0926C44.3267 25.5523 44.1813 25.9276 43.8904 26.2185C43.6089 26.5 43.2383 26.6407 42.7785 26.6407C42.3375 26.6407 41.9763 26.5 41.6948 26.2185C41.4133 25.937 41.2726 25.5711 41.2726 25.1207V25.1066C40.8973 25.2568 40.536 25.4585 40.1888 25.7118C39.8511 25.9558 39.5789 26.2185 39.3725 26.5H37.9792V21.1376C37.8853 21.1658 37.7868 21.1799 37.6836 21.1799C37.252 21.1799 36.9001 21.0438 36.628 20.7717C36.3559 20.4902 36.2199 20.1337 36.2199 19.7021C36.2199 19.2798 36.3606 18.9327 36.6421 18.6606C36.933 18.3884 37.3083 18.2524 37.768 18.2524C38.2372 18.2524 38.6219 18.3978 38.9221 18.6887C39.2224 18.9702 39.3725 19.3361 39.3725 19.7865V25.1066C39.5039 24.9565 39.6962 24.8064 39.9496 24.6563C40.2029 24.4967 40.5219 24.3278 40.9066 24.1496C41.3476 23.9338 41.6807 23.7461 41.9059 23.5866C42.1405 23.4271 42.3047 23.2676 42.3985 23.1081C42.4924 22.9392 42.5393 22.7327 42.5393 22.4888V18.3931H43.9326V22.5029C43.9326 22.7937 43.8857 23.0565 43.7919 23.291C43.6981 23.5162 43.562 23.6898 43.3837 23.8118ZM37.6836 20.3636C37.8806 20.3636 38.0355 20.3026 38.1481 20.1806C38.27 20.0586 38.331 19.9038 38.331 19.7161C38.331 19.5285 38.27 19.3737 38.1481 19.2517C38.0355 19.1297 37.8806 19.0687 37.6836 19.0687C37.4959 19.0687 37.3411 19.1297 37.2191 19.2517C37.0972 19.3737 37.0362 19.5285 37.0362 19.7161C37.0362 19.9038 37.0972 20.0586 37.2191 20.1806C37.3411 20.3026 37.4959 20.3636 37.6836 20.3636ZM42.7785 25.8244C42.9756 25.8244 43.1351 25.7634 43.2571 25.6415C43.379 25.5195 43.44 25.3647 43.44 25.177C43.44 24.9893 43.379 24.8345 43.2571 24.7125C43.1351 24.5906 42.9756 24.5296 42.7785 24.5296C42.5909 24.5296 42.4361 24.5906 42.3141 24.7125C42.2015 24.8345 42.1452 24.9893 42.1452 25.177C42.1452 25.3647 42.2015 25.5195 42.3141 25.6415C42.4361 25.7634 42.5909 25.8244 42.7785 25.8244ZM52.1126 18.2524C53.1823 18.2524 53.7171 18.8435 53.7171 20.0258V26.5H52.3097V20.0398C52.3097 19.6176 52.1736 19.4065 51.9015 19.4065C51.6763 19.4065 51.5168 19.5332 51.423 19.7865L48.8474 26.5H47.3977V21.1376C47.3039 21.1658 47.2054 21.1799 47.1021 21.1799C46.6705 21.1799 46.3187 21.0438 46.0466 20.7717C45.7745 20.4902 45.6384 20.1337 45.6384 19.7021C45.6384 19.2798 45.7791 18.9327 46.0606 18.6606C46.3515 18.3884 46.7268 18.2524 47.1866 18.2524C47.6557 18.2524 48.0404 18.3978 48.3407 18.6887C48.6409 18.9702 48.7911 19.3361 48.7911 19.7865V23.3333C48.7911 23.6617 48.7723 23.9807 48.7348 24.2903C48.7066 24.5906 48.6879 24.7735 48.6785 24.8392L49.1007 23.1503L50.3815 19.5613C50.6911 18.6887 51.2682 18.2524 52.1126 18.2524ZM47.1021 20.3636C47.2992 20.3636 47.454 20.3026 47.5666 20.1806C47.6886 20.0586 47.7496 19.9038 47.7496 19.7161C47.7496 19.5285 47.6886 19.3737 47.5666 19.2517C47.454 19.1297 47.2992 19.0687 47.1021 19.0687C46.9145 19.0687 46.7597 19.1297 46.6377 19.2517C46.5157 19.3737 46.4547 19.5285 46.4547 19.7161C46.4547 19.9038 46.5157 20.0586 46.6377 20.1806C46.7597 20.3026 46.9145 20.3636 47.1021 20.3636ZM54.5875 14.2412C54.5875 14.5508 54.4937 14.8135 54.3061 15.0294C54.1184 15.2358 53.8698 15.3531 53.5601 15.3812C53.851 15.8785 54.0246 16.4931 54.0809 17.225C53.4241 16.9622 52.6265 16.7558 51.6882 16.6057C50.7499 16.4462 49.8492 16.3664 48.9859 16.3664C48.4511 16.3664 47.9585 16.404 47.5081 16.479C47.5363 15.6721 47.8318 15.0294 48.3948 14.5508C48.9578 14.0629 49.699 13.819 50.6186 13.819C51.2097 13.819 51.7445 13.9269 52.223 14.1427C52.2418 13.833 52.3591 13.5797 52.5749 13.3826C52.7907 13.1856 53.0675 13.0871 53.4053 13.0871C53.7525 13.0871 54.0386 13.195 54.2638 13.4108C54.4796 13.6266 54.5875 13.9034 54.5875 14.2412ZM53.4053 14.7479C53.5554 14.7479 53.6774 14.701 53.7712 14.6071C53.8651 14.5133 53.912 14.3913 53.912 14.2412C53.912 14.0911 53.8651 13.9691 53.7712 13.8753C53.6774 13.772 53.5554 13.7204 53.4053 13.7204C53.2552 13.7204 53.1332 13.772 53.0394 13.8753C52.9455 13.9691 52.8986 14.0911 52.8986 14.2412C52.8986 14.3913 52.9455 14.5133 53.0394 14.6071C53.1332 14.701 53.2552 14.7479 53.4053 14.7479ZM49.5771 15.6205C50.1588 15.6205 50.7452 15.6674 51.3364 15.7612C51.9181 15.8457 52.4295 15.9676 52.8705 16.1272C52.6734 15.6486 52.3826 15.2874 51.9979 15.0434C51.6038 14.7995 51.1487 14.6775 50.6326 14.6775C50.1729 14.6775 49.7835 14.7666 49.4645 14.9449C49.1361 15.1232 48.9156 15.3578 48.803 15.6486C48.9625 15.6299 49.2205 15.6205 49.5771 15.6205ZM56.5349 23.0518C56.5349 22.7046 56.624 22.395 56.8023 22.1229C56.99 21.8414 57.2386 21.6303 57.5482 21.4895C57.1729 21.3675 56.6803 21.2831 56.0704 21.2362C56.0986 20.645 56.2581 20.1243 56.549 19.6739C56.8492 19.2235 57.2574 18.8764 57.7734 18.6324C58.2895 18.3791 58.8806 18.2524 59.5468 18.2524C60.1755 18.2524 60.7291 18.3697 61.2076 18.6043C61.6861 18.8388 62.0567 19.1719 62.3195 19.6035C62.5916 20.0352 62.7276 20.5371 62.7276 21.1095V26.5H61.3202V21.2502C61.3202 20.6779 61.1466 20.2228 60.7994 19.885C60.4616 19.5379 60.0066 19.3643 59.4342 19.3643C58.9557 19.3643 58.5288 19.4722 58.1534 19.688C57.7875 19.9038 57.5342 20.1947 57.3934 20.5606C57.7218 20.6075 58.0315 20.692 58.3223 20.8139C58.6226 20.9359 58.8619 21.072 59.0401 21.2221V21.5599C58.693 21.6725 58.4209 21.8554 58.2238 22.1088C58.0362 22.3527 57.9423 22.6483 57.9423 22.9955V26.5H56.5349V23.0518ZM66.9018 19.3643C66.6766 19.3643 66.4796 19.4346 66.3107 19.5754C66.1418 19.7068 66.048 19.8944 66.0292 20.1384C67.1176 20.2603 68.0184 20.4855 68.7315 20.8139C69.4446 21.1423 69.8011 21.5505 69.8011 22.0384V25.0926C69.8011 25.5523 69.651 25.9276 69.3508 26.2185C69.0505 26.5 68.6658 26.6407 68.1967 26.6407C67.7369 26.6407 67.3616 26.5047 67.0707 26.2326C66.7892 25.9605 66.6485 25.6133 66.6485 25.1911C66.6485 24.7501 66.7798 24.3935 67.0426 24.1214C67.3147 23.8493 67.6665 23.7133 68.0981 23.7133C68.192 23.7133 68.2905 23.7273 68.3937 23.7555V22.2355C68.3937 21.9633 68.0325 21.7194 67.31 21.5036C66.5875 21.2878 65.668 21.1189 64.5514 20.9969C64.5608 20.1243 64.7531 19.4487 65.1284 18.9702C65.5131 18.4917 66.0339 18.2524 66.6907 18.2524C66.9346 18.2524 67.1645 18.2759 67.3803 18.3228C67.6055 18.3697 67.8683 18.4401 68.1685 18.5339C68.2154 18.5433 68.328 18.5761 68.5063 18.6324C68.6846 18.6793 68.8347 18.7028 68.9567 18.7028C69.0787 18.7028 69.1912 18.6559 69.2945 18.562C69.3977 18.4682 69.468 18.3462 69.5056 18.1961L70.5189 18.4917C70.397 18.9233 70.2187 19.2564 69.9841 19.4909C69.7495 19.7161 69.4774 19.8287 69.1678 19.8287C69.027 19.8287 68.8582 19.8053 68.6611 19.7584C68.4735 19.7114 68.2811 19.6598 68.0841 19.6035C67.8776 19.5472 67.6665 19.4956 67.4507 19.4487C67.2349 19.3924 67.0519 19.3643 66.9018 19.3643ZM68.1122 25.8244C68.2999 25.8244 68.4547 25.7634 68.5767 25.6415C68.6986 25.5195 68.7596 25.3647 68.7596 25.177C68.7596 24.9893 68.6986 24.8345 68.5767 24.7125C68.4547 24.5906 68.2999 24.5296 68.1122 24.5296C67.9152 24.5296 67.7557 24.5906 67.6337 24.7125C67.5211 24.8345 67.4648 24.9893 67.4648 25.177C67.4648 25.3647 67.5211 25.5195 67.6337 25.6415C67.7557 25.7634 67.9152 25.8244 68.1122 25.8244ZM69.1771 13.7908H70.472V16.8309H69.1771V13.7908ZM76.3655 20.5887C76.3655 20.204 76.2435 19.9038 75.9995 19.688C75.7556 19.4722 75.4178 19.3643 74.9862 19.3643C74.5358 19.3643 74.1745 19.4956 73.9024 19.7584C73.6397 20.0117 73.5083 20.3589 73.5083 20.7999H72.1572C72.1572 20.0023 72.4105 19.3783 72.9172 18.928C73.4239 18.4776 74.1135 18.2524 74.9862 18.2524C75.8494 18.2524 76.525 18.4541 77.0129 18.8576C77.5102 19.2611 77.7588 19.8193 77.7588 20.5324V26.5H76.3655V20.5887ZM83.0752 18.2524C83.5444 18.2524 83.9291 18.3978 84.2293 18.6887C84.5296 18.9702 84.6797 19.3361 84.6797 19.7865V26.5H83.2863L79.4018 22.3058L80.1759 21.4895L83.2863 24.8533V21.1376C83.1925 21.1658 83.094 21.1799 82.9908 21.1799C82.5592 21.1799 82.2073 21.0438 81.9352 20.7717C81.6631 20.4902 81.527 20.1337 81.527 19.7021C81.527 19.2798 81.6678 18.9327 81.9493 18.6606C82.2401 18.3884 82.6155 18.2524 83.0752 18.2524ZM82.9908 20.3636C83.1878 20.3636 83.3426 20.3026 83.4552 20.1806C83.5772 20.0586 83.6382 19.9038 83.6382 19.7161C83.6382 19.5285 83.5772 19.3737 83.4552 19.2517C83.3426 19.1297 83.1878 19.0687 82.9908 19.0687C82.8031 19.0687 82.6483 19.1297 82.5263 19.2517C82.4043 19.3737 82.3434 19.5285 82.3434 19.7161C82.3434 19.9038 82.4043 20.0586 82.5263 20.1806C82.6483 20.3026 82.8031 20.3636 82.9908 20.3636Z" fill="white"/>
</g>
</g>
<defs>
<filter id="filter0_d_155_27302" x="0.000223637" y="0" width="112.043" height="50.0425" filterUnits="userSpaceOnUse" color-interpolation-filters="sRGB">
<feFlood flood-opacity="0" result="BackgroundImageFix"/>
<feColorMatrix in="SourceAlpha" type="matrix" values="0 0 0 0 0 0 0 0 0 0 0 0 0 0 0 0 0 0 127 0" result="hardAlpha"/>
<feMorphology radius="4.02126" operator="erode" in="SourceAlpha" result="effect1_dropShadow_155_27302"/>
<feOffset dy="4.02126"/>
<feGaussianBlur stdDeviation="4.02126"/>
<feColorMatrix type="matrix" values="0 0 0 0 0.298039 0 0 0 0 0.305882 0 0 0 0 0.392157 0 0 0 0.42 0"/>
<feBlend mode="normal" in2="BackgroundImageFix" result="effect1_dropShadow_155_27302"/>
<feBlend mode="normal" in="SourceGraphic" in2="effect1_dropShadow_155_27302" result="shape"/>
</filter>
<clipPath id="clip0_155_27302">
<rect x="4.02148" width="104" height="42" rx="8.04252" fill="white"/>
</clipPath>
</defs>
</svg>
