<svg width="120" height="42" viewBox="0 0 120 42" fill="none" xmlns="http://www.w3.org/2000/svg">
<rect width="120" height="42" rx="8" fill="#8A38F5"/>
<path d="M24.6706 17.605C24.5955 18.0929 24.2718 18.6277 23.6994 19.2095C24.0747 19.6129 24.2624 20.1102 24.2624 20.7013V26.5H22.8831V23.3755C22.8831 22.972 22.6954 22.6577 22.3201 22.4325C21.9542 22.1979 21.532 22.0806 21.0534 22.0806C20.5749 22.0806 20.1761 22.1932 19.8571 22.4184C19.5381 22.6436 19.3786 22.9486 19.3786 23.3333V23.7555C19.4724 23.7273 19.5709 23.7133 19.6741 23.7133C20.1058 23.7133 20.4529 23.8493 20.7156 24.1214C20.9878 24.3935 21.1238 24.7501 21.1238 25.1911C21.1238 25.6133 20.9784 25.9605 20.6875 26.2326C20.406 26.5047 20.0354 26.6407 19.5756 26.6407C19.1065 26.6407 18.7218 26.5 18.4215 26.2185C18.1306 25.9276 17.9852 25.5523 17.9852 25.0926V23.3333C17.9852 22.7515 18.1776 22.2683 18.5623 21.8836C18.9563 21.4895 19.4724 21.2315 20.1104 21.1095C20.8423 20.5841 21.4569 20.0539 21.9542 19.5191C21.6633 19.4159 21.3255 19.3643 20.9408 19.3643C20.3685 19.3643 19.8899 19.4816 19.5052 19.7161C19.1205 19.9413 18.8907 20.251 18.8156 20.645H17.4645C17.5208 19.9132 17.8585 19.3314 18.4778 18.8998C19.1065 18.4682 19.9275 18.2524 20.9408 18.2524C21.5976 18.2524 22.1935 18.3556 22.7283 18.562C22.9347 18.2242 23.0614 17.9052 23.1083 17.605H24.6706ZM22.8831 20.6591C22.8831 20.4527 22.8315 20.2603 22.7283 20.0821C22.3905 20.3636 21.9307 20.692 21.349 21.0673C21.987 21.1517 22.4984 21.3769 22.8831 21.7428V20.6591ZM20.3075 25.177C20.3075 24.9893 20.2465 24.8345 20.1245 24.7125C20.0119 24.5906 19.8618 24.5296 19.6741 24.5296C19.4771 24.5296 19.3176 24.5906 19.1956 24.7125C19.0736 24.8345 19.0126 24.9893 19.0126 25.177C19.0126 25.3647 19.0736 25.5195 19.1956 25.6415C19.3176 25.7634 19.4771 25.8244 19.6741 25.8244C19.8618 25.8244 20.0119 25.7634 20.1245 25.6415C20.2465 25.5195 20.3075 25.3647 20.3075 25.177ZM23.3403 13.7908H24.6352V16.8309H23.3403V13.7908ZM29.9915 18.2524C30.4606 18.2524 30.8453 18.3978 31.1456 18.6887C31.4458 18.9702 31.596 19.3361 31.596 19.7865V26.5H30.2026L26.3181 22.3058L27.0922 21.4895L30.2026 24.8533V21.1376C30.1088 21.1658 30.0102 21.1799 29.907 21.1799C29.4754 21.1799 29.1236 21.0438 28.8515 20.7717C28.5794 20.4902 28.4433 20.1337 28.4433 19.7021C28.4433 19.2798 28.584 18.9327 28.8655 18.6606C29.1564 18.3884 29.5317 18.2524 29.9915 18.2524ZM29.907 20.3636C30.1041 20.3636 30.2589 20.3026 30.3715 20.1806C30.4935 20.0586 30.5545 19.9038 30.5545 19.7161C30.5545 19.5285 30.4935 19.3737 30.3715 19.2517C30.2589 19.1297 30.1041 19.0687 29.907 19.0687C29.7194 19.0687 29.5646 19.1297 29.4426 19.2517C29.3206 19.3737 29.2596 19.5285 29.2596 19.7161C29.2596 19.9038 29.3206 20.0586 29.4426 20.1806C29.5646 20.3026 29.7194 20.3636 29.907 20.3636ZM35.7403 23.7133C36.172 23.7133 36.5191 23.854 36.7819 24.1355C37.054 24.4076 37.19 24.7595 37.19 25.1911C37.19 25.6133 37.0446 25.9605 36.7537 26.2326C36.4722 26.5047 36.1016 26.6407 35.6418 26.6407C35.1727 26.6407 34.788 26.5 34.4877 26.2185C34.1969 25.9276 34.0514 25.5523 34.0514 25.0926V18.3931H35.4448V23.7555C35.548 23.7273 35.6465 23.7133 35.7403 23.7133ZM35.7263 25.8244C35.9233 25.8244 36.0781 25.7634 36.1907 25.6415C36.3127 25.5195 36.3737 25.3647 36.3737 25.177C36.3737 24.9893 36.3127 24.8345 36.1907 24.7125C36.0781 24.5906 35.9233 24.5296 35.7263 24.5296C35.5386 24.5296 35.3838 24.5906 35.2618 24.7125C35.1398 24.8345 35.0788 24.9893 35.0788 25.177C35.0788 25.3647 35.1398 25.5195 35.2618 25.6415C35.3838 25.7634 35.5386 25.8244 35.7263 25.8244ZM41.8768 18.2524C42.5336 18.2524 43.1107 18.3556 43.608 18.562C44.1053 18.7591 44.4853 19.0453 44.748 19.4206C45.0201 19.7865 45.1561 20.2134 45.1561 20.7013V24.6C45.1561 25.2474 44.8887 25.7494 44.3539 26.1059C43.8191 26.4625 43.0778 26.6407 42.1301 26.6407C41.1825 26.6407 40.4459 26.4625 39.9205 26.1059C39.395 25.74 39.1323 25.238 39.1323 24.6V22.4888C39.1323 22.0384 39.2777 21.6725 39.5686 21.391C39.8595 21.1095 40.2395 20.9688 40.7086 20.9688C41.1684 20.9688 41.539 21.1048 41.8205 21.3769C42.102 21.6396 42.2427 21.9868 42.2427 22.4184C42.2427 22.8407 42.1067 23.1878 41.8346 23.4599C41.5719 23.7226 41.2294 23.854 40.8072 23.854C40.7227 23.854 40.6242 23.8446 40.5116 23.8259V24.5014C40.5116 24.8298 40.657 25.0832 40.9479 25.2615C41.2481 25.4397 41.6563 25.5289 42.1724 25.5289C42.6884 25.5289 43.0825 25.435 43.3546 25.2474C43.6267 25.0503 43.7628 24.7782 43.7628 24.4311V20.7295C43.7628 20.3166 43.5892 19.9882 43.242 19.7443C42.8949 19.4909 42.4304 19.3643 41.8487 19.3643C41.2857 19.3643 40.8118 19.4816 40.4271 19.7161C40.0424 19.9413 39.8126 20.251 39.7375 20.645H38.3864C38.452 19.9132 38.8039 19.3314 39.4419 18.8998C40.08 18.4682 40.8916 18.2524 41.8768 18.2524ZM40.7931 21.771C40.6054 21.771 40.4506 21.832 40.3286 21.954C40.2066 22.0666 40.1457 22.2167 40.1457 22.4043C40.1457 22.592 40.2066 22.7468 40.3286 22.8688C40.4506 22.9908 40.6054 23.0518 40.7931 23.0518C40.9807 23.0518 41.1356 22.9908 41.2575 22.8688C41.3795 22.7468 41.4405 22.592 41.4405 22.4043C41.4405 22.2167 41.3795 22.0666 41.2575 21.954C41.1356 21.832 40.9807 21.771 40.7931 21.771ZM47.5821 23.0518C47.5821 22.7046 47.6713 22.395 47.8495 22.1229C48.0372 21.8414 48.2858 21.6303 48.5955 21.4895C48.2202 21.3675 47.7276 21.2831 47.1177 21.2362C47.1458 20.645 47.3053 20.1243 47.5962 19.6739C47.8965 19.2235 48.3046 18.8764 48.8207 18.6324C49.3367 18.3791 49.9279 18.2524 50.5941 18.2524C51.2227 18.2524 51.7763 18.3697 52.2548 18.6043C52.7334 18.8388 53.104 19.1719 53.3667 19.6035C53.6388 20.0352 53.7749 20.5371 53.7749 21.1095V26.5H52.3674V21.2502C52.3674 20.6779 52.1938 20.2228 51.8467 19.885C51.5089 19.5379 51.0538 19.3643 50.4815 19.3643C50.0029 19.3643 49.576 19.4722 49.2007 19.688C48.8348 19.9038 48.5814 20.1947 48.4407 20.5606C48.7691 20.6075 49.0787 20.692 49.3696 20.8139C49.6698 20.9359 49.9091 21.072 50.0874 21.2221V21.5599C49.7402 21.6725 49.4681 21.8554 49.2711 22.1088C49.0834 22.3527 48.9896 22.6483 48.9896 22.9955V26.5H47.5821V23.0518ZM62.8329 17.605C62.7578 18.0929 62.4341 18.6277 61.8617 19.2095C62.237 19.6129 62.4247 20.1102 62.4247 20.7013V26.5H61.0454V23.3755C61.0454 22.972 60.8578 22.6577 60.4824 22.4325C60.1165 22.1979 59.6943 22.0806 59.2157 22.0806C58.7372 22.0806 58.3384 22.1932 58.0194 22.4184C57.7004 22.6436 57.5409 22.9486 57.5409 23.3333V23.7555C57.6347 23.7273 57.7332 23.7133 57.8365 23.7133C58.2681 23.7133 58.6152 23.8493 58.878 24.1214C59.1501 24.3935 59.2861 24.7501 59.2861 25.1911C59.2861 25.6133 59.1407 25.9605 58.8498 26.2326C58.5683 26.5047 58.1977 26.6407 57.7379 26.6407C57.2688 26.6407 56.8841 26.5 56.5838 26.2185C56.293 25.9276 56.1475 25.5523 56.1475 25.0926V23.3333C56.1475 22.7515 56.3399 22.2683 56.7246 21.8836C57.1187 21.4895 57.6347 21.2315 58.2728 21.1095C59.0046 20.5841 59.6192 20.0539 60.1165 19.5191C59.8256 19.4159 59.4878 19.3643 59.1031 19.3643C58.5308 19.3643 58.0523 19.4816 57.6676 19.7161C57.2829 19.9413 57.053 20.251 56.9779 20.645H55.6268C55.6831 19.9132 56.0209 19.3314 56.6401 18.8998C57.2688 18.4682 58.0898 18.2524 59.1031 18.2524C59.76 18.2524 60.3558 18.3556 60.8906 18.562C61.097 18.2242 61.2237 17.9052 61.2706 17.605H62.8329ZM61.0454 20.6591C61.0454 20.4527 60.9938 20.2603 60.8906 20.0821C60.5528 20.3636 60.093 20.692 59.5113 21.0673C60.1493 21.1517 60.6607 21.3769 61.0454 21.7428V20.6591ZM58.4698 25.177C58.4698 24.9893 58.4088 24.8345 58.2868 24.7125C58.1742 24.5906 58.0241 24.5296 57.8365 24.5296C57.6394 24.5296 57.4799 24.5906 57.3579 24.7125C57.2359 24.8345 57.175 24.9893 57.175 25.177C57.175 25.3647 57.2359 25.5195 57.3579 25.6415C57.4799 25.7634 57.6394 25.8244 57.8365 25.8244C58.0241 25.8244 58.1742 25.7634 58.2868 25.6415C58.4088 25.5195 58.4698 25.3647 58.4698 25.177ZM68.385 20.5887C68.385 20.204 68.263 19.9038 68.0191 19.688C67.7751 19.4722 67.4373 19.3643 67.0057 19.3643C66.5553 19.3643 66.1941 19.4956 65.922 19.7584C65.6593 20.0117 65.5279 20.3589 65.5279 20.7999H64.1768C64.1768 20.0023 64.4301 19.3783 64.9368 18.928C65.4435 18.4776 66.1331 18.2524 67.0057 18.2524C67.869 18.2524 68.5445 18.4541 69.0324 18.8576C69.5297 19.2611 69.7784 19.8193 69.7784 20.5324V26.5H68.385V20.5887ZM73.9548 19.3643C73.7296 19.3643 73.5325 19.4346 73.3636 19.5754C73.1947 19.7068 73.1009 19.8944 73.0821 20.1384C74.1706 20.2603 75.0713 20.4855 75.7844 20.8139C76.4975 21.1423 76.8541 21.5505 76.8541 22.0384V25.0926C76.8541 25.5523 76.704 25.9276 76.4037 26.2185C76.1035 26.5 75.7188 26.6407 75.2496 26.6407C74.7898 26.6407 74.4145 26.5047 74.1237 26.2326C73.8422 25.9605 73.7014 25.6133 73.7014 25.1911C73.7014 24.7501 73.8328 24.3935 74.0955 24.1214C74.3676 23.8493 74.7195 23.7133 75.1511 23.7133C75.2449 23.7133 75.3434 23.7273 75.4467 23.7555V22.2355C75.4467 21.9633 75.0854 21.7194 74.3629 21.5036C73.6404 21.2878 72.7209 21.1189 71.6043 20.9969C71.6137 20.1243 71.8061 19.4487 72.1814 18.9702C72.5661 18.4917 73.0868 18.2524 73.7436 18.2524C73.9876 18.2524 74.2175 18.2759 74.4333 18.3228C74.6585 18.3697 74.9212 18.4401 75.2215 18.5339C75.2684 18.5433 75.381 18.5761 75.5592 18.6324C75.7375 18.6793 75.8876 18.7028 76.0096 18.7028C76.1316 18.7028 76.2442 18.6559 76.3474 18.562C76.4506 18.4682 76.521 18.3462 76.5585 18.1961L77.5719 18.4917C77.4499 18.9233 77.2716 19.2564 77.0371 19.4909C76.8025 19.7161 76.5304 19.8287 76.2207 19.8287C76.08 19.8287 75.9111 19.8053 75.7141 19.7584C75.5264 19.7114 75.3341 19.6598 75.137 19.6035C74.9306 19.5472 74.7195 19.4956 74.5037 19.4487C74.2879 19.3924 74.1049 19.3643 73.9548 19.3643ZM75.1652 25.8244C75.3528 25.8244 75.5076 25.7634 75.6296 25.6415C75.7516 25.5195 75.8126 25.3647 75.8126 25.177C75.8126 24.9893 75.7516 24.8345 75.6296 24.7125C75.5076 24.5906 75.3528 24.5296 75.1652 24.5296C74.9681 24.5296 74.8086 24.5906 74.6866 24.7125C74.574 24.8345 74.5177 24.9893 74.5177 25.177C74.5177 25.3647 74.574 25.5195 74.6866 25.6415C74.8086 25.7634 74.9681 25.8244 75.1652 25.8244Z" fill="white"/>
<path d="M86 19L91 24L96 19H86Z" fill="white"/>
</svg>
