<svg width="40" height="40" viewBox="0 0 40 40" fill="none" xmlns="http://www.w3.org/2000/svg">
<rect width="40" height="40" rx="8" fill="#565DFF"/>
<rect width="40" height="40" rx="8" fill="white" fill-opacity="0.88"/>
<path d="M14.2221 12.601C14.6667 12.304 15.1334 12.0464 15.6171 11.8298C16.989 11.2154 17.6749 10.9082 18.5875 11.4994C19.5 12.0906 19.5 13.0604 19.5 15V16.5C19.5 18.3856 19.5 19.3284 20.0858 19.9142C20.6716 20.5 21.6144 20.5 23.5 20.5H25C26.9396 20.5 27.9094 20.5 28.5006 21.4125C29.0918 22.3251 28.7846 23.011 28.1702 24.3829C27.9536 24.8666 27.696 25.3334 27.399 25.7779C26.3551 27.3402 24.8714 28.5578 23.1355 29.2769C21.3996 29.9959 19.4895 30.184 17.6466 29.8175C15.8038 29.4509 14.1111 28.5461 12.7825 27.2175C11.4539 25.8889 10.5491 24.1962 10.1825 22.3534C9.81598 20.5105 10.0041 18.6004 10.7231 16.8645C11.4422 15.1286 12.6598 13.6449 14.2221 12.601Z" stroke="#565DFF" stroke-width="1.5"/>
<path d="M29.446 15.069C28.6342 13.0083 26.9917 11.3658 24.931 10.554C23.3895 9.94669 22 11.3432 22 13V17C22 17.5523 22.4477 18 23 18H27C28.6569 18 30.0533 16.6106 29.446 15.069Z" stroke="#565DFF" stroke-width="1.5"/>
</svg>
