<svg width="40" height="40" viewBox="0 0 40 40" fill="none" xmlns="http://www.w3.org/2000/svg">
<rect width="40" height="40" rx="8" fill="#565DFF"/>
<rect width="40" height="40" rx="8" fill="white" fill-opacity="0.88"/>
<path d="M21.4002 25.635H18.8902C17.2502 25.635 15.9202 24.2002 15.9202 22.4327C15.9202 22.0064 16.2602 21.6529 16.6702 21.6529C17.0802 21.6529 17.4202 22.0064 17.4202 22.4327C17.4202 23.3372 18.0802 24.0754 18.8902 24.0754H21.4002C22.0502 24.0754 22.5902 23.4724 22.5902 22.7446C22.5902 21.84 22.2802 21.6633 21.7702 21.4761L17.7402 19.9997C16.9602 19.719 15.9102 19.1159 15.9102 17.2548C15.9102 15.6536 17.1202 14.3644 18.6002 14.3644H21.1102C22.7502 14.3644 24.0802 15.7992 24.0802 17.5667C24.0802 17.993 23.7402 18.3465 23.3302 18.3465C22.9202 18.3465 22.5802 17.993 22.5802 17.5667C22.5802 16.6622 21.9202 15.924 21.1102 15.924H18.6002C17.9502 15.924 17.4102 16.527 17.4102 17.2548C17.4102 18.1594 17.7202 18.3361 18.2302 18.5233L22.2602 19.9997C23.0402 20.2804 24.0902 20.8835 24.0902 22.7446C24.0802 24.3353 22.8802 25.635 21.4002 25.635Z" fill="#565DFF"/>
<path d="M20 27.0182C19.59 27.0182 19.25 26.6647 19.25 26.2384V13.7617C19.25 13.3354 19.59 12.9819 20 12.9819C20.41 12.9819 20.75 13.3354 20.75 13.7617V26.2384C20.75 26.6647 20.41 27.0182 20 27.0182Z" fill="#565DFF"/>
<path d="M20.0002 31.177C14.0702 31.177 9.25024 26.1655 9.25024 19.9999C9.25024 13.8344 14.0702 8.82288 20.0002 8.82288C25.9302 8.82288 30.7502 13.8344 30.7502 19.9999C30.7502 26.1655 25.9302 31.177 20.0002 31.177ZM20.0002 10.3825C14.9002 10.3825 10.7502 14.6973 10.7502 19.9999C10.7502 25.3025 14.9002 29.6174 20.0002 29.6174C25.1002 29.6174 29.2502 25.3025 29.2502 19.9999C29.2502 14.6973 25.1002 10.3825 20.0002 10.3825Z" fill="#565DFF"/>
</svg>
