<svg width="40" height="40" viewBox="0 0 40 40" fill="none" xmlns="http://www.w3.org/2000/svg">
<rect width="40" height="40" rx="8" fill="#565DFF"/>
<rect width="40" height="40" rx="8" fill="white" fill-opacity="0.88"/>
<path d="M20 13.15L12 16.35V27H14V21C14 20.45 14.196 19.9794 14.588 19.588C14.98 19.1967 15.4507 19.0007 16 19H24C24.55 19 25.021 19.196 25.413 19.588C25.805 19.98 26.0007 20.4507 26 21V27H28V16.35L20 13.15ZM10 27V16.35C10 15.9334 10.1127 15.5584 10.338 15.225C10.5633 14.8917 10.8673 14.65 11.25 14.5L19.25 11.3C19.4833 11.2 19.7333 11.15 20 11.15C20.2667 11.15 20.5167 11.2 20.75 11.3L28.75 14.5C29.1333 14.65 29.4377 14.8917 29.663 15.225C29.8883 15.5584 30.0007 15.9334 30 16.35V27C30 27.55 29.8043 28.021 29.413 28.413C29.0217 28.805 28.5507 29.0007 28 29H24V21H16V29H12C11.45 29 10.9793 28.8044 10.588 28.413C10.1967 28.0217 10.0007 27.5507 10 27ZM17 29V27H19V29H17ZM19 26V24H21V26H19ZM21 29V27H23V29H21Z" fill="#565DFF"/>
</svg>
