<svg width="40" height="40" viewBox="0 0 40 40" fill="none" xmlns="http://www.w3.org/2000/svg">
<rect width="40" height="40" rx="8" fill="#565DFF"/>
<rect width="40" height="40" rx="8" fill="white" fill-opacity="0.88"/>
<path d="M20 10C18.9391 10 17.9217 10.4214 17.1716 11.1716C16.4214 11.9217 16 12.9391 16 14C16 15.0609 16.4214 16.0783 17.1716 16.8284C17.9217 17.5786 18.9391 18 20 18C21.0609 18 22.0783 17.5786 22.8284 16.8284C23.5786 16.0783 24 15.0609 24 14C24 12.9391 23.5786 11.9217 22.8284 11.1716C22.0783 10.4214 21.0609 10 20 10ZM18 14C18 13.4696 18.2107 12.9609 18.5858 12.5858C18.9609 12.2107 19.4696 12 20 12C20.5304 12 21.0391 12.2107 21.4142 12.5858C21.7893 12.9609 22 13.4696 22 14C22 14.5304 21.7893 15.0391 21.4142 15.4142C21.0391 15.7893 20.5304 16 20 16C19.4696 16 18.9609 15.7893 18.5858 15.4142C18.2107 15.0391 18 14.5304 18 14ZM25 20H15C14.2044 20 13.4413 20.3161 12.8787 20.8787C12.3161 21.4413 12 22.2044 12 23C12 25.232 12.918 27.02 14.424 28.23C15.906 29.42 17.894 30 20 30C22.106 30 24.094 29.42 25.576 28.23C27.08 27.02 28 25.232 28 23C28 22.2044 27.6839 21.4413 27.1213 20.8787C26.5587 20.3161 25.7956 20 25 20ZM15 22H25C25.2652 22 25.5196 22.1054 25.7071 22.2929C25.8946 22.4804 26 22.7348 26 23C26 24.634 25.35 25.846 24.324 26.67C23.272 27.514 21.76 28 20 28C18.24 28 16.728 27.514 15.676 26.67C14.65 25.846 14 24.634 14 23C14 22.7348 14.1054 22.4804 14.2929 22.2929C14.4804 22.1054 14.7348 22 15 22Z" fill="#565DFF"/>
</svg>
