<svg width="28" height="28" viewBox="0 0 28 28" fill="none" xmlns="http://www.w3.org/2000/svg">
<rect width="28" height="28" rx="14" fill="#E3E8F0"/>
<path d="M8.76465 16.9581V19.0698H10.9455L17.3781 12.8412L15.1973 10.7295L8.76465 16.9581ZM19.065 11.2078C19.1189 11.1557 19.1616 11.0938 19.1907 11.0257C19.2199 10.9576 19.2349 10.8846 19.2349 10.8109C19.2349 10.7371 19.2199 10.6641 19.1907 10.596C19.1616 10.5279 19.1189 10.466 19.065 10.4139L17.704 9.09613C17.6502 9.04398 17.5863 9.00261 17.516 8.97439C17.4456 8.94617 17.3702 8.93164 17.2941 8.93164C17.218 8.93164 17.1426 8.94617 17.0722 8.97439C17.0019 9.00261 16.938 9.04398 16.8842 9.09613L15.82 10.1265L18.0009 12.2382L19.065 11.2078Z" fill="#93A1B8"/>
</svg>
