<svg width="85" height="85" viewBox="0 0 85 85" fill="none" xmlns="http://www.w3.org/2000/svg">
<rect width="85" height="85" rx="42.5" fill="#00AF6C" fill-opacity="0.08"/>
<path fill-rule="evenodd" clip-rule="evenodd" d="M24.8431 28.8431C22.5 31.1863 22.5 34.9575 22.5 42.5C22.5 50.0425 22.5 53.8137 24.8431 56.1569C27.1863 58.5 30.9575 58.5 38.5 58.5H46.5C54.0425 58.5 57.8137 58.5 60.1569 56.1569C62.5 53.8137 62.5 50.0425 62.5 42.5C62.5 34.9575 62.5 31.1863 60.1569 28.8431C57.8137 26.5 54.0425 26.5 46.5 26.5H38.5C30.9575 26.5 27.1863 26.5 24.8431 28.8431ZM55.6523 33.5397C56.1827 34.1761 56.0967 35.122 55.4603 35.6523L51.0673 39.3131C49.2946 40.7905 47.8578 41.9878 46.5896 42.8034C45.2687 43.6531 43.9822 44.1898 42.5 44.1898C41.0178 44.1898 39.7313 43.6531 38.4104 42.8034C37.1422 41.9878 35.7054 40.7905 33.9327 39.3132L29.5397 35.6523C28.9033 35.122 28.8173 34.1761 29.3477 33.5397C29.878 32.9033 30.8239 32.8173 31.4603 33.3477L35.7781 36.9458C37.644 38.5008 38.9395 39.5768 40.0332 40.2803C41.0919 40.9612 41.8099 41.1897 42.5 41.1897C43.1901 41.1897 43.9081 40.9612 44.9668 40.2803C46.0605 39.5768 47.356 38.5008 49.2219 36.9458L53.5397 33.3477C54.1761 32.8173 55.122 32.9033 55.6523 33.5397Z" fill="#00AF6C"/>
</svg>
