<svg width="33" height="33" viewBox="0 0 33 33" fill="none" xmlns="http://www.w3.org/2000/svg">
<rect x="9" y="9" width="15" height="15" rx="7.5" fill="#565DFF"/>
<path d="M17.375 16.124V12.999C17.375 12.8333 17.3092 12.6743 17.1919 12.5571C17.0747 12.4399 16.9158 12.374 16.75 12.374C16.5842 12.374 16.4253 12.4399 16.3081 12.5571C16.1908 12.6743 16.125 12.8333 16.125 12.999V16.124H13C12.8342 16.124 12.6753 16.1899 12.5581 16.3071C12.4408 16.4243 12.375 16.5833 12.375 16.749C12.375 16.9148 12.4408 17.0738 12.5581 17.191C12.6753 17.3082 12.8342 17.374 13 17.374H16.125V20.499C16.125 20.6648 16.1908 20.8238 16.3081 20.941C16.4253 21.0582 16.5842 21.124 16.75 21.124C16.9158 21.124 17.0747 21.0582 17.1919 20.941C17.3092 20.8238 17.375 20.6648 17.375 20.499V17.374H20.5C20.6658 17.374 20.8247 17.3082 20.9419 17.191C21.0592 17.0738 21.125 16.9148 21.125 16.749C21.125 16.5833 21.0592 16.4243 20.9419 16.3071C20.8247 16.1899 20.6658 16.124 20.5 16.124H17.375Z" fill="white"/>
</svg>
