<svg width="17" height="17" viewBox="0 0 17 17" fill="none" xmlns="http://www.w3.org/2000/svg">
<path d="M4.95898 6.84738C4.95898 6.34635 5.15802 5.86584 5.5123 5.51156C5.86658 5.15728 6.34708 4.95825 6.84811 4.95825H12.9865C13.2346 4.95825 13.4803 5.00712 13.7095 5.10205C13.9387 5.19699 14.1469 5.33614 14.3223 5.51156C14.4978 5.68699 14.6369 5.89524 14.7319 6.12444C14.8268 6.35364 14.8757 6.59929 14.8757 6.84738V12.9858C14.8757 13.2339 14.8268 13.4795 14.7319 13.7087C14.6369 13.9379 14.4978 14.1462 14.3223 14.3216C14.1469 14.497 13.9387 14.6362 13.7095 14.7311C13.4803 14.8261 13.2346 14.8749 12.9865 14.8749H6.84811C6.60003 14.8749 6.35437 14.8261 6.12517 14.7311C5.89597 14.6362 5.68772 14.497 5.5123 14.3216C5.33687 14.1462 5.19772 13.9379 5.10279 13.7087C5.00785 13.4795 4.95898 13.2339 4.95898 12.9858V6.84738Z" stroke="#5E65FF" stroke-linecap="round" stroke-linejoin="round"/>
<path d="M2.84183 11.8554C2.62437 11.7318 2.4435 11.5529 2.3176 11.3368C2.19169 11.1207 2.12524 10.8751 2.125 10.625V3.54167C2.125 2.7625 2.7625 2.125 3.54167 2.125H10.625C11.1562 2.125 11.4452 2.39771 11.6875 2.83333" stroke="#5E65FF" stroke-linecap="round" stroke-linejoin="round"/>
</svg>
