<svg width="27" height="27" viewBox="0 0 27 27" fill="none" xmlns="http://www.w3.org/2000/svg">
<circle cx="13.5" cy="13.5" r="13.5" fill="#FF4D49"/>
<path fill-rule="evenodd" clip-rule="evenodd" d="M12.285 5.80859H15.001C15.1754 5.80859 15.3273 5.80859 15.4703 5.83109C15.7489 5.87573 16.0132 5.98495 16.2421 6.15002C16.4709 6.31509 16.6579 6.53142 16.7882 6.78172C16.8557 6.91029 16.9031 7.05413 16.9585 7.21886L17.0477 7.48806C17.1093 7.70676 17.2431 7.89814 17.4275 8.03095C17.6118 8.16376 17.8357 8.23016 18.0626 8.21931H20.4734C20.6332 8.21931 20.7865 8.2828 20.8995 8.39583C21.0125 8.50885 21.076 8.66215 21.076 8.82199C21.076 8.98183 21.0125 9.13512 20.8995 9.24814C20.7865 9.36117 20.6332 9.42467 20.4734 9.42467H6.81264C6.6528 9.42467 6.49951 9.36117 6.38648 9.24814C6.27346 9.13512 6.20996 8.98183 6.20996 8.82199C6.20996 8.66215 6.27346 8.50885 6.38648 8.39583C6.49951 8.2828 6.6528 8.21931 6.81264 8.21931H9.29568C9.51031 8.21416 9.71765 8.14037 9.88729 8.00877C10.0569 7.87717 10.1799 7.69468 10.2383 7.48806L10.3283 7.21886C10.3829 7.05413 10.4303 6.91029 10.497 6.78172C10.6273 6.53132 10.8145 6.31493 11.0435 6.14985C11.2725 5.98478 11.5369 5.87561 11.8157 5.83109C11.9587 5.80859 12.1106 5.80859 12.2842 5.80859M11.2379 8.21931C11.2943 8.10881 11.3414 7.99376 11.3785 7.87538L11.4589 7.63431C11.532 7.41493 11.5489 7.37074 11.5658 7.33859C11.6091 7.25503 11.6715 7.18279 11.7478 7.12767C11.8242 7.07255 11.9124 7.03608 12.0053 7.02118C12.1101 7.01234 12.2153 7.00992 12.3203 7.01395H14.9641C15.1955 7.01395 15.2437 7.01556 15.2791 7.02199C15.372 7.0368 15.4601 7.07314 15.5364 7.12812C15.6127 7.1831 15.6751 7.25518 15.7186 7.33859C15.7355 7.37074 15.7524 7.41493 15.8255 7.63511L15.9059 7.87618L15.9372 7.96618C15.9685 8.05458 16.0055 8.13815 16.0465 8.21931H11.2379Z" fill="white"/>
<path d="M8.75312 10.7892C8.74246 10.6297 8.66887 10.4809 8.54854 10.3757C8.42821 10.2704 8.27098 10.2172 8.11146 10.2279C7.95194 10.2386 7.80319 10.3121 7.69793 10.4325C7.59266 10.5528 7.53951 10.71 7.55017 10.8696L7.92303 16.456C7.99133 17.4862 8.04678 18.3187 8.17696 18.9728C8.31276 19.6518 8.54258 20.2191 9.01829 20.6635C9.49321 21.1087 10.075 21.3007 10.762 21.3899C11.4226 21.4767 12.2567 21.4767 13.2901 21.4767H13.9964C15.029 21.4767 15.8639 21.4767 16.5245 21.3899C17.2107 21.3007 17.7925 21.1087 18.2682 20.6635C18.7431 20.2191 18.9729 19.651 19.1087 18.9728C19.2389 18.3195 19.2936 17.4862 19.3627 16.456L19.7355 10.8696C19.7462 10.71 19.693 10.5528 19.5878 10.4325C19.4825 10.3121 19.3338 10.2386 19.1742 10.2279C19.0147 10.2172 18.8575 10.2704 18.7372 10.3757C18.6168 10.4809 18.5432 10.6297 18.5326 10.7892L18.1629 16.3338C18.0906 17.4163 18.0392 18.17 17.9267 18.7365C17.8166 19.287 17.6639 19.5779 17.4445 19.7836C17.2244 19.9893 16.9238 20.1227 16.3678 20.195C15.7948 20.2697 15.0395 20.2713 13.9538 20.2713H13.3319C12.247 20.2713 11.4917 20.2697 10.9179 20.195C10.3619 20.1227 10.0613 19.9893 9.84115 19.7836C9.62178 19.5779 9.4691 19.287 9.35901 18.7373C9.24651 18.17 9.19508 17.4163 9.12276 16.333L8.75312 10.7892Z" fill="white"/>
<path d="M11.5735 12.2413C11.7324 12.2254 11.8912 12.2732 12.0149 12.3743C12.1387 12.4754 12.2172 12.6215 12.2332 12.7805L12.635 16.7983C12.6467 16.9551 12.5968 17.1103 12.4958 17.2307C12.3948 17.3512 12.2507 17.4274 12.0943 17.4431C11.9379 17.4588 11.7815 17.4128 11.6585 17.3149C11.5355 17.217 11.4557 17.0748 11.436 16.9189L11.0343 12.901C11.0183 12.742 11.0662 12.5832 11.1673 12.4595C11.2684 12.3358 11.4145 12.2573 11.5735 12.2413ZM15.7118 12.2413C15.8707 12.2573 16.0166 12.3357 16.1177 12.4592C16.2188 12.5828 16.2667 12.7414 16.251 12.9002L15.8493 16.9181C15.8293 17.0737 15.7495 17.2155 15.6266 17.3132C15.5038 17.4109 15.3477 17.4568 15.1916 17.4412C15.0354 17.4257 14.8915 17.3498 14.7904 17.2297C14.6893 17.1096 14.6391 16.9549 14.6503 16.7983L15.0521 12.7805C15.0682 12.6217 15.1465 12.4757 15.2701 12.3746C15.3936 12.2735 15.553 12.2256 15.7118 12.2413Z" fill="white"/>
</svg>
