<svg width="49" height="24" viewBox="0 0 49 24" fill="none" xmlns="http://www.w3.org/2000/svg">
<rect width="49" height="24" rx="12" fill="#FF4D49"/>
<path d="M18.642 7.54545V17H17.5341L12.3821 9.5767H12.2898V17H11.1449V7.54545H12.2528L17.4233 14.9872H17.5156V7.54545H18.642ZM23.9183 17.1477C23.235 17.1477 22.6456 16.9969 22.1501 16.6953C21.6577 16.3906 21.2776 15.9659 21.0099 15.4212C20.7452 14.8733 20.6129 14.2363 20.6129 13.5099C20.6129 12.7836 20.7452 12.1435 21.0099 11.5895C21.2776 11.0324 21.65 10.5985 22.1271 10.2876C22.6072 9.97372 23.1673 9.81676 23.8075 9.81676C24.1768 9.81676 24.5415 9.87831 24.9016 10.0014C25.2617 10.1245 25.5894 10.3246 25.8849 10.6016C26.1803 10.8755 26.4158 11.2386 26.5912 11.6911C26.7666 12.1435 26.8543 12.7005 26.8543 13.3622V13.8239H21.3884V12.8821H25.7464C25.7464 12.482 25.6664 12.125 25.5063 11.8111C25.3494 11.4972 25.1247 11.2494 24.8323 11.0678C24.543 10.8862 24.2014 10.7955 23.8075 10.7955C23.3735 10.7955 22.998 10.9032 22.681 11.1186C22.3671 11.331 22.1255 11.608 21.9563 11.9496C21.787 12.2912 21.7023 12.6574 21.7023 13.0483V13.6761C21.7023 14.2116 21.7947 14.6656 21.9793 15.038C22.1671 15.4073 22.4271 15.6889 22.7595 15.8828C23.0919 16.0736 23.4782 16.169 23.9183 16.169C24.2045 16.169 24.463 16.129 24.6938 16.049C24.9277 15.9659 25.1293 15.8428 25.2986 15.6797C25.4679 15.5135 25.5987 15.3073 25.691 15.0611L26.7435 15.3565C26.6327 15.7135 26.4465 16.0275 26.1849 16.2983C25.9233 16.5661 25.6002 16.7753 25.2155 16.9261C24.8308 17.0739 24.3984 17.1477 23.9183 17.1477ZM30.2782 17L28.1177 9.90909H29.2626L30.7952 15.3381H30.8691L32.3833 9.90909H33.5467L35.0424 15.3196H35.1163L36.6489 9.90909H37.7938L35.6333 17H34.5623L33.0111 11.5526H32.9003L31.3492 17H30.2782Z" fill="white"/>
</svg>
