<svg width="16" height="16" viewBox="0 0 16 16" fill="none" xmlns="http://www.w3.org/2000/svg">
<path d="M12.6542 4.27445C12.7431 4.36329 12.7934 4.48323 12.7934 4.60909V13.7407C12.7934 14.0028 12.5817 14.2145 12.3196 14.2145H2.84297C2.58088 14.2145 2.36914 14.0028 2.36914 13.7407V1.4211C2.36914 1.15901 2.58088 0.947266 2.84297 0.947266H9.1316C9.25746 0.947266 9.37888 0.99761 9.46773 1.08645L12.6542 4.27445ZM11.7007 4.82676L8.91394 2.04004V4.82676H11.7007ZM9.37622 9.43566C9.15144 9.42825 8.91245 9.44558 8.64104 9.47949C8.28122 9.25753 8.03898 8.95265 7.86692 8.50473L7.88276 8.43987L7.90112 8.36317C7.96479 8.09471 7.999 7.89881 8.00921 7.70129C8.01691 7.55218 8.00862 7.41462 7.98212 7.28713C7.93325 7.01186 7.73854 6.85091 7.49318 6.84099C7.26441 6.83166 7.05415 6.95944 7.0004 7.15742C6.91289 7.47755 6.96412 7.89881 7.14965 8.61726C6.91333 9.18068 6.60105 9.84123 6.39152 10.2096C6.11182 10.3539 5.894 10.485 5.71098 10.6305C5.46963 10.8225 5.31889 11.0199 5.27743 11.2272C5.25729 11.3233 5.28764 11.4488 5.35679 11.5518C5.43527 11.6684 5.55343 11.7443 5.69514 11.7552C6.05273 11.7829 6.49221 11.4142 6.97745 10.5816C7.02616 10.5653 7.07769 10.5481 7.14062 10.5268L7.31683 10.4673C7.42833 10.4297 7.50917 10.4027 7.58913 10.3768C7.93562 10.264 8.19771 10.1928 8.43611 10.1522C8.85041 10.374 9.32928 10.5194 9.65178 10.5194C9.91801 10.5194 10.0979 10.3814 10.1629 10.1642C10.2199 9.97346 10.1748 9.75224 10.0522 9.62993C9.92542 9.5054 9.69235 9.44587 9.37622 9.43566ZM5.70417 11.3372V11.3319L5.7061 11.3268C5.72776 11.2708 5.75557 11.2174 5.78902 11.1675C5.85239 11.0701 5.93961 10.9676 6.0477 10.8585C6.10574 10.8 6.16616 10.743 6.23708 10.679C6.25293 10.6648 6.35421 10.5746 6.37316 10.5569L6.53856 10.4029L6.41832 10.5943C6.2359 10.8851 6.07095 11.0945 5.92969 11.231C5.87771 11.2814 5.83196 11.3184 5.79494 11.3422C5.78272 11.3504 5.76978 11.3574 5.75629 11.3633C5.75022 11.3658 5.74489 11.3673 5.73956 11.3677C5.73393 11.3684 5.72822 11.3677 5.72298 11.3655C5.7174 11.3631 5.71265 11.3592 5.7093 11.3542C5.70595 11.3492 5.70417 11.3432 5.70417 11.3372ZM7.56899 8.10508L7.53553 8.16431L7.5148 8.09945C7.4689 7.9539 7.43514 7.7346 7.42581 7.53678C7.41515 7.31171 7.43306 7.17667 7.50414 7.17667C7.60394 7.17667 7.64969 7.33658 7.65325 7.5772C7.65651 7.78865 7.62319 8.00868 7.56885 8.10508H7.56899ZM7.48296 8.97071L7.50562 8.91074L7.53657 8.96701C7.70966 9.28151 7.93429 9.5439 8.18127 9.72677L8.23458 9.76615L8.16958 9.77948C7.92777 9.82953 7.70256 9.90475 7.39457 10.029C7.4267 10.016 7.07443 10.1602 6.98529 10.1944L6.90756 10.2241L6.94902 10.1519C7.13189 9.83353 7.30084 9.4512 7.48282 8.97071H7.48296ZM9.81688 10.0999C9.70049 10.1458 9.44996 10.1048 9.00885 9.91645L8.89691 9.86877L9.01833 9.85988C9.36333 9.83427 9.60765 9.85322 9.7501 9.90534C9.81081 9.92755 9.85123 9.95554 9.86915 9.98752C9.87858 10.0027 9.88175 10.0209 9.87799 10.0383C9.87423 10.0558 9.86384 10.071 9.84901 10.081C9.8396 10.0892 9.82869 10.0957 9.81688 10.0999Z" fill="#FF0000"/>
</svg>
