<svg width="65" height="65" viewBox="0 0 65 65" fill="none" xmlns="http://www.w3.org/2000/svg">
<path fill-rule="evenodd" clip-rule="evenodd" d="M3.25 17.0625C3.25 15.1231 4.02042 13.2631 5.39178 11.8918C6.76314 10.5204 8.6231 9.75 10.5625 9.75H54.4375C55.3978 9.75 56.3487 9.93914 57.2359 10.3066C58.1231 10.6741 58.9292 11.2128 59.6082 11.8918C60.2872 12.5708 60.8259 13.3769 61.1934 14.2641C61.5609 15.1513 61.75 16.1022 61.75 17.0625V47.9375C61.75 48.8978 61.5609 49.8487 61.1934 50.7359C60.8259 51.6231 60.2872 52.4292 59.6082 53.1082C58.9292 53.7872 58.1231 54.3259 57.2359 54.6934C56.3487 55.0609 55.3978 55.25 54.4375 55.25H10.5625C8.6231 55.25 6.76314 54.4796 5.39178 53.1082C4.02042 51.7369 3.25 49.8769 3.25 47.9375V17.0625ZM8.125 35.945V47.9375C8.125 49.283 9.217 50.375 10.5625 50.375H54.4375C55.084 50.375 55.7039 50.1182 56.1611 49.6611C56.6182 49.2039 56.875 48.584 56.875 47.9375V39.195L49.66 31.9832C49.203 31.5268 48.5834 31.2704 47.9375 31.2704C47.2916 31.2704 46.672 31.5268 46.215 31.9832L40.0075 38.1875L41.535 39.715C41.7745 39.9382 41.9666 40.2073 42.0998 40.5062C42.233 40.8052 42.3046 41.128 42.3104 41.4553C42.3162 41.7826 42.256 42.1077 42.1334 42.4112C42.0108 42.7147 41.8283 42.9904 41.5969 43.2219C41.3654 43.4533 41.0897 43.6358 40.7862 43.7584C40.4827 43.881 40.1576 43.9412 39.8303 43.9354C39.503 43.9296 39.1802 43.858 38.8812 43.7248C38.5822 43.5916 38.3131 43.3995 38.09 43.16L21.2225 26.2957C20.7655 25.8393 20.1459 25.5829 19.5 25.5829C18.8541 25.5829 18.2345 25.8393 17.7775 26.2957L8.125 35.945ZM39 22.75C39 23.612 38.6576 24.4386 38.0481 25.0481C37.4386 25.6576 36.6119 26 35.75 26C34.888 26 34.0614 25.6576 33.4519 25.0481C32.8424 24.4386 32.5 23.612 32.5 22.75C32.5 21.888 32.8424 21.0614 33.4519 20.4519C34.0614 19.8424 34.888 19.5 35.75 19.5C36.6119 19.5 37.4386 19.8424 38.0481 20.4519C38.6576 21.0614 39 21.888 39 22.75Z" fill="#F9FAFB"/>
</svg>
